SplineFontDB: 3.0
FontName: CroissantOne-Regular
FullName: Croissant One
FamilyName: Croissant One
Weight: Book
Copyright: Copyright (c) 2012, Eduardo Tunni (http://www.tipo.net.ar), with Reserved Font Name 'Croissant'
Version: 1.001
ItalicAngle: 0
UnderlinePosition: 1
UnderlineWidth: 3
Ascent: 800
Descent: 200
sfntRevision: 0x00010042
LayerCount: 2
Layer: 0 1 "Back"  1
Layer: 1 1 "Fore"  0
XUID: [1021 138 1763157254 15911434]
FSType: 0
OS2Version: 3
OS2_WeightWidthSlopeOnly: 0
OS2_UseTypoMetrics: 1
CreationTime: 1330722720
ModificationTime: 1352734888
PfmFamily: 17
TTFWeight: 400
TTFWidth: 5
LineGap: 0
VLineGap: 0
Panose: 2 0 5 3 8 0 0 2 0 4
OS2TypoAscent: 1071
OS2TypoAOffset: 0
OS2TypoDescent: -344
OS2TypoDOffset: 0
OS2TypoLinegap: 0
OS2WinAscent: 1071
OS2WinAOffset: 0
OS2WinDescent: 344
OS2WinDOffset: 0
HheadAscent: 1071
HheadAOffset: 0
HheadDescent: -344
HheadDOffset: 0
OS2SubXSize: 650
OS2SubYSize: 600
OS2SubXOff: 0
OS2SubYOff: 75
OS2SupXSize: 650
OS2SupYSize: 600
OS2SupXOff: 0
OS2SupYOff: 350
OS2StrikeYSize: 3
OS2StrikeYPos: 300
OS2Vendor: 'TIPO'
OS2CodePages: 20000001.00000000
OS2UnicodeRanges: a000002f.4000204b.00000000.00000000
Lookup: 1 0 0 "'locl' Localized Forms in Latin lookup 0"  {"'locl' Localized Forms in Latin lookup 0 subtable"  } ['locl' ('latn' <'MOL ' 'ROM ' > ) ]
Lookup: 4 0 1 "'liga' Standard Ligatures in Latin lookup 1"  {"'liga' Standard Ligatures in Latin lookup 1 subtable"  } ['liga' ('latn' <'MOL ' 'ROM ' 'dflt' > ) ]
Lookup: 258 0 0 "'kern' Horizontal Kerning in Latin lookup 0"  {"'kern' Horizontal Kerning in Latin lookup 0 per glyph data 0"  "'kern' Horizontal Kerning in Latin lookup 0 kerning class 1"  } ['kern' ('latn' <'MOL ' 'ROM ' 'dflt' > ) ]
DEI: 91125
KernClass2: 7+ 14 "'kern' Horizontal Kerning in Latin lookup 0 kerning class 1" 
 84 A Agrave Aacute Acircumflex Atilde Adieresis Aring Amacron Abreve Aogonek Aringacute
 37 Y Yacute Ycircumflex Ydieresis Ygrave
 35 L Lacute uni013B Lcaron Ldot Lslash

StartChar: exclam
Encoding: 33 33 4
Width: 358
GlyphClass: 2
Flags: W
LayerCount: 2
Fore
SplineSet
102 62 m 128,-1,1
 102 94 102 94 124.5 116.5 c 128,-1,2
 147 139 147 139 179 139 c 128,-1,3
 211 139 211 139 233.5 116.5 c 128,-1,4
 256 94 256 94 256 62 c 128,-1,5
 256 30 256 30 233.5 7.5 c 128,-1,6
 211 -15 211 -15 179 -15 c 128,-1,7
 147 -15 147 -15 124.5 7.5 c 128,-1,0
 102 30 102 30 102 62 c 128,-1,1
108.5 538 m 128,-1,9
 100 607 100 607 100 638.5 c 128,-1,10
 100 670 100 670 121.5 692.5 c 128,-1,11
 143 715 143 715 179 715 c 128,-1,12
 215 715 215 715 236.5 692.5 c 128,-1,13
 258 670 258 670 258 638.5 c 128,-1,14
 258 607 258 607 249.5 538 c 128,-1,15
 241 469 241 469 227 368.5 c 128,-1,16
 213 268 213 268 206 203 c 1,17,-1
 152 203 l 1,18,19
 145 268 145 268 131 368.5 c 128,-1,8
 117 469 117 469 108.5 538 c 128,-1,9
EndSplineSet
EndChar

StartChar: quotedbl
Encoding: 34 34 5
Width: 512
GlyphClass: 2
Flags: W
LayerCount: 2
Fore
SplineSet
92.5 646.5 m 128,-1,1
 85 682 85 682 85 703.5 c 128,-1,2
 85 725 85 725 104 745 c 128,-1,3
 123 765 123 765 156 765 c 128,-1,4
 189 765 189 765 208 745 c 128,-1,5
 227 725 227 725 227 703.5 c 128,-1,6
 227 682 227 682 219.5 646.5 c 128,-1,7
 212 611 212 611 199 558 c 128,-1,8
 186 505 186 505 180 475 c 1,9,-1
 132 475 l 1,10,11
 126 505 126 505 113 558 c 128,-1,0
 100 611 100 611 92.5 646.5 c 128,-1,1
292.5 646.5 m 128,-1,13
 285 682 285 682 285 703.5 c 128,-1,14
 285 725 285 725 304 745 c 128,-1,15
 323 765 323 765 356 765 c 128,-1,16
 389 765 389 765 408 745 c 128,-1,17
 427 725 427 725 427 703.5 c 128,-1,18
 427 682 427 682 419.5 646.5 c 128,-1,19
 412 611 412 611 399 558 c 128,-1,20
 386 505 386 505 380 475 c 1,21,-1
 332 475 l 1,22,23
 326 505 326 505 313 558 c 128,-1,12
 300 611 300 611 292.5 646.5 c 128,-1,13
EndSplineSet
EndChar

StartChar: numbersign
Encoding: 35 35 6
Width: 742
GlyphClass: 2
Flags: W
LayerCount: 2
Fore
SplineSet
114 420 m 1,0,-1
 132 480 l 1,1,-1
 262 480 l 1,2,-1
 331 700 l 1,3,-1
 391 700 l 1,4,-1
 322 480 l 1,5,-1
 502 480 l 1,6,-1
 571 700 l 1,7,-1
 631 700 l 1,8,-1
 562 480 l 1,9,-1
 692 480 l 1,10,-1
 673 420 l 1,11,-1
 543 420 l 1,12,-1
 499 280 l 1,13,-1
 629 280 l 1,14,-1
 610 220 l 1,15,-1
 480 220 l 1,16,-1
 411 0 l 1,17,-1
 351 0 l 1,18,-1
 420 220 l 1,19,-1
 240 220 l 1,20,-1
 171 0 l 1,21,-1
 111 0 l 1,22,-1
 180 220 l 1,23,-1
 50 220 l 1,24,-1
 69 280 l 1,25,-1
 199 280 l 1,26,-1
 243 420 l 1,27,-1
 114 420 l 1,0,-1
303 420 m 1,28,-1
 259 280 l 1,29,-1
 439 280 l 1,30,-1
 483 420 l 1,31,-1
 303 420 l 1,28,-1
EndSplineSet
EndChar

StartChar: dollar
Encoding: 36 36 7
Width: 650
GlyphClass: 2
Flags: W
LayerCount: 2
Fore
SplineSet
330 800 m 1,0,-1
 330 715 l 1,1,2
 411 715 411 715 476.5 677.5 c 128,-1,3
 542 640 542 640 542 574 c 0,4,5
 542 544 542 544 521 523 c 128,-1,6
 500 502 500 502 470 502 c 128,-1,7
 440 502 440 502 419 523.5 c 128,-1,8
 398 545 398 545 398 571.5 c 128,-1,9
 398 598 398 598 412 617 c 128,-1,10
 426 636 426 636 449 643 c 1,11,12
 401 668 401 668 330 668 c 1,13,-1
 330 423 l 1,14,-1
 421 375 l 2,15,16
 566 299 566 299 566 175 c 0,17,18
 566 84 566 84 499.5 36 c 128,-1,19
 433 -12 433 -12 330 -15 c 1,20,-1
 330 -100 l 1,21,-1
 300 -100 l 1,22,-1
 300 -14 l 1,23,24
 213 -10 213 -10 148.5 32 c 128,-1,25
 84 74 84 74 84 146 c 0,26,27
 84 176 84 176 105 197 c 128,-1,28
 126 218 126 218 156 218 c 128,-1,29
 186 218 186 218 207 196.5 c 128,-1,30
 228 175 228 175 228 145.5 c 128,-1,31
 228 116 228 116 208.5 96 c 128,-1,32
 189 76 189 76 161 74 c 1,33,34
 207 36 207 36 300 32 c 1,35,-1
 300 278 l 1,36,-1
 225 318 l 2,37,38
 97 387 97 387 97 515 c 0,39,40
 97 591 97 591 147.5 647.5 c 128,-1,41
 198 704 198 704 300 713 c 1,42,-1
 300 800 l 1,43,-1
 330 800 l 1,0,-1
446 138 m 0,44,45
 446 199 446 199 373 239 c 2,46,-1
 330 262 l 1,47,-1
 330 32 l 1,48,49
 384 36 384 36 415 64.5 c 128,-1,50
 446 93 446 93 446 138 c 0,44,45
220 563 m 0,51,52
 220 479 220 479 300 439 c 1,53,-1
 300 664 l 1,54,55
 260 654 260 654 240 625 c 128,-1,56
 220 596 220 596 220 563 c 0,51,52
EndSplineSet
EndChar

StartChar: percent
Encoding: 37 37 8
Width: 1044
GlyphClass: 2
Flags: W
LayerCount: 2
Fore
SplineSet
737 700 m 1,0,-1
 347 0 l 1,1,-1
 307 0 l 1,2,-1
 697 700 l 1,3,-1
 737 700 l 1,0,-1
134 645 m 128,-1,5
 178 709 178 709 251 709 c 128,-1,6
 324 709 324 709 368.5 645 c 128,-1,7
 413 581 413 581 413 486.5 c 128,-1,8
 413 392 413 392 368.5 329 c 128,-1,9
 324 266 324 266 251 266 c 128,-1,10
 178 266 178 266 134 329.5 c 128,-1,11
 90 393 90 393 90 487 c 128,-1,4
 90 581 90 581 134 645 c 128,-1,5
299 620.5 m 128,-1,13
 283 672 283 672 251.5 672 c 128,-1,14
 220 672 220 672 204 620.5 c 128,-1,15
 188 569 188 569 188 487 c 128,-1,16
 188 405 188 405 204 354 c 128,-1,17
 220 303 220 303 251.5 303 c 128,-1,18
 283 303 283 303 299 354 c 128,-1,19
 315 405 315 405 315 487 c 128,-1,12
 315 569 315 569 299 620.5 c 128,-1,13
675 370 m 128,-1,21
 719 434 719 434 792 434 c 128,-1,22
 865 434 865 434 909.5 370 c 128,-1,23
 954 306 954 306 954 211.5 c 128,-1,24
 954 117 954 117 909.5 54 c 128,-1,25
 865 -9 865 -9 792 -9 c 128,-1,26
 719 -9 719 -9 675 54.5 c 128,-1,27
 631 118 631 118 631 212 c 128,-1,20
 631 306 631 306 675 370 c 128,-1,21
840 345.5 m 128,-1,29
 824 397 824 397 792.5 397 c 128,-1,30
 761 397 761 397 745 345.5 c 128,-1,31
 729 294 729 294 729 212 c 128,-1,32
 729 130 729 130 745 79 c 128,-1,33
 761 28 761 28 792.5 28 c 128,-1,34
 824 28 824 28 840 79 c 128,-1,35
 856 130 856 130 856 212 c 128,-1,28
 856 294 856 294 840 345.5 c 128,-1,29
EndSplineSet
EndChar

StartChar: ampersand
Encoding: 38 38 9
Width: 637
GlyphClass: 2
Flags: W
LayerCount: 2
Fore
SplineSet
69.5 30 m 128,-1,1
 30 75 30 75 30 150 c 128,-1,2
 30 225 30 225 76 277 c 128,-1,3
 122 329 122 329 207 329 c 2,4,-1
 219 329 l 1,5,6
 148 471 148 471 148 545 c 0,7,8
 148 715 148 715 372 715 c 0,9,10
 442 715 442 715 504 683 c 128,-1,11
 566 651 566 651 566 607 c 0,12,13
 566 590 566 590 555 568 c 2,14,-1
 507 476 l 1,15,-1
 472 487 l 1,16,-1
 472 571 l 2,17,18
 472 616 472 616 441.5 642 c 128,-1,19
 411 668 411 668 367 668 c 128,-1,20
 323 668 323 668 299.5 645.5 c 128,-1,21
 276 623 276 623 276 593 c 0,22,23
 276 552 276 552 318 468 c 0,24,25
 329 446 329 446 336.5 430 c 128,-1,26
 344 414 344 414 360 382.5 c 128,-1,27
 376 351 376 351 387 329 c 1,28,-1
 555 329 l 1,29,-1
 555 284 l 1,30,-1
 409 284 l 1,31,-1
 500 98 l 2,32,33
 522 53 522 53 558 53 c 128,-1,34
 594 53 594 53 629 82 c 1,35,-1
 647 58 l 1,36,37
 567 -15 567 -15 477 -15 c 0,38,39
 429 -15 429 -15 396 9 c 128,-1,40
 363 33 363 33 326 113 c 1,41,42
 311 56 311 56 271 20.5 c 128,-1,43
 231 -15 231 -15 170 -15 c 128,-1,0
 109 -15 109 -15 69.5 30 c 128,-1,1
168 173 m 128,-1,45
 168 122 168 122 183 89 c 128,-1,46
 198 56 198 56 230 56 c 128,-1,47
 262 56 262 56 279.5 88 c 128,-1,48
 297 120 297 120 298 171 c 1,49,-1
 242 284 l 1,50,-1
 238 284 l 2,51,52
 203 284 203 284 185.5 254 c 128,-1,44
 168 224 168 224 168 173 c 128,-1,45
EndSplineSet
EndChar

StartChar: quotesingle
Encoding: 39 39 10
Width: 312
GlyphClass: 2
Flags: W
LayerCount: 2
Fore
SplineSet
92.5 646.5 m 128,-1,1
 85 682 85 682 85 703.5 c 128,-1,2
 85 725 85 725 104 745 c 128,-1,3
 123 765 123 765 156 765 c 128,-1,4
 189 765 189 765 208 745 c 128,-1,5
 227 725 227 725 227 703.5 c 128,-1,6
 227 682 227 682 219.5 646.5 c 128,-1,7
 212 611 212 611 199 558 c 128,-1,8
 186 505 186 505 180 475 c 1,9,-1
 132 475 l 1,10,11
 126 505 126 505 113 558 c 128,-1,0
 100 611 100 611 92.5 646.5 c 128,-1,1
EndSplineSet
EndChar

StartChar: parenleft
Encoding: 40 40 11
Width: 414
GlyphClass: 2
Flags: W
LayerCount: 2
Fore
SplineSet
205 351 m 128,-1,1
 205 192 205 192 254.5 97 c 128,-1,2
 304 2 304 2 398 -24 c 1,3,-1
 398 -47 l 1,4,5
 244 -47 244 -47 152 53.5 c 128,-1,6
 60 154 60 154 60 351 c 128,-1,7
 60 548 60 548 152 648.5 c 128,-1,8
 244 749 244 749 398 749 c 1,9,-1
 398 726 l 1,10,11
 304 700 304 700 254.5 605 c 128,-1,0
 205 510 205 510 205 351 c 128,-1,1
EndSplineSet
EndChar

StartChar: parenright
Encoding: 41 41 12
Width: 414
GlyphClass: 2
Flags: W
LayerCount: 2
Fore
SplineSet
209 351 m 128,-1,1
 209 510 209 510 159.5 605 c 128,-1,2
 110 700 110 700 16 726 c 1,3,-1
 16 749 l 1,4,5
 170 749 170 749 262 648.5 c 128,-1,6
 354 548 354 548 354 351 c 128,-1,7
 354 154 354 154 262 53.5 c 128,-1,8
 170 -47 170 -47 16 -47 c 1,9,-1
 16 -24 l 1,10,11
 110 2 110 2 159.5 97 c 128,-1,0
 209 192 209 192 209 351 c 128,-1,1
EndSplineSet
EndChar

StartChar: asterisk
Encoding: 42 42 13
Width: 577
GlyphClass: 2
Flags: W
LayerCount: 2
Fore
SplineSet
262 562 m 1,0,1
 220 671 220 671 220 695.5 c 128,-1,2
 220 720 220 720 238.5 742.5 c 128,-1,3
 257 765 257 765 289 765 c 128,-1,4
 321 765 321 765 339.5 742.5 c 128,-1,5
 358 720 358 720 358 691 c 0,6,7
 358 675 358 675 338.5 624 c 128,-1,8
 319 573 319 573 315 561 c 1,9,-1
 322 556 l 1,10,11
 336 566 336 566 356.5 582 c 128,-1,12
 377 598 377 598 388 606.5 c 128,-1,13
 399 615 399 615 413 624 c 0,14,15
 439 641 439 641 461 641 c 128,-1,16
 483 641 483 641 505 623 c 128,-1,17
 527 605 527 605 527 571.5 c 128,-1,18
 527 538 527 538 501 520 c 128,-1,19
 475 502 475 502 437 502 c 1,20,-1
 339 505 l 1,21,-1
 336 497 l 1,22,23
 350 487 350 487 376.5 469.5 c 128,-1,24
 403 452 403 452 413.5 444.5 c 128,-1,25
 424 437 424 437 438 424 c 0,26,27
 462 402 462 402 462 374.5 c 128,-1,28
 462 347 462 347 443 326 c 128,-1,29
 424 305 424 305 403 305 c 128,-1,30
 382 305 382 305 371.5 307.5 c 128,-1,31
 361 310 361 310 352 319 c 128,-1,32
 343 328 343 328 338 334 c 128,-1,33
 333 340 333 340 326 358 c 128,-1,34
 319 376 319 376 316 386 c 0,35,36
 307 416 307 416 293 465 c 1,37,-1
 284 465 l 1,38,39
 279 449 279 449 272 424 c 128,-1,40
 265 399 265 399 261.5 387.5 c 128,-1,41
 258 376 258 376 252 359 c 128,-1,42
 246 342 246 342 240.5 335 c 128,-1,43
 235 328 235 328 226 320 c 1,44,45
 212 305 212 305 183 305 c 128,-1,46
 154 305 154 305 135 326 c 128,-1,47
 116 347 116 347 116 367 c 128,-1,48
 116 387 116 387 120.5 399 c 128,-1,49
 125 411 125 411 139 424 c 128,-1,50
 153 437 153 437 162.5 444.5 c 128,-1,51
 172 452 172 452 199 469.5 c 128,-1,52
 226 487 226 487 240 497 c 1,53,-1
 237 506 l 1,54,-1
 140 503 l 1,55,56
 102 503 102 503 76 520.5 c 128,-1,57
 50 538 50 538 50 571.5 c 128,-1,58
 50 605 50 605 72 623 c 128,-1,59
 94 641 94 641 121 641 c 0,60,61
 141 641 141 641 160 628 c 128,-1,62
 179 615 179 615 189 607.5 c 128,-1,63
 199 600 199 600 220 583.5 c 128,-1,64
 241 567 241 567 254 557 c 1,65,-1
 262 562 l 1,0,1
EndSplineSet
EndChar

StartChar: plus
Encoding: 43 43 14
Width: 560
GlyphClass: 2
Flags: W
LayerCount: 2
Fore
SplineSet
90 320 m 1,0,-1
 90 380 l 1,1,-1
 250 380 l 1,2,-1
 250 540 l 1,3,-1
 310 540 l 1,4,-1
 310 380 l 1,5,-1
 470 380 l 1,6,-1
 470 320 l 1,7,-1
 310 320 l 1,8,-1
 310 160 l 1,9,-1
 250 160 l 1,10,-1
 250 320 l 1,11,-1
 90 320 l 1,0,-1
EndSplineSet
EndChar

StartChar: comma
Encoding: 44 44 15
Width: 274
GlyphClass: 2
Flags: W
LayerCount: 2
Fore
SplineSet
67 -144 m 1,0,1
 111 -93 111 -93 111 -55.5 c 128,-1,2
 111 -18 111 -18 85.5 3.5 c 128,-1,3
 60 25 60 25 60 59.5 c 128,-1,4
 60 94 60 94 82.5 116.5 c 128,-1,5
 105 139 105 139 137.5 139 c 128,-1,6
 170 139 170 139 192 114 c 128,-1,7
 214 89 214 89 214 46 c 0,8,9
 214 -66 214 -66 94 -169 c 1,10,-1
 67 -144 l 1,0,1
EndSplineSet
EndChar

StartChar: hyphen
Encoding: 45 45 16
Width: 400
GlyphClass: 2
Flags: W
LayerCount: 2
Fore
SplineSet
50 252 m 1,0,-1
 50 312 l 1,1,-1
 350 312 l 1,2,-1
 350 252 l 1,3,-1
 50 252 l 1,0,-1
EndSplineSet
EndChar

StartChar: period
Encoding: 46 46 17
Width: 274
GlyphClass: 2
Flags: W
LayerCount: 2
Fore
SplineSet
60 62 m 128,-1,1
 60 94 60 94 82.5 116.5 c 128,-1,2
 105 139 105 139 137 139 c 128,-1,3
 169 139 169 139 191.5 116.5 c 128,-1,4
 214 94 214 94 214 62 c 128,-1,5
 214 30 214 30 191.5 7.5 c 128,-1,6
 169 -15 169 -15 137 -15 c 128,-1,7
 105 -15 105 -15 82.5 7.5 c 128,-1,0
 60 30 60 30 60 62 c 128,-1,1
EndSplineSet
EndChar

StartChar: slash
Encoding: 47 47 18
Width: 410
GlyphClass: 2
Flags: W
LayerCount: 2
Fore
SplineSet
380 700 m 1,0,-1
 120 0 l 1,1,-1
 30 0 l 1,2,-1
 290 700 l 1,3,-1
 380 700 l 1,0,-1
EndSplineSet
EndChar

StartChar: zero
Encoding: 48 48 19
Width: 600
GlyphClass: 2
Flags: W
LayerCount: 2
Fore
SplineSet
109 609.5 m 128,-1,1
 182 715 182 715 300 715 c 128,-1,2
 418 715 418 715 491 609.5 c 128,-1,3
 564 504 564 504 564 349 c 128,-1,4
 564 194 564 194 491 89.5 c 128,-1,5
 418 -15 418 -15 300 -15 c 128,-1,6
 182 -15 182 -15 109 90 c 128,-1,7
 36 195 36 195 36 349.5 c 128,-1,0
 36 504 36 504 109 609.5 c 128,-1,1
300 674 m 128,-1,9
 242 674 242 674 211.5 582.5 c 128,-1,10
 181 491 181 491 181 349.5 c 128,-1,11
 181 208 181 208 211.5 117 c 128,-1,12
 242 26 242 26 300 26 c 128,-1,13
 358 26 358 26 388.5 117 c 128,-1,14
 419 208 419 208 419 349.5 c 128,-1,15
 419 491 419 491 388.5 582.5 c 128,-1,8
 358 674 358 674 300 674 c 128,-1,9
EndSplineSet
EndChar

StartChar: one
Encoding: 49 49 20
Width: 472
GlyphClass: 2
Flags: W
LayerCount: 2
Fore
SplineSet
342 700 m 1,0,-1
 342 40 l 1,1,-1
 472 40 l 1,2,-1
 472 0 l 1,3,-1
 42 0 l 1,4,-1
 42 40 l 1,5,-1
 192 40 l 1,6,-1
 192 577 l 1,7,8
 99 538 99 538 0 538 c 1,9,-1
 0 578 l 1,10,11
 92 578 92 578 171.5 612 c 128,-1,12
 251 646 251 646 298 700 c 1,13,-1
 342 700 l 1,0,-1
EndSplineSet
EndChar

StartChar: two
Encoding: 50 50 21
Width: 600
GlyphClass: 2
Flags: W
LayerCount: 2
Fore
SplineSet
466 0 m 2,0,-1
 42 0 l 1,1,-1
 42 40 l 1,2,-1
 277 278 l 2,3,4
 380 382 380 382 380 498 c 0,5,6
 380 569 380 569 339.5 616 c 128,-1,7
 299 663 299 663 237 663 c 0,8,9
 192 663 192 663 158 649 c 1,10,11
 181 641 181 641 196 620.5 c 128,-1,12
 211 600 211 600 211 571 c 128,-1,13
 211 542 211 542 187 518 c 128,-1,14
 163 494 163 494 130 494 c 128,-1,15
 97 494 97 494 74 517.5 c 128,-1,16
 51 541 51 541 51 574 c 0,17,18
 51 638 51 638 118.5 676.5 c 128,-1,19
 186 715 186 715 287 715 c 128,-1,20
 388 715 388 715 453 661.5 c 128,-1,21
 518 608 518 608 518 530 c 0,22,23
 518 470 518 470 480 418 c 128,-1,24
 442 366 442 366 339 268 c 2,25,-1
 156 92 l 1,26,-1
 322 92 l 2,27,28
 386 92 386 92 415 110 c 128,-1,29
 444 128 444 128 454 174 c 1,30,-1
 461 210 l 1,31,-1
 500 210 l 1,32,-1
 527 42 l 1,33,34
 527 22 527 22 518 12.5 c 128,-1,35
 509 3 509 3 498.5 1.5 c 128,-1,36
 488 0 488 0 466 0 c 2,0,-1
EndSplineSet
EndChar

StartChar: three
Encoding: 51 51 22
Width: 600
GlyphClass: 2
Flags: W
LayerCount: 2
Fore
SplineSet
211 620.5 m 128,-1,1
 226 600 226 600 226 571 c 128,-1,2
 226 542 226 542 202.5 518 c 128,-1,3
 179 494 179 494 146 494 c 128,-1,4
 113 494 113 494 89.5 517.5 c 128,-1,5
 66 541 66 541 66 574 c 0,6,7
 66 639 66 639 135.5 677 c 128,-1,8
 205 715 205 715 307 715 c 128,-1,9
 409 715 409 715 471 661.5 c 128,-1,10
 533 608 533 608 533 530 c 0,11,12
 533 472 533 472 496 425.5 c 128,-1,13
 459 379 459 379 394 354 c 1,14,15
 464 331 464 331 503.5 287 c 128,-1,16
 543 243 543 243 543 190 c 0,17,18
 543 103 543 103 469.5 44 c 128,-1,19
 396 -15 396 -15 278 -15 c 0,20,21
 189 -15 189 -15 122.5 22.5 c 128,-1,22
 56 60 56 60 56 126 c 0,23,24
 56 159 56 159 79.5 182.5 c 128,-1,25
 103 206 103 206 136 206 c 128,-1,26
 169 206 169 206 192.5 182 c 128,-1,27
 216 158 216 158 216 128.5 c 128,-1,28
 216 99 216 99 199.5 77.5 c 128,-1,29
 183 56 183 56 158 49 c 1,30,31
 185 37 185 37 222 37 c 0,32,33
 303 37 303 37 345.5 82.5 c 128,-1,34
 388 128 388 128 388 188.5 c 128,-1,35
 388 249 388 249 348 291 c 128,-1,36
 308 333 308 333 232 333 c 2,37,-1
 178 333 l 1,38,-1
 178 375 l 1,39,-1
 247 375 l 2,40,41
 321 375 321 375 359.5 421 c 128,-1,42
 398 467 398 467 398 525.5 c 128,-1,43
 398 584 398 584 360.5 623.5 c 128,-1,44
 323 663 323 663 252 663 c 0,45,46
 207 663 207 663 173 649 c 1,47,0
 196 641 196 641 211 620.5 c 128,-1,1
EndSplineSet
EndChar

StartChar: four
Encoding: 52 52 23
Width: 600
GlyphClass: 2
Flags: W
LayerCount: 2
Fore
SplineSet
349 700 m 1,0,1
 349 559 349 559 267.5 425.5 c 128,-1,2
 186 292 186 292 80 209 c 1,3,-1
 324 209 l 1,4,-1
 324 410 l 1,5,6
 409 446 409 446 430 515 c 1,7,-1
 474 515 l 1,8,-1
 474 209 l 1,9,-1
 534 209 l 1,10,-1
 534 159 l 1,11,-1
 474 159 l 1,12,-1
 474 40 l 1,13,-1
 594 40 l 1,14,-1
 594 0 l 1,15,-1
 194 0 l 1,16,-1
 194 40 l 1,17,-1
 324 40 l 1,18,-1
 324 159 l 1,19,-1
 17 159 l 1,20,-1
 17 209 l 1,21,22
 114 300 114 300 148 450 c 0,23,24
 175 571 175 571 179 700 c 1,25,-1
 349 700 l 1,0,1
EndSplineSet
EndChar

StartChar: five
Encoding: 53 53 24
Width: 600
GlyphClass: 2
Flags: W
LayerCount: 2
Fore
SplineSet
456 700 m 2,0,1
 478 700 478 700 488.5 698.5 c 128,-1,2
 499 697 499 697 508 687.5 c 128,-1,3
 517 678 517 678 517 658 c 1,4,-1
 490 490 l 1,5,-1
 451 490 l 1,6,-1
 442 536 l 2,7,8
 432 582 432 582 403 600 c 128,-1,9
 374 618 374 618 310 618 c 2,10,-1
 174 618 l 1,11,-1
 158 395 l 1,12,13
 213 415 213 415 262 415 c 0,14,15
 390 415 390 415 469 353 c 128,-1,16
 548 291 548 291 548 200 c 128,-1,17
 548 109 548 109 474.5 47 c 128,-1,18
 401 -15 401 -15 283 -15 c 0,19,20
 194 -15 194 -15 127.5 22.5 c 128,-1,21
 61 60 61 60 61 126 c 0,22,23
 61 159 61 159 84.5 182.5 c 128,-1,24
 108 206 108 206 141 206 c 128,-1,25
 174 206 174 206 197.5 182 c 128,-1,26
 221 158 221 158 221 128.5 c 128,-1,27
 221 99 221 99 204.5 77.5 c 128,-1,28
 188 56 188 56 163 49 c 1,29,30
 190 37 190 37 227 37 c 0,31,32
 308 37 308 37 350.5 85.5 c 128,-1,33
 393 134 393 134 393 200.5 c 128,-1,34
 393 267 393 267 350.5 315 c 128,-1,35
 308 363 308 363 236 363 c 128,-1,36
 164 363 164 363 123 335 c 1,37,-1
 98 364 l 1,38,-1
 121 700 l 1,39,-1
 456 700 l 2,0,1
EndSplineSet
EndChar

StartChar: six
Encoding: 54 54 25
Width: 600
GlyphClass: 2
Flags: W
LayerCount: 2
Fore
SplineSet
389.5 508 m 128,-1,1
 366 532 366 532 366 561.5 c 128,-1,2
 366 591 366 591 382.5 612.5 c 128,-1,3
 399 634 399 634 425 641 c 1,4,5
 391 675 391 675 338 675 c 0,6,7
 199 675 199 675 196 358 c 1,8,9
 239 425 239 425 331.5 425 c 128,-1,10
 424 425 424 425 485.5 362 c 128,-1,11
 547 299 547 299 547 207 c 128,-1,12
 547 115 547 115 481 50 c 128,-1,13
 415 -15 415 -15 304 -15 c 0,14,15
 59 -15 59 -15 59 339 c 0,16,17
 59 509 59 509 136 612 c 128,-1,18
 213 715 213 715 337 715 c 0,19,20
 424 715 424 715 475 667 c 128,-1,21
 526 619 526 619 526 564 c 0,22,23
 526 531 526 531 502.5 507.5 c 128,-1,24
 479 484 479 484 446 484 c 128,-1,0
 413 484 413 484 389.5 508 c 128,-1,1
385 325.5 m 128,-1,26
 358 374 358 374 304.5 374 c 128,-1,27
 251 374 251 374 222.5 328.5 c 128,-1,28
 194 283 194 283 194 207 c 128,-1,29
 194 131 194 131 222 78.5 c 128,-1,30
 250 26 250 26 302.5 26 c 128,-1,31
 355 26 355 26 383.5 75 c 128,-1,32
 412 124 412 124 412 200.5 c 128,-1,25
 412 277 412 277 385 325.5 c 128,-1,26
EndSplineSet
EndChar

StartChar: seven
Encoding: 55 55 26
Width: 518
GlyphClass: 2
Flags: W
LayerCount: 2
Fore
SplineSet
308.5 132.5 m 128,-1,1
 323 84 323 84 323 58 c 128,-1,2
 323 32 323 32 299.5 8.5 c 128,-1,3
 276 -15 276 -15 242 -15 c 128,-1,4
 208 -15 208 -15 185.5 12 c 128,-1,5
 163 39 163 39 163 78 c 128,-1,6
 163 117 163 117 172.5 164.5 c 128,-1,7
 182 212 182 212 204.5 279.5 c 128,-1,8
 227 347 227 347 275.5 429 c 128,-1,9
 324 511 324 511 391 584 c 2,10,-1
 422 618 l 1,11,-1
 237 618 l 2,12,13
 173 618 173 618 144 600 c 128,-1,14
 115 582 115 582 105 536 c 2,15,-1
 96 490 l 1,16,-1
 57 490 l 1,17,-1
 30 658 l 1,18,19
 30 678 30 678 39 687.5 c 128,-1,20
 48 697 48 697 58.5 698.5 c 128,-1,21
 69 700 69 700 91 700 c 2,22,-1
 505 700 l 1,23,-1
 505 660 l 1,24,25
 294 421 294 421 294 225 c 0,26,0
 294 181 294 181 308.5 132.5 c 128,-1,1
EndSplineSet
EndChar

StartChar: eight
Encoding: 56 56 27
Width: 600
GlyphClass: 2
Flags: W
LayerCount: 2
Fore
SplineSet
519 616.5 m 128,-1,1
 541 579 541 579 541 526.5 c 128,-1,2
 541 474 541 474 505 427 c 128,-1,3
 469 380 469 380 410 355 c 1,4,5
 478 331 478 331 519.5 283.5 c 128,-1,6
 561 236 561 236 561 180 c 0,7,8
 561 84 561 84 484 34.5 c 128,-1,9
 407 -15 407 -15 300 -15 c 0,10,11
 205 -15 205 -15 126 28 c 0,12,13
 87 50 87 50 63 89.5 c 128,-1,14
 39 129 39 129 39 182 c 128,-1,15
 39 235 39 235 80.5 283 c 128,-1,16
 122 331 122 331 189 355 c 1,17,18
 131 380 131 380 95 427 c 128,-1,19
 59 474 59 474 59 533.5 c 128,-1,20
 59 593 59 593 96 636 c 0,21,22
 163 715 163 715 300 715 c 0,23,24
 388 715 388 715 460 674 c 0,25,0
 497 654 497 654 519 616.5 c 128,-1,1
411 170 m 0,26,27
 411 284 411 284 280 325 c 1,28,29
 189 283 189 283 189 170 c 0,30,31
 189 109 189 109 219.5 68 c 128,-1,32
 250 27 250 27 300.5 27 c 128,-1,33
 351 27 351 27 381 68 c 128,-1,34
 411 109 411 109 411 170 c 0,26,27
406 540 m 0,35,36
 406 592 406 592 378 632.5 c 128,-1,37
 350 673 350 673 299.5 673 c 128,-1,38
 249 673 249 673 221.5 633.5 c 128,-1,39
 194 594 194 594 194 540 c 0,40,41
 194 411 194 411 320 381 c 1,42,43
 406 411 406 411 406 540 c 0,35,36
EndSplineSet
EndChar

StartChar: nine
Encoding: 57 57 28
Width: 600
GlyphClass: 2
Flags: W
LayerCount: 2
Fore
SplineSet
203 192 m 128,-1,1
 227 168 227 168 227 138.5 c 128,-1,2
 227 109 227 109 211.5 88 c 128,-1,3
 196 67 196 67 171 59 c 1,4,5
 208 25 208 25 265 25 c 0,6,7
 335 25 335 25 373 93 c 128,-1,8
 411 161 411 161 411 300 c 0,9,10
 411 307 411 307 410.5 326 c 128,-1,11
 410 345 410 345 410 352 c 1,12,13
 362 275 362 275 256 275 c 0,14,15
 171 275 171 275 113.5 334 c 128,-1,16
 56 393 56 393 56 489 c 128,-1,17
 56 585 56 585 122 650 c 128,-1,18
 188 715 188 715 299 715 c 0,19,20
 426 715 426 715 485 620 c 128,-1,21
 544 525 544 525 544 358 c 128,-1,22
 544 191 544 191 467 88 c 128,-1,23
 390 -15 390 -15 266 -15 c 0,24,25
 182 -15 182 -15 124.5 26 c 128,-1,26
 67 67 67 67 67 136 c 0,27,28
 67 169 67 169 90 192.5 c 128,-1,29
 113 216 113 216 146 216 c 128,-1,0
 179 216 179 216 203 192 c 128,-1,1
218 374.5 m 128,-1,31
 245 326 245 326 298.5 326 c 128,-1,32
 352 326 352 326 380.5 371.5 c 128,-1,33
 409 417 409 417 409 493 c 128,-1,34
 409 569 409 569 381 621.5 c 128,-1,35
 353 674 353 674 300.5 674 c 128,-1,36
 248 674 248 674 219.5 625 c 128,-1,37
 191 576 191 576 191 499.5 c 128,-1,30
 191 423 191 423 218 374.5 c 128,-1,31
EndSplineSet
EndChar

StartChar: colon
Encoding: 58 58 29
Width: 274
GlyphClass: 2
Flags: W
LayerCount: 2
Fore
SplineSet
60 62 m 128,-1,1
 60 94 60 94 82.5 116.5 c 128,-1,2
 105 139 105 139 137 139 c 128,-1,3
 169 139 169 139 191.5 116.5 c 128,-1,4
 214 94 214 94 214 62 c 128,-1,5
 214 30 214 30 191.5 7.5 c 128,-1,6
 169 -15 169 -15 137 -15 c 128,-1,7
 105 -15 105 -15 82.5 7.5 c 128,-1,0
 60 30 60 30 60 62 c 128,-1,1
60 422 m 128,-1,9
 60 454 60 454 82.5 476.5 c 128,-1,10
 105 499 105 499 137 499 c 128,-1,11
 169 499 169 499 191.5 476.5 c 128,-1,12
 214 454 214 454 214 422 c 128,-1,13
 214 390 214 390 191.5 367.5 c 128,-1,14
 169 345 169 345 137 345 c 128,-1,15
 105 345 105 345 82.5 367.5 c 128,-1,8
 60 390 60 390 60 422 c 128,-1,9
EndSplineSet
EndChar

StartChar: semicolon
Encoding: 59 59 30
Width: 274
GlyphClass: 2
Flags: W
LayerCount: 2
Fore
SplineSet
67 -144 m 1,0,1
 111 -93 111 -93 111 -55.5 c 128,-1,2
 111 -18 111 -18 85.5 3.5 c 128,-1,3
 60 25 60 25 60 59.5 c 128,-1,4
 60 94 60 94 82.5 116.5 c 128,-1,5
 105 139 105 139 137.5 139 c 128,-1,6
 170 139 170 139 192 114 c 128,-1,7
 214 89 214 89 214 46 c 0,8,9
 214 -66 214 -66 94 -169 c 1,10,-1
 67 -144 l 1,0,1
60 422 m 128,-1,12
 60 454 60 454 82.5 476.5 c 128,-1,13
 105 499 105 499 137 499 c 128,-1,14
 169 499 169 499 191.5 476.5 c 128,-1,15
 214 454 214 454 214 422 c 128,-1,16
 214 390 214 390 191.5 367.5 c 128,-1,17
 169 345 169 345 137 345 c 128,-1,18
 105 345 105 345 82.5 367.5 c 128,-1,11
 60 390 60 390 60 422 c 128,-1,12
EndSplineSet
EndChar

StartChar: less
Encoding: 60 60 31
Width: 560
GlyphClass: 2
Flags: W
LayerCount: 2
Fore
SplineSet
90 320 m 1,0,-1
 90 380 l 1,1,-1
 470 540 l 1,2,-1
 470 480 l 1,3,-1
 161 350 l 1,4,-1
 470 220 l 1,5,-1
 470 160 l 1,6,-1
 90 320 l 1,0,-1
EndSplineSet
EndChar

StartChar: equal
Encoding: 61 61 32
Width: 560
GlyphClass: 2
Flags: W
LayerCount: 2
Fore
SplineSet
90 220 m 1,0,-1
 90 280 l 1,1,-1
 470 280 l 1,2,-1
 470 220 l 1,3,-1
 90 220 l 1,0,-1
90 420 m 1,4,-1
 90 480 l 1,5,-1
 470 480 l 1,6,-1
 470 420 l 1,7,-1
 90 420 l 1,4,-1
EndSplineSet
EndChar

StartChar: greater
Encoding: 62 62 33
Width: 560
GlyphClass: 2
Flags: W
LayerCount: 2
Fore
SplineSet
470 380 m 1,0,-1
 470 320 l 1,1,-1
 90 160 l 1,2,-1
 90 220 l 1,3,-1
 399 350 l 1,4,-1
 90 480 l 1,5,-1
 90 540 l 1,6,-1
 470 380 l 1,0,-1
EndSplineSet
EndChar

StartChar: question
Encoding: 63 63 34
Width: 527
GlyphClass: 2
Flags: W
LayerCount: 2
Fore
SplineSet
309 411.5 m 128,-1,1
 342 460 342 460 342 519 c 128,-1,2
 342 578 342 578 307 620.5 c 128,-1,3
 272 663 272 663 206 663 c 0,4,5
 174 663 174 663 149 652 c 1,6,7
 176 645 176 645 193 623.5 c 128,-1,8
 210 602 210 602 210 572 c 128,-1,9
 210 542 210 542 186 518 c 128,-1,10
 162 494 162 494 129 494 c 128,-1,11
 96 494 96 494 73 517.5 c 128,-1,12
 50 541 50 541 50 574 c 0,13,14
 50 641 50 641 113.5 678 c 128,-1,15
 177 715 177 715 267.5 715 c 128,-1,16
 358 715 358 715 417.5 661.5 c 128,-1,17
 477 608 477 608 477 531 c 128,-1,18
 477 454 477 454 425 396.5 c 128,-1,19
 373 339 373 339 283 319 c 1,20,-1
 269 203 l 1,21,-1
 215 203 l 1,22,-1
 198 349 l 1,23,0
 276 363 276 363 309 411.5 c 128,-1,1
165 62 m 128,-1,25
 165 94 165 94 187.5 116.5 c 128,-1,26
 210 139 210 139 242 139 c 128,-1,27
 274 139 274 139 296.5 116.5 c 128,-1,28
 319 94 319 94 319 62 c 128,-1,29
 319 30 319 30 296.5 7.5 c 128,-1,30
 274 -15 274 -15 242 -15 c 128,-1,31
 210 -15 210 -15 187.5 7.5 c 128,-1,24
 165 30 165 30 165 62 c 128,-1,25
EndSplineSet
EndChar

StartChar: at
Encoding: 64 64 35
Width: 1054
GlyphClass: 2
Flags: W
LayerCount: 2
Fore
SplineSet
527 -198 m 0,0,1
 437 -198 437 -198 354 -162.5 c 128,-1,2
 271 -127 271 -127 211 -67 c 128,-1,3
 151 -7 151 -7 115.5 76 c 128,-1,4
 80 159 80 159 80 249 c 128,-1,5
 80 339 80 339 115.5 422 c 128,-1,6
 151 505 151 505 211 565 c 128,-1,7
 271 625 271 625 354 660.5 c 128,-1,8
 437 696 437 696 527 696 c 128,-1,9
 617 696 617 696 700 660.5 c 128,-1,10
 783 625 783 625 843 565 c 128,-1,11
 903 505 903 505 938.5 422 c 128,-1,12
 974 339 974 339 974 262.5 c 128,-1,13
 974 186 974 186 954.5 136 c 128,-1,14
 935 86 935 86 903 56 c 0,15,16
 838 -3 838 -3 758 -3 c 0,17,18
 707 -3 707 -3 667 22.5 c 128,-1,19
 627 48 627 48 615 93 c 1,20,-1
 605 93 l 1,21,22
 553 22 553 22 468 22 c 128,-1,23
 383 22 383 22 334.5 87.5 c 128,-1,24
 286 153 286 153 286 250 c 128,-1,25
 286 347 286 347 341.5 411.5 c 128,-1,26
 397 476 397 476 496 476 c 0,27,28
 567 476 567 476 608 430 c 1,29,-1
 632 465 l 1,30,-1
 740 465 l 1,31,-1
 740 143 l 2,32,33
 740 102 740 102 756.5 80 c 128,-1,34
 773 58 773 58 803 58 c 0,35,36
 847 58 847 58 885 108.5 c 128,-1,37
 923 159 923 159 923 249 c 0,38,39
 923 412 923 412 806.5 528.5 c 128,-1,40
 690 645 690 645 527 645 c 128,-1,41
 364 645 364 645 247.5 528.5 c 128,-1,42
 131 412 131 412 131 249 c 128,-1,43
 131 86 131 86 247.5 -30.5 c 128,-1,44
 364 -147 364 -147 527 -147 c 0,45,46
 635 -147 635 -147 728 -92 c 1,47,-1
 751 -136 l 1,48,49
 646 -198 646 -198 527 -198 c 0,0,1
429 250 m 128,-1,51
 429 174 429 174 450.5 129 c 128,-1,52
 472 84 472 84 516 84 c 0,53,54
 541 84 541 84 563.5 99 c 128,-1,55
 586 114 586 114 597 139 c 1,56,-1
 597 368 l 1,57,58
 586 390 586 390 563 402.5 c 128,-1,59
 540 415 540 415 516 415 c 0,60,61
 472 415 472 415 450.5 370.5 c 128,-1,50
 429 326 429 326 429 250 c 128,-1,51
EndSplineSet
EndChar

StartChar: A
Encoding: 65 65 36
Width: 656
GlyphClass: 2
Flags: W
LayerCount: 2
Fore
SplineSet
169 660 m 1,0,-1
 169 700 l 1,1,-1
 407 700 l 1,2,-1
 606 40 l 1,3,-1
 656 40 l 1,4,-1
 656 0 l 1,5,-1
 398 0 l 1,6,-1
 398 40 l 1,7,-1
 456 40 l 1,8,-1
 419 163 l 1,9,-1
 147 163 l 1,10,-1
 111 40 l 1,11,-1
 169 40 l 1,12,-1
 169 0 l 1,13,-1
 0 0 l 1,14,-1
 0 40 l 1,15,-1
 50 40 l 1,16,-1
 237 660 l 1,17,-1
 169 660 l 1,0,-1
282 617 m 1,18,-1
 161 208 l 1,19,-1
 405 208 l 1,20,-1
 282 617 l 1,18,-1
EndSplineSet
EndChar

StartChar: B
Encoding: 66 66 37
Width: 708
GlyphClass: 2
Flags: W
LayerCount: 2
Fore
SplineSet
70 660 m 1,0,-1
 70 700 l 1,1,-1
 310 700 l 2,2,3
 623 700 623 700 623 510 c 0,4,5
 623 378 623 378 468 338 c 1,6,-1
 468 331 l 1,7,8
 653 303 653 303 653 179 c 0,9,10
 653 89 653 89 571 44.5 c 128,-1,11
 489 0 489 0 340 0 c 2,12,-1
 70 0 l 1,13,-1
 70 40 l 1,14,-1
 130 40 l 1,15,-1
 130 660 l 1,16,-1
 70 660 l 1,0,-1
330 313 m 2,17,-1
 280 313 l 1,18,-1
 280 40 l 1,19,-1
 330 40 l 2,20,21
 402 40 402 40 450 76 c 128,-1,22
 498 112 498 112 498 176.5 c 128,-1,23
 498 241 498 241 450 277 c 128,-1,24
 402 313 402 313 330 313 c 2,17,-1
309 660 m 2,25,-1
 280 660 l 1,26,-1
 280 351 l 1,27,-1
 309 351 l 2,28,29
 380 351 380 351 426.5 393 c 128,-1,30
 473 435 473 435 473 508 c 128,-1,31
 473 581 473 581 426.5 620.5 c 128,-1,32
 380 660 380 660 309 660 c 2,25,-1
EndSplineSet
EndChar

StartChar: C
Encoding: 67 67 38
Width: 650
GlyphClass: 2
Flags: W
LayerCount: 2
Fore
SplineSet
382 668 m 0,0,1
 295 668 295 668 250 578.5 c 128,-1,2
 205 489 205 489 205 355 c 128,-1,3
 205 221 205 221 252.5 136 c 128,-1,4
 300 51 300 51 389 51 c 0,5,6
 439 51 439 51 481 72 c 128,-1,7
 523 93 523 93 544.5 116 c 128,-1,8
 566 139 566 139 590 174 c 1,9,-1
 625 149 l 1,10,11
 577 72 577 72 517.5 28.5 c 128,-1,12
 458 -15 458 -15 365 -15 c 0,13,14
 226 -15 226 -15 138 90 c 128,-1,15
 50 195 50 195 50 351 c 128,-1,16
 50 507 50 507 138 611 c 128,-1,17
 226 715 226 715 382 715 c 0,18,19
 463 715 463 715 538 683 c 128,-1,20
 613 651 613 651 613 607 c 0,21,22
 613 590 613 590 602 568 c 2,23,-1
 542 452 l 1,24,-1
 506 463 l 1,25,-1
 515 525 l 2,26,27
 519 549 519 549 519 571 c 0,28,29
 519 610 519 610 481 639 c 128,-1,30
 443 668 443 668 382 668 c 0,0,1
EndSplineSet
EndChar

StartChar: D
Encoding: 68 68 39
Width: 782
GlyphClass: 2
Flags: W
LayerCount: 2
Fore
SplineSet
70 700 m 1,0,-1
 340 700 l 2,1,2
 520 700 520 700 631 602.5 c 128,-1,3
 742 505 742 505 742 350.5 c 128,-1,4
 742 196 742 196 631 98 c 128,-1,5
 520 0 520 0 340 0 c 2,6,-1
 70 0 l 1,7,-1
 70 40 l 1,8,-1
 150 40 l 1,9,-1
 150 660 l 1,10,-1
 70 660 l 1,11,-1
 70 700 l 1,0,-1
340 660 m 2,12,-1
 300 660 l 1,13,-1
 300 40 l 1,14,-1
 340 40 l 2,15,16
 456 40 456 40 521.5 123.5 c 128,-1,17
 587 207 587 207 587 350 c 128,-1,18
 587 493 587 493 521.5 576.5 c 128,-1,19
 456 660 456 660 340 660 c 2,12,-1
EndSplineSet
EndChar

StartChar: E
Encoding: 69 69 40
Width: 630
GlyphClass: 2
Flags: W
LayerCount: 2
Fore
SplineSet
519 0 m 2,0,-1
 70 0 l 1,1,-1
 70 40 l 1,2,-1
 130 40 l 1,3,-1
 130 660 l 1,4,-1
 70 660 l 1,5,-1
 70 700 l 1,6,-1
 499 700 l 2,7,8
 521 700 521 700 531.5 698.5 c 128,-1,9
 542 697 542 697 551 687.5 c 128,-1,10
 560 678 560 678 560 658 c 1,11,-1
 533 490 l 1,12,-1
 494 490 l 1,13,-1
 474 589 l 2,14,15
 465 634 465 634 440.5 647 c 128,-1,16
 416 660 416 660 350 660 c 2,17,-1
 280 660 l 1,18,-1
 280 318 l 1,19,-1
 510 318 l 1,20,-1
 510 273 l 1,21,-1
 280 273 l 1,22,-1
 280 40 l 1,23,-1
 370 40 l 2,24,25
 435 40 435 40 459.5 53 c 128,-1,26
 484 66 484 66 494 111 c 2,27,-1
 514 200 l 1,28,-1
 553 200 l 1,29,-1
 580 42 l 1,30,31
 580 22 580 22 571 12.5 c 128,-1,32
 562 3 562 3 551.5 1.5 c 128,-1,33
 541 0 541 0 519 0 c 2,0,-1
EndSplineSet
EndChar

StartChar: F
Encoding: 70 70 41
Width: 570
GlyphClass: 2
Flags: W
LayerCount: 2
Fore
SplineSet
350 660 m 2,0,-1
 280 660 l 1,1,-1
 280 318 l 1,2,-1
 490 318 l 1,3,-1
 490 273 l 1,4,-1
 280 273 l 1,5,-1
 280 40 l 1,6,-1
 390 40 l 1,7,-1
 390 0 l 1,8,-1
 70 0 l 1,9,-1
 70 40 l 1,10,-1
 130 40 l 1,11,-1
 130 660 l 1,12,-1
 70 660 l 1,13,-1
 70 700 l 1,14,-1
 499 700 l 2,15,16
 521 700 521 700 531.5 698.5 c 128,-1,17
 542 697 542 697 551 687.5 c 128,-1,18
 560 678 560 678 560 658 c 1,19,-1
 533 490 l 1,20,-1
 494 490 l 1,21,-1
 474 589 l 2,22,23
 465 634 465 634 440.5 647 c 128,-1,24
 416 660 416 660 350 660 c 2,0,-1
EndSplineSet
EndChar

StartChar: G
Encoding: 71 71 42
Width: 700
GlyphClass: 2
Flags: W
LayerCount: 2
Fore
SplineSet
350 273 m 1,0,-1
 350 318 l 1,1,-1
 635 318 l 1,2,-1
 635 -22 l 2,3,4
 635 -132 635 -132 569 -184.5 c 128,-1,5
 503 -237 503 -237 391 -237 c 0,6,7
 325 -237 325 -237 264.5 -203.5 c 128,-1,8
 204 -170 204 -170 204 -112 c 0,9,10
 204 -101 204 -101 211 -80 c 1,11,-1
 245 8 l 1,12,13
 157 47 157 47 103.5 140 c 128,-1,14
 50 233 50 233 50 349 c 0,15,16
 50 507 50 507 140.5 611 c 128,-1,17
 231 715 231 715 392 715 c 0,18,19
 473 715 473 715 548 683 c 128,-1,20
 623 651 623 651 623 607 c 0,21,22
 623 590 623 590 612 568 c 1,23,-1
 556 476 l 1,24,-1
 520 488 l 1,25,-1
 525 525 l 2,26,27
 529 549 529 549 529 571 c 0,28,29
 529 610 529 610 491 639 c 128,-1,30
 453 668 453 668 392 668 c 0,31,32
 300 668 300 668 252.5 578.5 c 128,-1,33
 205 489 205 489 205 354.5 c 128,-1,34
 205 220 205 220 256.5 135.5 c 128,-1,35
 308 51 308 51 407 51 c 0,36,37
 447 51 447 51 485 67 c 1,38,-1
 485 273 l 1,39,-1
 350 273 l 1,0,-1
355 -15 m 0,40,41
 320 -15 320 -15 288 -6 c 1,42,-1
 288 -37 l 2,43,44
 288 -151 288 -151 336 -178 c 0,45,46
 358 -190 358 -190 396.5 -190 c 128,-1,47
 435 -190 435 -190 460 -162.5 c 128,-1,48
 485 -135 485 -135 485 -80 c 2,49,-1
 485 11 l 1,50,51
 425 -15 425 -15 355 -15 c 0,40,41
EndSplineSet
EndChar

StartChar: H
Encoding: 72 72 43
Width: 810
GlyphClass: 2
Flags: W
LayerCount: 2
Fore
SplineSet
680 660 m 1,0,-1
 680 40 l 1,1,-1
 740 40 l 1,2,-1
 740 0 l 1,3,-1
 470 0 l 1,4,-1
 470 40 l 1,5,-1
 530 40 l 1,6,-1
 530 273 l 1,7,-1
 280 273 l 1,8,-1
 280 40 l 1,9,-1
 340 40 l 1,10,-1
 340 0 l 1,11,-1
 70 0 l 1,12,-1
 70 40 l 1,13,-1
 130 40 l 1,14,-1
 130 660 l 1,15,-1
 70 660 l 1,16,-1
 70 700 l 1,17,-1
 340 700 l 1,18,-1
 340 660 l 1,19,-1
 280 660 l 1,20,-1
 280 318 l 1,21,-1
 530 318 l 1,22,-1
 530 660 l 1,23,-1
 470 660 l 1,24,-1
 470 700 l 1,25,-1
 740 700 l 1,26,-1
 740 660 l 1,27,-1
 680 660 l 1,0,-1
EndSplineSet
EndChar

StartChar: I
Encoding: 73 73 44
Width: 410
GlyphClass: 2
Flags: W
LayerCount: 2
Fore
SplineSet
60 660 m 1,0,-1
 60 700 l 1,1,-1
 350 700 l 1,2,-1
 350 660 l 1,3,-1
 280 660 l 1,4,-1
 280 40 l 1,5,-1
 350 40 l 1,6,-1
 350 0 l 1,7,-1
 60 0 l 1,8,-1
 60 40 l 1,9,-1
 130 40 l 1,10,-1
 130 660 l 1,11,-1
 60 660 l 1,0,-1
EndSplineSet
EndChar

StartChar: J
Encoding: 74 74 45
Width: 535
GlyphClass: 2
Flags: W
LayerCount: 2
Fore
SplineSet
415 660 m 1,0,-1
 415 190 l 2,1,2
 415 85 415 85 351.5 35 c 128,-1,3
 288 -15 288 -15 181 -15 c 0,4,5
 120 -15 120 -15 65 17 c 128,-1,6
 10 49 10 49 10 93 c 0,7,8
 10 110 10 110 21 132 c 2,9,-1
 81 248 l 1,10,-1
 117 237 l 1,11,-1
 108 175 l 1,12,13
 104 140 104 140 104 109 c 128,-1,14
 104 78 104 78 125.5 55 c 128,-1,15
 147 32 147 32 183.5 32 c 128,-1,16
 220 32 220 32 242.5 57 c 128,-1,17
 265 82 265 82 265 132 c 2,18,-1
 265 660 l 1,19,-1
 170 660 l 1,20,-1
 170 700 l 1,21,-1
 475 700 l 1,22,-1
 475 660 l 1,23,-1
 415 660 l 1,0,-1
EndSplineSet
EndChar

StartChar: K
Encoding: 75 75 46
Width: 685
GlyphClass: 2
Flags: W
LayerCount: 2
Fore
SplineSet
70 660 m 1,0,-1
 70 700 l 1,1,-1
 340 700 l 1,2,-1
 340 660 l 1,3,-1
 280 660 l 1,4,-1
 280 355 l 1,5,-1
 493 700 l 1,6,-1
 652 700 l 1,7,-1
 652 660 l 1,8,-1
 597 660 l 1,9,-1
 307 335 l 1,10,-1
 372 335 l 2,11,12
 500 335 500 335 529 238 c 2,13,-1
 571 98 l 2,14,15
 578 73 578 73 589 63 c 128,-1,16
 600 53 600 53 626 53 c 128,-1,17
 652 53 652 53 687 82 c 1,18,-1
 705 58 l 1,19,20
 625 -15 625 -15 535 -15 c 0,21,22
 489 -15 489 -15 461 1 c 128,-1,23
 433 17 433 17 421 57 c 2,24,-1
 362 251 l 2,25,26
 354 279 354 279 337 290 c 128,-1,27
 320 301 320 301 280 303 c 1,28,-1
 280 40 l 1,29,-1
 340 40 l 1,30,-1
 340 0 l 1,31,-1
 70 0 l 1,32,-1
 70 40 l 1,33,-1
 130 40 l 1,34,-1
 130 660 l 1,35,-1
 70 660 l 1,0,-1
EndSplineSet
EndChar

StartChar: L
Encoding: 76 76 47
Width: 570
GlyphClass: 2
Flags: W
LayerCount: 2
Fore
SplineSet
70 660 m 1,0,-1
 70 700 l 1,1,-1
 340 700 l 1,2,-1
 340 660 l 1,3,-1
 280 660 l 1,4,-1
 280 40 l 1,5,-1
 350 40 l 2,6,7
 416 40 416 40 440.5 53 c 128,-1,8
 465 66 465 66 474 111 c 2,9,-1
 494 210 l 1,10,-1
 533 210 l 1,11,-1
 560 42 l 1,12,13
 560 22 560 22 551 12.5 c 128,-1,14
 542 3 542 3 531.5 1.5 c 128,-1,15
 521 0 521 0 499 0 c 2,16,-1
 70 0 l 1,17,-1
 70 40 l 1,18,-1
 130 40 l 1,19,-1
 130 660 l 1,20,-1
 70 660 l 1,0,-1
EndSplineSet
EndChar

StartChar: M
Encoding: 77 77 48
Width: 908
GlyphClass: 2
Flags: W
LayerCount: 2
Fore
SplineSet
48 660 m 1,0,-1
 48 700 l 1,1,-1
 269 700 l 1,2,-1
 451 101 l 1,3,-1
 623 700 l 1,4,-1
 850 700 l 1,5,-1
 850 660 l 1,6,-1
 782 660 l 1,7,-1
 818 40 l 1,8,-1
 878 40 l 1,9,-1
 878 0 l 1,10,-1
 610 0 l 1,11,-1
 610 40 l 1,12,-1
 667 40 l 1,13,-1
 636 535 l 1,14,-1
 482 0 l 1,15,-1
 331 0 l 1,16,-1
 168 534 l 1,17,-1
 140 40 l 1,18,-1
 198 40 l 1,19,-1
 198 0 l 1,20,-1
 20 0 l 1,21,-1
 20 40 l 1,22,-1
 80 40 l 1,23,-1
 115 660 l 1,24,-1
 48 660 l 1,0,-1
EndSplineSet
EndChar

StartChar: N
Encoding: 78 78 49
Width: 770
GlyphClass: 2
Flags: W
LayerCount: 2
Fore
SplineSet
60 0 m 1,0,-1
 60 40 l 1,1,-1
 120 40 l 1,2,-1
 120 660 l 1,3,-1
 60 660 l 1,4,-1
 60 700 l 1,5,-1
 294 700 l 1,6,-1
 580 137 l 1,7,-1
 580 660 l 1,8,-1
 520 660 l 1,9,-1
 520 700 l 1,10,-1
 710 700 l 1,11,-1
 710 660 l 1,12,-1
 650 660 l 1,13,-1
 650 0 l 1,14,-1
 491 0 l 1,15,-1
 190 592 l 1,16,-1
 190 40 l 1,17,-1
 250 40 l 1,18,-1
 250 0 l 1,19,-1
 60 0 l 1,0,-1
EndSplineSet
EndChar

StartChar: O
Encoding: 79 79 50
Width: 768
GlyphClass: 2
Flags: W
LayerCount: 2
Fore
SplineSet
136.5 611.5 m 128,-1,1
 223 715 223 715 383.5 715 c 128,-1,2
 544 715 544 715 631 612 c 128,-1,3
 718 509 718 509 718 349.5 c 128,-1,4
 718 190 718 190 631 87.5 c 128,-1,5
 544 -15 544 -15 383.5 -15 c 128,-1,6
 223 -15 223 -15 136.5 87.5 c 128,-1,7
 50 190 50 190 50 349 c 128,-1,0
 50 508 50 508 136.5 611.5 c 128,-1,1
384 668 m 0,8,9
 325 668 325 668 284 622 c 0,10,11
 205 536 205 536 205 349 c 0,12,13
 205 163 205 163 284 78 c 0,14,15
 326 32 326 32 384 32 c 0,16,17
 470 32 470 32 516.5 124 c 128,-1,18
 563 216 563 216 563 349.5 c 128,-1,19
 563 483 563 483 516.5 575.5 c 128,-1,20
 470 668 470 668 384 668 c 0,8,9
EndSplineSet
EndChar

StartChar: P
Encoding: 80 80 51
Width: 658
GlyphClass: 2
Flags: W
LayerCount: 2
Fore
SplineSet
70 660 m 1,0,-1
 70 700 l 1,1,-1
 290 700 l 2,2,3
 536 700 536 700 598 582 c 0,4,5
 623 536 623 536 623 470 c 128,-1,6
 623 404 623 404 598.5 358 c 128,-1,7
 574 312 574 312 527 287 c 0,8,9
 439 240 439 240 290 240 c 2,10,-1
 280 240 l 1,11,-1
 280 40 l 1,12,-1
 360 40 l 1,13,-1
 360 0 l 1,14,-1
 70 0 l 1,15,-1
 70 40 l 1,16,-1
 130 40 l 1,17,-1
 130 660 l 1,18,-1
 70 660 l 1,0,-1
290 660 m 2,19,-1
 280 660 l 1,20,-1
 280 280 l 1,21,-1
 290 280 l 2,22,23
 369 280 369 280 421 330 c 128,-1,24
 473 380 473 380 473 470 c 128,-1,25
 473 560 473 560 421 610 c 128,-1,26
 369 660 369 660 290 660 c 2,19,-1
EndSplineSet
EndChar

StartChar: Q
Encoding: 81 81 52
Width: 768
GlyphClass: 2
Flags: W
LayerCount: 2
Fore
SplineSet
136.5 611.5 m 128,-1,1
 223 715 223 715 383.5 715 c 128,-1,2
 544 715 544 715 631 612 c 128,-1,3
 718 509 718 509 718 349 c 0,4,5
 718 219 718 219 658.5 124.5 c 128,-1,6
 599 30 599 30 488 -1 c 1,7,-1
 501 -71 l 2,8,9
 511 -129 511 -129 561 -129 c 0,10,11
 588 -129 588 -129 631 -90 c 1,12,-1
 658 -114 l 1,13,14
 635 -140 635 -140 618 -155 c 128,-1,15
 601 -170 601 -170 572.5 -183.5 c 128,-1,16
 544 -197 544 -197 514 -197 c 0,17,18
 392 -197 392 -197 365 -50 c 1,19,-1
 358 -14 l 1,20,21
 210 -5 210 -5 130 96 c 128,-1,22
 50 197 50 197 50 352.5 c 128,-1,0
 50 508 50 508 136.5 611.5 c 128,-1,1
384 668 m 0,23,24
 325 668 325 668 284 622 c 0,25,26
 205 536 205 536 205 349 c 0,27,28
 205 275 205 275 218 216 c 1,29,30
 272 261 272 261 333 261 c 0,31,32
 440 261 440 261 467 114 c 2,33,-1
 475 69 l 1,34,35
 518 109 518 109 540.5 184 c 128,-1,36
 563 259 563 259 563 349 c 0,37,38
 563 483 563 483 516.5 575.5 c 128,-1,39
 470 668 470 668 384 668 c 0,23,24
274 193 m 128,-1,41
 253 193 253 193 229 175 c 1,42,43
 267 59 267 59 349 36 c 1,44,-1
 331 135 l 2,45,46
 327 162 327 162 311 177.5 c 128,-1,40
 295 193 295 193 274 193 c 128,-1,41
EndSplineSet
EndChar

StartChar: R
Encoding: 82 82 53
Width: 695
GlyphClass: 2
Flags: W
LayerCount: 2
Fore
SplineSet
70 660 m 1,0,-1
 70 700 l 1,1,-1
 290 700 l 2,2,3
 533 700 533 700 598 588 c 0,4,5
 623 544 623 544 623 481 c 0,6,7
 623 335 623 335 457 285 c 1,8,9
 520 264 520 264 541 198 c 1,10,-1
 571 98 l 2,11,12
 578 73 578 73 589 63 c 128,-1,13
 600 53 600 53 626 53 c 128,-1,14
 652 53 652 53 687 82 c 1,15,-1
 705 58 l 1,16,17
 625 -15 625 -15 535 -15 c 0,18,19
 489 -15 489 -15 461 1 c 128,-1,20
 433 17 433 17 421 57 c 2,21,-1
 374 211 l 2,22,23
 365 240 365 240 346 251 c 128,-1,24
 327 262 327 262 280 263 c 1,25,-1
 280 40 l 1,26,-1
 360 40 l 1,27,-1
 360 0 l 1,28,-1
 70 0 l 1,29,-1
 70 40 l 1,30,-1
 130 40 l 1,31,-1
 130 660 l 1,32,-1
 70 660 l 1,0,-1
290 660 m 2,33,-1
 280 660 l 1,34,-1
 280 303 l 1,35,-1
 290 303 l 2,36,37
 369 303 369 303 421 349.5 c 128,-1,38
 473 396 473 396 473 481 c 128,-1,39
 473 566 473 566 421 613 c 128,-1,40
 369 660 369 660 290 660 c 2,33,-1
EndSplineSet
EndChar

StartChar: S
Encoding: 83 83 54
Width: 570
GlyphClass: 2
Flags: W
LayerCount: 2
Fore
SplineSet
139 129 m 2,0,1
 139 90 139 90 177 61 c 128,-1,2
 215 32 215 32 275 32 c 128,-1,3
 335 32 335 32 370 61 c 128,-1,4
 405 90 405 90 405 138 c 0,5,6
 405 199 405 199 332 239 c 2,7,-1
 184 318 l 2,8,9
 56 387 56 387 56 515 c 0,10,11
 56 597 56 597 116 656 c 128,-1,12
 176 715 176 715 295 715 c 0,13,14
 375 715 375 715 447 683 c 128,-1,15
 519 651 519 651 519 607 c 0,16,17
 519 590 519 590 508 568 c 2,18,-1
 460 476 l 1,19,-1
 425 487 l 1,20,-1
 425 571 l 2,21,22
 425 616 425 616 385.5 642 c 128,-1,23
 346 668 346 668 291.5 668 c 128,-1,24
 237 668 237 668 208 636 c 128,-1,25
 179 604 179 604 179 563 c 0,26,27
 179 481 179 481 253 442 c 2,28,-1
 380 375 l 2,29,30
 525 299 525 299 525 175 c 0,31,32
 525 81 525 81 454.5 33 c 128,-1,33
 384 -15 384 -15 276 -15 c 0,34,35
 195 -15 195 -15 120 17 c 128,-1,36
 45 49 45 49 45 93 c 0,37,38
 45 110 45 110 56 132 c 2,39,-1
 104 224 l 1,40,-1
 139 213 l 1,41,-1
 139 129 l 2,0,1
EndSplineSet
EndChar

StartChar: T
Encoding: 84 84 55
Width: 620
GlyphClass: 2
Flags: W
LayerCount: 2
Fore
SplineSet
395 660 m 2,0,-1
 385 660 l 1,1,-1
 385 40 l 1,2,-1
 485 40 l 1,3,-1
 485 0 l 1,4,-1
 135 0 l 1,5,-1
 135 40 l 1,6,-1
 235 40 l 1,7,-1
 235 660 l 1,8,-1
 225 660 l 2,9,10
 159 660 159 660 134.5 647 c 128,-1,11
 110 634 110 634 101 589 c 2,12,-1
 81 490 l 1,13,-1
 42 490 l 1,14,-1
 15 658 l 1,15,16
 15 678 15 678 24 687.5 c 128,-1,17
 33 697 33 697 43.5 698.5 c 128,-1,18
 54 700 54 700 76 700 c 2,19,-1
 544 700 l 2,20,21
 566 700 566 700 576.5 698.5 c 128,-1,22
 587 697 587 697 596 687.5 c 128,-1,23
 605 678 605 678 605 658 c 1,24,-1
 578 490 l 1,25,-1
 539 490 l 1,26,-1
 519 589 l 2,27,28
 510 634 510 634 485.5 647 c 128,-1,29
 461 660 461 660 395 660 c 2,0,-1
EndSplineSet
EndChar

StartChar: U
Encoding: 85 85 56
Width: 700
GlyphClass: 2
Flags: W
LayerCount: 2
Fore
SplineSet
485 660 m 1,0,-1
 485 700 l 1,1,-1
 675 700 l 1,2,-1
 675 660 l 1,3,-1
 615 660 l 1,4,-1
 615 241 l 2,5,6
 615 169 615 169 593.5 117 c 128,-1,7
 572 65 572 65 534 37 c 0,8,9
 463 -15 463 -15 357 -15 c 256,10,11
 251 -15 251 -15 178 38 c 1,12,13
 139 65 139 65 117 117 c 128,-1,14
 95 169 95 169 95 242 c 2,15,-1
 95 660 l 1,16,-1
 35 660 l 1,17,-1
 35 700 l 1,18,-1
 305 700 l 1,19,-1
 305 660 l 1,20,-1
 245 660 l 1,21,-1
 245 210 l 2,22,23
 245 132 245 132 287 90 c 128,-1,24
 329 48 329 48 390.5 48 c 128,-1,25
 452 48 452 48 498.5 90.5 c 128,-1,26
 545 133 545 133 545 210 c 2,27,-1
 545 660 l 1,28,-1
 485 660 l 1,0,-1
EndSplineSet
EndChar

StartChar: V
Encoding: 86 86 57
Width: 685
GlyphClass: 2
Flags: W
LayerCount: 2
Fore
SplineSet
25 660 m 1,0,-1
 25 700 l 1,1,-1
 236 700 l 1,2,-1
 271 165 l 2,3,4
 278 63 278 63 364 63 c 0,5,6
 428 63 428 63 475 111 c 0,7,8
 567 205 567 205 567 390 c 0,9,10
 567 493 567 493 531 573 c 0,11,12
 513 613 513 613 484 625.5 c 128,-1,13
 455 638 455 638 407 638 c 2,14,-1
 369 638 l 1,15,-1
 363 675 l 1,16,-1
 467 710 l 2,17,18
 484 715 484 715 497 715 c 128,-1,19
 510 715 510 715 519 711 c 0,20,21
 555 696 555 696 590 619.5 c 128,-1,22
 625 543 625 543 625 414 c 0,23,24
 625 248 625 248 554 121 c 0,25,26
 520 59 520 59 461.5 22 c 128,-1,27
 403 -15 403 -15 328 -15 c 0,28,29
 218 -15 218 -15 170.5 44 c 128,-1,30
 123 103 123 103 115 225 c 2,31,-1
 87 660 l 1,32,-1
 25 660 l 1,0,-1
EndSplineSet
EndChar

StartChar: W
Encoding: 87 87 58
Width: 1057
GlyphClass: 2
Flags: W
LayerCount: 2
Fore
SplineSet
25 660 m 1,0,-1
 25 700 l 1,1,-1
 236 700 l 1,2,-1
 271 165 l 2,3,4
 278 63 278 63 364 63 c 0,5,6
 457 63 457 63 512 173 c 1,7,8
 509 189 509 189 507 225 c 2,9,-1
 479 660 l 1,10,-1
 417 660 l 1,11,-1
 417 700 l 1,12,-1
 628 700 l 1,13,-1
 663 165 l 2,14,15
 670 63 670 63 756 63 c 0,16,17
 813 63 813 63 856 111 c 0,18,19
 939 205 939 205 939 390 c 0,20,21
 939 493 939 493 903 573 c 0,22,23
 885 613 885 613 856 625.5 c 128,-1,24
 827 638 827 638 779 638 c 2,25,-1
 741 638 l 1,26,-1
 735 675 l 1,27,-1
 839 710 l 2,28,29
 856 715 856 715 869 715 c 128,-1,30
 882 715 882 715 891 711 c 0,31,32
 927 696 927 696 962 619.5 c 128,-1,33
 997 543 997 543 997 414 c 0,34,35
 997 246 997 246 932 121 c 0,36,37
 899 59 899 59 844.5 22 c 128,-1,38
 790 -15 790 -15 720 -15 c 0,39,40
 575 -15 575 -15 531 97 c 1,41,42
 455 -15 455 -15 328 -15 c 0,43,44
 218 -15 218 -15 170.5 44 c 128,-1,45
 123 103 123 103 115 225 c 2,46,-1
 87 660 l 1,47,-1
 25 660 l 1,0,-1
EndSplineSet
EndChar

StartChar: X
Encoding: 88 88 59
Width: 696
GlyphClass: 2
Flags: W
LayerCount: 2
Fore
SplineSet
35 0 m 1,0,-1
 35 40 l 1,1,-1
 85 40 l 1,2,-1
 275 321 l 1,3,-1
 98 660 l 1,4,-1
 45 660 l 1,5,-1
 45 700 l 1,6,-1
 244 700 l 1,7,-1
 376 448 l 1,8,-1
 493 700 l 1,9,-1
 647 700 l 1,10,-1
 647 660 l 1,11,-1
 597 660 l 1,12,-1
 410 383 l 1,13,-1
 560 98 l 2,14,15
 573 72 573 72 585.5 62.5 c 128,-1,16
 598 53 598 53 616 53 c 0,17,18
 650 53 650 53 679 82 c 1,19,-1
 701 58 l 1,20,21
 639 -15 639 -15 546 -15 c 0,22,23
 499 -15 499 -15 467 0.5 c 128,-1,24
 435 16 435 16 414 57 c 2,25,-1
 308 258 l 1,26,-1
 189 0 l 1,27,-1
 35 0 l 1,0,-1
EndSplineSet
EndChar

StartChar: Y
Encoding: 89 89 60
Width: 607
GlyphClass: 2
Flags: W
LayerCount: 2
Fore
SplineSet
135 0 m 1,0,-1
 135 40 l 1,1,-1
 235 40 l 1,2,-1
 235 250 l 1,3,-1
 53 660 l 1,4,-1
 5 660 l 1,5,-1
 5 700 l 1,6,-1
 203 700 l 1,7,-1
 361 308 l 1,8,-1
 451 700 l 1,9,-1
 602 700 l 1,10,-1
 602 660 l 1,11,-1
 555 660 l 1,12,-1
 385 250 l 1,13,-1
 385 40 l 1,14,-1
 485 40 l 1,15,-1
 485 0 l 1,16,-1
 135 0 l 1,0,-1
EndSplineSet
EndChar

StartChar: Z
Encoding: 90 90 61
Width: 590
GlyphClass: 2
Flags: W
LayerCount: 2
Fore
SplineSet
499 0 m 2,0,-1
 30 0 l 1,1,-1
 30 40 l 1,2,-1
 393 660 l 1,3,-1
 260 660 l 2,4,5
 194 660 194 660 169.5 647 c 128,-1,6
 145 634 145 634 136 589 c 2,7,-1
 116 490 l 1,8,-1
 77 490 l 1,9,-1
 50 658 l 1,10,11
 50 678 50 678 59 687.5 c 128,-1,12
 68 697 68 697 78.5 698.5 c 128,-1,13
 89 700 89 700 111 700 c 2,14,-1
 555 700 l 1,15,-1
 555 660 l 1,16,-1
 199 40 l 1,17,-1
 350 40 l 2,18,19
 415 40 415 40 439.5 53 c 128,-1,20
 464 66 464 66 474 111 c 2,21,-1
 494 200 l 1,22,-1
 533 200 l 1,23,-1
 560 42 l 1,24,25
 560 22 560 22 551 12.5 c 128,-1,26
 542 3 542 3 531.5 1.5 c 128,-1,27
 521 0 521 0 499 0 c 2,0,-1
EndSplineSet
EndChar

StartChar: bracketleft
Encoding: 91 91 62
Width: 434
GlyphClass: 2
Flags: W
LayerCount: 2
Fore
SplineSet
275 604 m 2,0,-1
 275 96 l 2,1,2
 275 43 275 43 304 21.5 c 128,-1,3
 333 0 333 0 398 0 c 1,4,-1
 404 -23 l 1,5,6
 342 -50 342 -50 276.5 -50 c 128,-1,7
 211 -50 211 -50 170.5 -18.5 c 128,-1,8
 130 13 130 13 130 74 c 2,9,-1
 130 626 l 2,10,11
 130 687 130 687 170.5 718.5 c 128,-1,12
 211 750 211 750 276.5 750 c 128,-1,13
 342 750 342 750 404 723 c 1,14,-1
 398 700 l 1,15,16
 333 700 333 700 304 678.5 c 128,-1,17
 275 657 275 657 275 604 c 2,0,-1
EndSplineSet
EndChar

StartChar: backslash
Encoding: 92 92 63
Width: 410
GlyphClass: 2
Flags: W
LayerCount: 2
Fore
SplineSet
290 0 m 1,0,-1
 30 700 l 1,1,-1
 120 700 l 1,2,-1
 380 0 l 1,3,-1
 290 0 l 1,0,-1
EndSplineSet
EndChar

StartChar: bracketright
Encoding: 93 93 64
Width: 434
GlyphClass: 2
Flags: W
LayerCount: 2
Fore
SplineSet
159 96 m 2,0,-1
 159 604 l 2,1,2
 159 657 159 657 130 678.5 c 128,-1,3
 101 700 101 700 36 700 c 1,4,-1
 30 723 l 1,5,6
 92 750 92 750 157.5 750 c 128,-1,7
 223 750 223 750 263.5 718.5 c 128,-1,8
 304 687 304 687 304 626 c 2,9,-1
 304 74 l 2,10,11
 304 13 304 13 263.5 -18.5 c 128,-1,12
 223 -50 223 -50 157.5 -50 c 128,-1,13
 92 -50 92 -50 30 -23 c 1,14,-1
 36 0 l 1,15,16
 101 0 101 0 130 21.5 c 128,-1,17
 159 43 159 43 159 96 c 2,0,-1
EndSplineSet
EndChar

StartChar: asciicircum
Encoding: 94 94 65
Width: 560
GlyphClass: 2
Flags: W
LayerCount: 2
Fore
SplineSet
245 700 m 1,0,-1
 315 700 l 1,1,-1
 465 440 l 1,2,-1
 400 440 l 1,3,-1
 280 649 l 1,4,-1
 160 440 l 1,5,-1
 95 440 l 1,6,-1
 245 700 l 1,0,-1
EndSplineSet
EndChar

StartChar: underscore
Encoding: 95 95 66
Width: 594
GlyphClass: 2
Flags: W
LayerCount: 2
Fore
SplineSet
75 -60 m 1,0,-1
 75 0 l 1,1,-1
 519 0 l 1,2,-1
 519 -60 l 1,3,-1
 75 -60 l 1,0,-1
EndSplineSet
EndChar

StartChar: grave
Encoding: 96 96 67
Width: 371
GlyphClass: 2
Flags: W
LayerCount: 2
Fore
SplineSet
43.5 750.5 m 128,-1,1
 60 765 60 765 79.5 765 c 128,-1,2
 99 765 99 765 112.5 758 c 128,-1,3
 126 751 126 751 134.5 742.5 c 128,-1,4
 143 734 143 734 160 715 c 2,5,-1
 279 583 l 1,6,-1
 258 559 l 1,7,-1
 110 632 l 2,8,9
 63 655 63 655 45 672.5 c 128,-1,10
 27 690 27 690 27 713 c 128,-1,0
 27 736 27 736 43.5 750.5 c 128,-1,1
EndSplineSet
EndChar

StartChar: a
Encoding: 97 97 68
Width: 710
GlyphClass: 2
Flags: W
LayerCount: 2
Fore
SplineSet
597 500 m 1,0,-1
 597 111 l 2,1,2
 597 84 597 84 610 68.5 c 128,-1,3
 623 53 623 53 650 53 c 128,-1,4
 677 53 677 53 712 82 c 1,5,-1
 730 58 l 1,6,7
 650 -15 650 -15 570 -15 c 0,8,9
 475 -15 475 -15 453 74 c 1,10,11
 401 -15 401 -15 300 -15 c 0,12,13
 185 -15 185 -15 125 59.5 c 128,-1,14
 65 134 65 134 65 249.5 c 128,-1,15
 65 365 65 365 129.5 440 c 128,-1,16
 194 515 194 515 310 515 c 0,17,18
 399 515 399 515 447 444 c 1,19,-1
 447 500 l 1,20,-1
 597 500 l 1,0,-1
220 250 m 128,-1,22
 220 154 220 154 248 98 c 128,-1,23
 276 42 276 42 333.5 42 c 128,-1,24
 391 42 391 42 421.5 98.5 c 128,-1,25
 452 155 452 155 452 250 c 128,-1,26
 452 345 452 345 421.5 401.5 c 128,-1,27
 391 458 391 458 333.5 458 c 128,-1,28
 276 458 276 458 248 402 c 128,-1,21
 220 346 220 346 220 250 c 128,-1,22
EndSplineSet
EndChar

StartChar: b
Encoding: 98 98 69
Width: 708
GlyphClass: 2
Flags: W
LayerCount: 2
Fore
SplineSet
261 704 m 2,0,-1
 261 436 l 1,1,2
 314 515 314 515 408 515 c 0,3,4
 523 515 523 515 583 440.5 c 128,-1,5
 643 366 643 366 643 250.5 c 128,-1,6
 643 135 643 135 578.5 60 c 128,-1,7
 514 -15 514 -15 398 -15 c 0,8,9
 309 -15 309 -15 261 56 c 1,10,-1
 261 0 l 1,11,-1
 111 0 l 1,12,-1
 111 717 l 1,13,14
 56 703 56 703 27 668 c 1,15,-1
 0 699 l 1,16,17
 29 729 29 729 73.5 747 c 128,-1,18
 118 765 118 765 161.5 765 c 128,-1,19
 205 765 205 765 233 747.5 c 128,-1,20
 261 730 261 730 261 704 c 2,0,-1
488 250 m 128,-1,22
 488 346 488 346 460 402 c 128,-1,23
 432 458 432 458 374.5 458 c 128,-1,24
 317 458 317 458 286.5 401.5 c 128,-1,25
 256 345 256 345 256 250 c 128,-1,26
 256 155 256 155 286.5 98.5 c 128,-1,27
 317 42 317 42 374.5 42 c 128,-1,28
 432 42 432 42 460 98 c 128,-1,21
 488 154 488 154 488 250 c 128,-1,22
EndSplineSet
EndChar

StartChar: c
Encoding: 99 99 70
Width: 562
GlyphClass: 2
Flags: W
LayerCount: 2
Fore
SplineSet
331 -15 m 0,0,1
 212 -15 212 -15 138.5 61.5 c 128,-1,2
 65 138 65 138 65 250 c 128,-1,3
 65 362 65 362 138.5 438.5 c 128,-1,4
 212 515 212 515 330 515 c 0,5,6
 396 515 396 515 459 477 c 128,-1,7
 522 439 522 439 522 374 c 0,8,9
 522 341 522 341 498.5 317.5 c 128,-1,10
 475 294 475 294 442 294 c 128,-1,11
 409 294 409 294 385.5 317.5 c 128,-1,12
 362 341 362 341 362 371 c 128,-1,13
 362 401 362 401 378 422 c 128,-1,14
 394 443 394 443 420 451 c 1,15,16
 392 463 392 463 356 463 c 0,17,18
 289 463 289 463 254.5 403.5 c 128,-1,19
 220 344 220 344 220 252.5 c 128,-1,20
 220 161 220 161 254.5 104 c 128,-1,21
 289 47 289 47 356 47 c 0,22,23
 446 47 446 47 509 122 c 1,24,-1
 537 104 l 1,25,26
 504 50 504 50 450.5 17.5 c 128,-1,27
 397 -15 397 -15 331 -15 c 0,0,1
EndSplineSet
EndChar

StartChar: d
Encoding: 100 100 71
Width: 710
GlyphClass: 2
Flags: W
LayerCount: 2
Fore
SplineSet
597 704 m 2,0,-1
 597 111 l 2,1,2
 597 84 597 84 610 68.5 c 128,-1,3
 623 53 623 53 647.5 53 c 128,-1,4
 672 53 672 53 707 82 c 1,5,-1
 730 58 l 1,6,7
 650 -15 650 -15 570 -15 c 0,8,9
 475 -15 475 -15 453 74 c 1,10,11
 401 -15 401 -15 300 -15 c 0,12,13
 185 -15 185 -15 125 59.5 c 128,-1,14
 65 134 65 134 65 249.5 c 128,-1,15
 65 365 65 365 129.5 440 c 128,-1,16
 194 515 194 515 310 515 c 0,17,18
 399 515 399 515 447 444 c 1,19,-1
 447 717 l 1,20,21
 392 703 392 703 363 668 c 1,22,-1
 336 699 l 1,23,24
 365 729 365 729 409.5 747 c 128,-1,25
 454 765 454 765 497.5 765 c 128,-1,26
 541 765 541 765 569 747.5 c 128,-1,27
 597 730 597 730 597 704 c 2,0,-1
220 250 m 128,-1,29
 220 154 220 154 248 98 c 128,-1,30
 276 42 276 42 333.5 42 c 128,-1,31
 391 42 391 42 421.5 98.5 c 128,-1,32
 452 155 452 155 452 250 c 128,-1,33
 452 345 452 345 421.5 401.5 c 128,-1,34
 391 458 391 458 333.5 458 c 128,-1,35
 276 458 276 458 248 402 c 128,-1,28
 220 346 220 346 220 250 c 128,-1,29
EndSplineSet
EndChar

StartChar: e
Encoding: 101 101 72
Width: 597
GlyphClass: 2
Flags: W
LayerCount: 2
Fore
SplineSet
374.5 280.5 m 128,-1,1
 410 324 410 324 410 368.5 c 128,-1,2
 410 413 410 413 390.5 437 c 128,-1,3
 371 461 371 461 331.5 461 c 128,-1,4
 292 461 292 461 256 405 c 128,-1,5
 220 349 220 349 220 255 c 128,-1,6
 220 161 220 161 254 104 c 128,-1,7
 288 47 288 47 351 47 c 0,8,9
 447 47 447 47 514 122 c 1,10,-1
 542 104 l 1,11,12
 508 50 508 50 452 17.5 c 128,-1,13
 396 -15 396 -15 326 -15 c 0,14,15
 207 -15 207 -15 136 63.5 c 128,-1,16
 65 142 65 142 65 253 c 128,-1,17
 65 364 65 364 140.5 439.5 c 128,-1,18
 216 515 216 515 350 515 c 0,19,20
 438 515 438 515 488 474 c 128,-1,21
 538 433 538 433 538 370 c 128,-1,22
 538 307 538 307 482.5 253.5 c 128,-1,23
 427 200 427 200 336 200 c 0,24,25
 305 200 305 200 276 207 c 1,26,-1
 274 231 l 1,27,0
 339 237 339 237 374.5 280.5 c 128,-1,1
EndSplineSet
EndChar

StartChar: f
Encoding: 102 102 73
Width: 424
GlyphClass: 2
Flags: W
LayerCount: 2
Fore
SplineSet
39 445 m 1,0,-1
 39 486 l 1,1,-1
 121 486 l 1,2,-1
 121 587 l 2,3,4
 121 666 121 666 166 715.5 c 128,-1,5
 211 765 211 765 311 765 c 0,6,7
 360 765 360 765 404.5 747 c 128,-1,8
 449 729 449 729 478 699 c 1,9,-1
 451 668 l 1,10,11
 408 705 408 705 355 705 c 0,12,13
 271 705 271 705 271 595 c 2,14,-1
 271 486 l 1,15,-1
 384 486 l 1,16,-1
 384 445 l 1,17,-1
 271 445 l 1,18,-1
 271 -132 l 1,19,-1
 121 -132 l 1,20,-1
 121 445 l 1,21,-1
 39 445 l 1,0,-1
EndSplineSet
EndChar

StartChar: g
Encoding: 103 103 74
Width: 620
GlyphClass: 2
Flags: W
LayerCount: 2
Fore
SplineSet
419 -132 m 2,0,-1
 234 -132 l 2,1,2
 87 -132 87 -132 87 -9 c 0,3,4
 87 58 87 58 161 142 c 1,5,6
 80 201 80 201 80 305 c 0,7,8
 80 394 80 394 145 454.5 c 128,-1,9
 210 515 210 515 315 515 c 0,10,11
 391 515 391 515 450 480 c 1,12,13
 493 519 493 519 509 582 c 1,14,-1
 548 572 l 1,15,16
 530 502 530 502 482 456 c 1,17,18
 550 394 550 394 550 305 c 128,-1,19
 550 216 550 216 485 155.5 c 128,-1,20
 420 95 420 95 315 95 c 0,21,22
 243 95 243 95 190 124 c 1,23,24
 155 75 155 75 155 50 c 0,25,26
 155 0 155 0 213 0 c 2,27,-1
 398 0 l 2,28,29
 545 0 545 0 545 -108 c 0,30,31
 545 -185 545 -185 472 -265 c 1,32,-1
 448 -242 l 1,33,34
 477 -207 477 -207 477 -182.5 c 128,-1,35
 477 -158 477 -158 461.5 -145 c 128,-1,36
 446 -132 446 -132 419 -132 c 2,0,-1
235 305 m 128,-1,38
 235 231 235 231 255.5 184 c 128,-1,39
 276 137 276 137 316 137 c 128,-1,40
 356 137 356 137 376.5 184 c 128,-1,41
 397 231 397 231 397 305 c 128,-1,42
 397 379 397 379 376.5 426 c 128,-1,43
 356 473 356 473 316 473 c 128,-1,44
 276 473 276 473 255.5 426 c 128,-1,37
 235 379 235 379 235 305 c 128,-1,38
EndSplineSet
EndChar

StartChar: h
Encoding: 104 104 75
Width: 694
GlyphClass: 2
Flags: W
LayerCount: 2
Fore
SplineSet
261 704 m 2,0,-1
 261 447 l 1,1,2
 296 485 296 485 336.5 500 c 128,-1,3
 377 515 377 515 439.5 515 c 128,-1,4
 502 515 502 515 541.5 475.5 c 128,-1,5
 581 436 581 436 581 368 c 2,6,-1
 581 111 l 2,7,8
 581 84 581 84 594 68.5 c 128,-1,9
 607 53 607 53 634 53 c 128,-1,10
 661 53 661 53 696 82 c 1,11,-1
 714 58 l 1,12,13
 634 -15 634 -15 554 -15 c 0,14,15
 431 -15 431 -15 431 132 c 2,16,-1
 431 389 l 2,17,18
 431 420 431 420 412 437 c 128,-1,19
 393 454 393 454 359 454 c 128,-1,20
 325 454 325 454 293 426 c 128,-1,21
 261 398 261 398 261 353 c 2,22,-1
 261 0 l 1,23,-1
 111 0 l 1,24,-1
 111 717 l 1,25,26
 56 703 56 703 27 668 c 1,27,-1
 0 699 l 1,28,29
 29 729 29 729 73.5 747 c 128,-1,30
 118 765 118 765 161.5 765 c 128,-1,31
 205 765 205 765 233 747.5 c 128,-1,32
 261 730 261 730 261 704 c 2,0,-1
EndSplineSet
EndChar

StartChar: i
Encoding: 105 105 76
Width: 399
GlyphClass: 2
Flags: W
LayerCount: 2
Fore
SplineSet
131 670 m 128,-1,1
 131 703 131 703 154.5 726.5 c 128,-1,2
 178 750 178 750 211 750 c 128,-1,3
 244 750 244 750 267.5 726.5 c 128,-1,4
 291 703 291 703 291 670 c 128,-1,5
 291 637 291 637 267.5 613.5 c 128,-1,6
 244 590 244 590 211 590 c 128,-1,7
 178 590 178 590 154.5 613.5 c 128,-1,0
 131 637 131 637 131 670 c 128,-1,1
192 515 m 0,8,9
 286 515 286 515 286 434 c 2,10,-1
 286 111 l 2,11,12
 286 84 286 84 299 68.5 c 128,-1,13
 312 53 312 53 339 53 c 128,-1,14
 366 53 366 53 401 82 c 1,15,-1
 419 58 l 1,16,17
 339 -15 339 -15 259 -15 c 0,18,19
 136 -15 136 -15 136 132 c 2,20,-1
 136 467 l 1,21,22
 81 453 81 453 52 418 c 1,23,-1
 25 449 l 1,24,25
 54 479 54 479 98.5 497 c 128,-1,26
 143 515 143 515 192 515 c 0,8,9
EndSplineSet
EndChar

StartChar: j
Encoding: 106 106 77
Width: 383
GlyphClass: 2
Flags: W
LayerCount: 2
Fore
SplineSet
290 454 m 2,0,-1
 290 -87 l 2,1,2
 290 -166 290 -166 245 -215.5 c 128,-1,3
 200 -265 200 -265 100 -265 c 0,4,5
 51 -265 51 -265 6.5 -247 c 128,-1,6
 -38 -229 -38 -229 -67 -199 c 1,7,-1
 -45 -168 l 1,8,9
 -2 -205 -2 -205 56 -205 c 0,10,11
 140 -205 140 -205 140 -95 c 2,12,-1
 140 467 l 1,13,14
 85 453 85 453 56 418 c 1,15,-1
 29 449 l 1,16,17
 58 479 58 479 102.5 497 c 128,-1,18
 147 515 147 515 190.5 515 c 128,-1,19
 234 515 234 515 262 497.5 c 128,-1,20
 290 480 290 480 290 454 c 2,0,-1
135 670 m 128,-1,22
 135 703 135 703 158.5 726.5 c 128,-1,23
 182 750 182 750 215 750 c 128,-1,24
 248 750 248 750 271.5 726.5 c 128,-1,25
 295 703 295 703 295 670 c 128,-1,26
 295 637 295 637 271.5 613.5 c 128,-1,27
 248 590 248 590 215 590 c 128,-1,28
 182 590 182 590 158.5 613.5 c 128,-1,21
 135 637 135 637 135 670 c 128,-1,22
EndSplineSet
EndChar

StartChar: k
Encoding: 107 107 78
Width: 647
GlyphClass: 2
Flags: W
LayerCount: 2
Fore
SplineSet
261 704 m 2,0,-1
 261 445 l 1,1,2
 315 515 315 515 427 515 c 0,3,4
 491 515 491 515 531 483 c 128,-1,5
 571 451 571 451 571 402.5 c 128,-1,6
 571 354 571 354 542 316 c 128,-1,7
 513 278 513 278 463 254 c 1,8,-1
 523 98 l 2,9,10
 533 72 533 72 543 62.5 c 128,-1,11
 553 53 553 53 571 53 c 0,12,13
 604 53 604 53 639 82 c 1,14,-1
 657 58 l 1,15,16
 577 -15 577 -15 491.5 -15 c 128,-1,17
 406 -15 406 -15 378 57 c 2,18,-1
 303 249 l 1,19,20
 358 262 358 262 394.5 303 c 128,-1,21
 431 344 431 344 431 382 c 128,-1,22
 431 420 431 420 412 437 c 128,-1,23
 393 454 393 454 364 454 c 0,24,25
 316 454 316 454 288.5 415.5 c 128,-1,26
 261 377 261 377 261 310 c 2,27,-1
 261 0 l 1,28,-1
 111 0 l 1,29,-1
 111 717 l 1,30,31
 56 703 56 703 27 668 c 1,32,-1
 0 699 l 1,33,34
 29 729 29 729 73.5 747 c 128,-1,35
 118 765 118 765 161.5 765 c 128,-1,36
 205 765 205 765 233 747.5 c 128,-1,37
 261 730 261 730 261 704 c 2,0,-1
EndSplineSet
EndChar

StartChar: l
Encoding: 108 108 79
Width: 374
GlyphClass: 2
Flags: W
LayerCount: 2
Fore
SplineSet
73.5 747 m 128,-1,1
 118 765 118 765 161.5 765 c 128,-1,2
 205 765 205 765 233 747.5 c 128,-1,3
 261 730 261 730 261 704 c 2,4,-1
 261 111 l 2,5,6
 261 84 261 84 274 68.5 c 128,-1,7
 287 53 287 53 314 53 c 128,-1,8
 341 53 341 53 376 82 c 1,9,-1
 394 58 l 1,10,11
 314 -15 314 -15 234 -15 c 0,12,13
 111 -15 111 -15 111 132 c 2,14,-1
 111 717 l 1,15,16
 56 703 56 703 27 668 c 1,17,-1
 0 699 l 1,18,0
 29 729 29 729 73.5 747 c 128,-1,1
EndSplineSet
EndChar

StartChar: m
Encoding: 109 109 80
Width: 1007
GlyphClass: 2
Flags: W
LayerCount: 2
Fore
SplineSet
30 482 m 1,0,1
 73 500 73 500 122.5 500 c 128,-1,2
 172 500 172 500 204.5 488 c 128,-1,3
 237 476 237 476 272 450 c 1,4,5
 308 486 308 486 345.5 500.5 c 128,-1,6
 383 515 383 515 434 515 c 0,7,8
 536 515 536 515 570 437 c 1,9,10
 609 480 609 480 648.5 497.5 c 128,-1,11
 688 515 688 515 751.5 515 c 128,-1,12
 815 515 815 515 854.5 475.5 c 128,-1,13
 894 436 894 436 894 368 c 2,14,-1
 894 111 l 2,15,16
 894 84 894 84 907 68.5 c 128,-1,17
 920 53 920 53 947 53 c 128,-1,18
 974 53 974 53 1009 82 c 1,19,-1
 1027 58 l 1,20,21
 947 -15 947 -15 867 -15 c 0,22,23
 744 -15 744 -15 744 132 c 2,24,-1
 744 389 l 2,25,26
 744 420 744 420 726 437 c 128,-1,27
 708 454 708 454 676.5 454 c 128,-1,28
 645 454 645 454 614.5 427 c 128,-1,29
 584 400 584 400 584 357 c 2,30,-1
 584 0 l 1,31,-1
 434 0 l 1,32,-1
 434 389 l 2,33,34
 434 420 434 420 416 437 c 128,-1,35
 398 454 398 454 366.5 454 c 128,-1,36
 335 454 335 454 304.5 427 c 128,-1,37
 274 400 274 400 274 357 c 2,38,-1
 274 0 l 1,39,-1
 124 0 l 1,40,-1
 124 460 l 1,41,42
 79 460 79 460 44 445 c 1,43,-1
 30 482 l 1,0,1
EndSplineSet
EndChar

StartChar: n
Encoding: 110 110 81
Width: 707
GlyphClass: 2
Flags: W
LayerCount: 2
Fore
SplineSet
124 500 m 0,0,1
 206 500 206 500 272 450 c 1,2,3
 310 486 310 486 350 500.5 c 128,-1,4
 390 515 390 515 452.5 515 c 128,-1,5
 515 515 515 515 554.5 475.5 c 128,-1,6
 594 436 594 436 594 368 c 2,7,-1
 594 111 l 2,8,9
 594 84 594 84 607 68.5 c 128,-1,10
 620 53 620 53 647 53 c 128,-1,11
 674 53 674 53 709 82 c 1,12,-1
 727 58 l 1,13,14
 647 -15 647 -15 567 -15 c 0,15,16
 444 -15 444 -15 444 132 c 2,17,-1
 444 389 l 2,18,19
 444 420 444 420 425 437 c 128,-1,20
 406 454 406 454 372.5 454 c 128,-1,21
 339 454 339 454 306.5 427 c 128,-1,22
 274 400 274 400 274 357 c 2,23,-1
 274 0 l 1,24,-1
 124 0 l 1,25,-1
 124 460 l 1,26,27
 79 460 79 460 44 445 c 1,28,-1
 30 482 l 1,29,30
 73 500 73 500 124 500 c 0,0,1
EndSplineSet
EndChar

StartChar: o
Encoding: 111 111 82
Width: 660
GlyphClass: 2
Flags: W
LayerCount: 2
Fore
SplineSet
65 250 m 128,-1,1
 65 362 65 362 138.5 438.5 c 128,-1,2
 212 515 212 515 330 515 c 128,-1,3
 448 515 448 515 521.5 438.5 c 128,-1,4
 595 362 595 362 595 250 c 128,-1,5
 595 138 595 138 521.5 61.5 c 128,-1,6
 448 -15 448 -15 330 -15 c 128,-1,7
 212 -15 212 -15 138.5 61.5 c 128,-1,0
 65 138 65 138 65 250 c 128,-1,1
220 250 m 128,-1,9
 220 152 220 152 248 89.5 c 128,-1,10
 276 27 276 27 331 27 c 128,-1,11
 386 27 386 27 414 89.5 c 128,-1,12
 442 152 442 152 442 250 c 128,-1,13
 442 348 442 348 414 410.5 c 128,-1,14
 386 473 386 473 331 473 c 128,-1,15
 276 473 276 473 248 410.5 c 128,-1,8
 220 348 220 348 220 250 c 128,-1,9
EndSplineSet
EndChar

StartChar: p
Encoding: 112 112 83
Width: 721
GlyphClass: 2
Flags: W
LayerCount: 2
Fore
SplineSet
124 500 m 0,0,1
 216 500 216 500 283 449 c 1,2,3
 336 515 336 515 421 515 c 0,4,5
 536 515 536 515 596 440.5 c 128,-1,6
 656 366 656 366 656 250.5 c 128,-1,7
 656 135 656 135 591.5 60 c 128,-1,8
 527 -15 527 -15 411 -15 c 0,9,10
 325 -15 325 -15 274 62 c 1,11,-1
 274 -250 l 1,12,-1
 124 -250 l 1,13,-1
 124 460 l 1,14,15
 79 460 79 460 44 445 c 1,16,-1
 30 482 l 1,17,18
 73 500 73 500 124 500 c 0,0,1
501 250 m 128,-1,20
 501 346 501 346 473 402 c 128,-1,21
 445 458 445 458 387.5 458 c 128,-1,22
 330 458 330 458 299.5 401.5 c 128,-1,23
 269 345 269 345 269 250 c 128,-1,24
 269 155 269 155 299.5 98.5 c 128,-1,25
 330 42 330 42 387.5 42 c 128,-1,26
 445 42 445 42 473 98 c 128,-1,19
 501 154 501 154 501 250 c 128,-1,20
EndSplineSet
EndChar

StartChar: q
Encoding: 113 113 84
Width: 697
GlyphClass: 2
Flags: W
LayerCount: 2
Fore
SplineSet
597 -250 m 1,0,-1
 447 -250 l 1,1,-1
 447 64 l 1,2,3
 394 -15 394 -15 300 -15 c 0,4,5
 185 -15 185 -15 125 59.5 c 128,-1,6
 65 134 65 134 65 249.5 c 128,-1,7
 65 365 65 365 129.5 440 c 128,-1,8
 194 515 194 515 310 515 c 0,9,10
 399 515 399 515 447 444 c 1,11,-1
 447 500 l 1,12,-1
 597 500 l 1,13,-1
 597 -250 l 1,0,-1
220 250 m 128,-1,15
 220 154 220 154 248 98 c 128,-1,16
 276 42 276 42 333.5 42 c 128,-1,17
 391 42 391 42 421.5 98.5 c 128,-1,18
 452 155 452 155 452 250 c 128,-1,19
 452 345 452 345 421.5 401.5 c 128,-1,20
 391 458 391 458 333.5 458 c 128,-1,21
 276 458 276 458 248 402 c 128,-1,14
 220 346 220 346 220 250 c 128,-1,15
EndSplineSet
EndChar

StartChar: r
Encoding: 114 114 85
Width: 536
GlyphClass: 2
Flags: W
LayerCount: 2
Fore
SplineSet
393 515 m 0,0,1
 423 515 423 515 423 458 c 2,2,-1
 423 111 l 2,3,4
 423 84 423 84 436 68.5 c 128,-1,5
 449 53 449 53 476 53 c 128,-1,6
 503 53 503 53 538 82 c 1,7,-1
 556 58 l 1,8,9
 476 -15 476 -15 396 -15 c 0,10,11
 273 -15 273 -15 273 132 c 2,12,-1
 273 413 l 1,13,14
 226 394 226 394 159 387 c 1,15,16
 151 295 151 295 106 203 c 1,17,-1
 65 215 l 1,18,19
 93 286 93 286 95 384 c 1,20,21
 57 384 57 384 33.5 406 c 128,-1,22
 10 428 10 428 10 460.5 c 128,-1,23
 10 493 10 493 32.5 515.5 c 128,-1,24
 55 538 55 538 87.5 538 c 128,-1,25
 120 538 120 538 142 515 c 128,-1,26
 164 492 164 492 164 456 c 1,27,-1
 183 456 l 2,28,29
 262 456 262 456 351 500 c 0,30,31
 380 515 380 515 393 515 c 0,0,1
EndSplineSet
EndChar

StartChar: s
Encoding: 115 115 86
Width: 474
GlyphClass: 2
Flags: W
LayerCount: 2
Fore
SplineSet
175 418 m 1,0,1
 151 455 151 455 151 484 c 128,-1,2
 151 513 151 513 173.5 535.5 c 128,-1,3
 196 558 196 558 228 558 c 128,-1,4
 260 558 260 558 282.5 535.5 c 128,-1,5
 305 513 305 513 305 482 c 128,-1,6
 305 451 305 451 274 416 c 1,7,8
 356 356 356 356 400 298.5 c 128,-1,9
 444 241 444 241 444 165.5 c 128,-1,10
 444 90 444 90 387 37.5 c 128,-1,11
 330 -15 330 -15 225 -15 c 0,12,13
 177 -15 177 -15 128.5 6 c 128,-1,14
 80 27 80 27 55 58 c 1,15,-1
 78 82 l 1,16,17
 122 47 122 47 173 47 c 128,-1,18
 224 47 224 47 256.5 74.5 c 128,-1,19
 289 102 289 102 289 160 c 0,20,21
 289 252 289 252 221 352 c 1,22,-1
 70 163 l 1,23,-1
 45 185 l 1,24,25
 121 308 121 308 175 418 c 1,0,1
EndSplineSet
EndChar

StartChar: t
Encoding: 116 116 87
Width: 424
GlyphClass: 2
Flags: W
LayerCount: 2
Fore
SplineSet
39 445 m 1,0,-1
 39 486 l 1,1,-1
 121 486 l 1,2,-1
 121 630 l 1,3,-1
 271 630 l 1,4,-1
 271 486 l 1,5,-1
 384 486 l 1,6,-1
 384 445 l 1,7,-1
 271 445 l 1,8,-1
 271 111 l 2,9,10
 271 84 271 84 284 68.5 c 128,-1,11
 297 53 297 53 324 53 c 128,-1,12
 351 53 351 53 386 82 c 1,13,-1
 404 58 l 1,14,15
 324 -15 324 -15 244 -15 c 0,16,17
 121 -15 121 -15 121 132 c 2,18,-1
 121 445 l 1,19,-1
 39 445 l 1,0,-1
EndSplineSet
EndChar

StartChar: u
Encoding: 117 117 88
Width: 707
GlyphClass: 2
Flags: W
LayerCount: 2
Fore
SplineSet
274 454 m 2,0,-1
 274 111 l 2,1,2
 274 80 274 80 293 63 c 128,-1,3
 312 46 312 46 346 46 c 128,-1,4
 380 46 380 46 412 74 c 128,-1,5
 444 102 444 102 444 147 c 2,6,-1
 444 500 l 1,7,-1
 594 500 l 1,8,-1
 594 111 l 2,9,10
 594 84 594 84 607 68.5 c 128,-1,11
 620 53 620 53 647 53 c 128,-1,12
 674 53 674 53 709 82 c 1,13,-1
 727 58 l 1,14,15
 647 -15 647 -15 564 -15 c 128,-1,16
 481 -15 481 -15 454 59 c 1,17,18
 415 18 415 18 373.5 1.5 c 128,-1,19
 332 -15 332 -15 267.5 -15 c 128,-1,20
 203 -15 203 -15 163.5 24.5 c 128,-1,21
 124 64 124 64 124 132 c 2,22,-1
 124 467 l 1,23,24
 69 453 69 453 40 418 c 1,25,-1
 13 449 l 1,26,27
 42 479 42 479 86.5 497 c 128,-1,28
 131 515 131 515 174.5 515 c 128,-1,29
 218 515 218 515 246 497.5 c 128,-1,30
 274 480 274 480 274 454 c 2,0,-1
EndSplineSet
EndChar

StartChar: v
Encoding: 118 118 89
Width: 619
GlyphClass: 2
Flags: W
LayerCount: 2
Fore
SplineSet
368 448 m 128,-1,1
 368 480 368 480 390.5 502.5 c 128,-1,2
 413 525 413 525 447 525 c 128,-1,3
 481 525 481 525 505.5 499.5 c 128,-1,4
 530 474 530 474 540 432 c 0,5,6
 559 359 559 359 559 289 c 128,-1,7
 559 219 559 219 542 167 c 128,-1,8
 525 115 525 115 498 82.5 c 128,-1,9
 471 50 471 50 438 27 c 0,10,11
 376 -15 376 -15 315 -15 c 0,12,13
 230 -15 230 -15 180.5 27.5 c 128,-1,14
 131 70 131 70 131 152 c 2,15,-1
 131 467 l 1,16,17
 76 453 76 453 47 418 c 1,18,-1
 20 449 l 1,19,20
 49 479 49 479 93.5 497 c 128,-1,21
 138 515 138 515 181.5 515 c 128,-1,22
 225 515 225 515 253 497.5 c 128,-1,23
 281 480 281 480 281 454 c 2,24,-1
 281 121 l 2,25,26
 281 89 281 89 301 72.5 c 128,-1,27
 321 56 321 56 351 56 c 0,28,29
 414 56 414 56 460 121.5 c 128,-1,30
 506 187 506 187 506 282 c 0,31,32
 506 330 506 330 487 383 c 1,33,34
 469 371 469 371 441 371 c 128,-1,35
 413 371 413 371 390.5 393.5 c 128,-1,0
 368 416 368 416 368 448 c 128,-1,1
EndSplineSet
EndChar

StartChar: w
Encoding: 119 119 90
Width: 944
GlyphClass: 2
Flags: W
LayerCount: 2
Fore
SplineSet
606 454 m 2,0,-1
 606 121 l 2,1,2
 606 89 606 89 626 72.5 c 128,-1,3
 646 56 646 56 676 56 c 0,4,5
 739 56 739 56 785 121.5 c 128,-1,6
 831 187 831 187 831 282 c 0,7,8
 831 330 831 330 812 383 c 1,9,10
 794 371 794 371 766 371 c 128,-1,11
 738 371 738 371 715.5 393.5 c 128,-1,12
 693 416 693 416 693 448 c 128,-1,13
 693 480 693 480 715.5 502.5 c 128,-1,14
 738 525 738 525 772 525 c 128,-1,15
 806 525 806 525 830.5 499.5 c 128,-1,16
 855 474 855 474 866 432 c 0,17,18
 884 359 884 359 884 289 c 128,-1,19
 884 219 884 219 867 167 c 128,-1,20
 850 115 850 115 823 82.5 c 128,-1,21
 796 50 796 50 762 27 c 0,22,23
 701 -15 701 -15 640 -15 c 0,24,25
 521 -15 521 -15 476 63 c 1,26,27
 443 25 443 25 398 5 c 128,-1,28
 353 -15 353 -15 315 -15 c 0,29,30
 230 -15 230 -15 180.5 27.5 c 128,-1,31
 131 70 131 70 131 152 c 2,32,-1
 131 467 l 1,33,34
 76 453 76 453 47 418 c 1,35,-1
 20 449 l 1,36,37
 49 479 49 479 93.5 497 c 128,-1,38
 138 515 138 515 181.5 515 c 128,-1,39
 225 515 225 515 253 497.5 c 128,-1,40
 281 480 281 480 281 454 c 2,41,-1
 281 121 l 2,42,43
 281 89 281 89 301 72.5 c 128,-1,44
 321 56 321 56 351 56 c 0,45,46
 419 56 419 56 457 123 c 1,47,48
 456 132 456 132 456 152 c 2,49,-1
 456 467 l 1,50,51
 401 453 401 453 372 418 c 1,52,-1
 345 449 l 1,53,54
 374 479 374 479 418.5 497 c 128,-1,55
 463 515 463 515 506.5 515 c 128,-1,56
 550 515 550 515 578 497.5 c 128,-1,57
 606 480 606 480 606 454 c 2,0,-1
EndSplineSet
EndChar

StartChar: x
Encoding: 120 120 91
Width: 649
GlyphClass: 2
Flags: W
LayerCount: 2
Fore
SplineSet
53 62 m 128,-1,1
 53 94 53 94 75.5 116.5 c 128,-1,2
 98 139 98 139 127.5 139 c 128,-1,3
 157 139 157 139 177.5 122.5 c 128,-1,4
 198 106 198 106 205 81 c 1,5,6
 248 123 248 123 272 198 c 1,7,-1
 175 402 l 2,8,9
 162 428 162 428 152.5 437.5 c 128,-1,10
 143 447 143 447 126 447 c 0,11,12
 92 447 92 447 59 418 c 1,13,-1
 40 442 l 1,14,15
 117 515 117 515 201 515 c 128,-1,16
 285 515 285 515 319 443 c 2,17,-1
 362 352 l 1,18,19
 389 424 389 424 432 469.5 c 128,-1,20
 475 515 475 515 530 515 c 0,21,22
 562 515 562 515 584.5 492.5 c 128,-1,23
 607 470 607 470 607 438 c 128,-1,24
 607 406 607 406 584.5 383.5 c 128,-1,25
 562 361 562 361 532 361 c 128,-1,26
 502 361 502 361 481.5 377 c 128,-1,27
 461 393 461 393 455 419 c 1,28,29
 411 376 411 376 387 300 c 1,30,-1
 484 98 l 2,31,32
 497 72 497 72 506.5 62.5 c 128,-1,33
 516 53 516 53 533 53 c 0,34,35
 567 53 567 53 600 82 c 1,36,-1
 619 58 l 1,37,38
 542 -15 542 -15 458 -15 c 128,-1,39
 374 -15 374 -15 340 57 c 2,40,-1
 297 146 l 1,41,42
 270 74 270 74 228 29.5 c 128,-1,43
 186 -15 186 -15 133 -15 c 0,44,45
 99 -15 99 -15 76 7.5 c 128,-1,0
 53 30 53 30 53 62 c 128,-1,1
EndSplineSet
EndChar

StartChar: y
Encoding: 121 121 92
Width: 627
GlyphClass: 2
Flags: W
LayerCount: 2
Fore
SplineSet
86.5 497 m 128,-1,1
 131 515 131 515 174.5 515 c 128,-1,2
 218 515 218 515 246 497.5 c 128,-1,3
 274 480 274 480 274 454 c 2,4,-1
 274 151 l 2,5,6
 274 119 274 119 294 102.5 c 128,-1,7
 314 86 314 86 344 86 c 0,8,9
 408 86 408 86 453.5 141 c 128,-1,10
 499 196 499 196 499 282 c 0,11,12
 499 330 499 330 480 383 c 1,13,14
 462 371 462 371 434 371 c 128,-1,15
 406 371 406 371 383.5 393.5 c 128,-1,16
 361 416 361 416 361 448 c 128,-1,17
 361 480 361 480 383.5 502.5 c 128,-1,18
 406 525 406 525 440 525 c 128,-1,19
 474 525 474 525 498.5 499.5 c 128,-1,20
 523 474 523 474 534 432 c 0,21,22
 552 359 552 359 552 270.5 c 128,-1,23
 552 182 552 182 531.5 93 c 128,-1,24
 511 4 511 4 477.5 -60 c 128,-1,25
 444 -124 444 -124 402 -171 c 0,26,27
 316 -265 316 -265 227 -265 c 0,28,29
 203 -265 203 -265 187.5 -254.5 c 128,-1,30
 172 -244 172 -244 152 -216 c 2,31,-1
 100 -144 l 1,32,-1
 126 -117 l 1,33,34
 174 -125 174 -125 210 -125 c 0,35,36
 322 -125 322 -125 393 -54 c 128,-1,37
 464 17 464 17 505 177 c 1,38,39
 443 5 443 5 277 5 c 0,40,41
 213 5 213 5 168.5 48.5 c 128,-1,42
 124 92 124 92 124 172 c 2,43,-1
 124 467 l 1,44,45
 69 453 69 453 40 418 c 1,46,-1
 13 449 l 1,47,0
 42 479 42 479 86.5 497 c 128,-1,1
EndSplineSet
EndChar

StartChar: z
Encoding: 122 122 93
Width: 620
GlyphClass: 2
Flags: W
LayerCount: 2
Fore
SplineSet
489 0 m 2,0,-1
 75 0 l 1,1,-1
 75 40 l 1,2,-1
 383 460 l 1,3,-1
 300 460 l 2,4,5
 234 460 234 460 209.5 447 c 128,-1,6
 185 434 185 434 176 389 c 2,7,-1
 156 290 l 1,8,-1
 117 290 l 1,9,-1
 90 458 l 1,10,11
 90 478 90 478 99 487.5 c 128,-1,12
 108 497 108 497 118.5 498.5 c 128,-1,13
 129 500 129 500 151 500 c 2,14,-1
 545 500 l 1,15,-1
 545 460 l 1,16,-1
 244 40 l 1,17,-1
 340 40 l 2,18,19
 406 40 406 40 430.5 53 c 128,-1,20
 455 66 455 66 464 111 c 2,21,-1
 484 210 l 1,22,-1
 523 210 l 1,23,-1
 550 42 l 1,24,25
 550 22 550 22 541 12.5 c 128,-1,26
 532 3 532 3 521.5 1.5 c 128,-1,27
 511 0 511 0 489 0 c 2,0,-1
EndSplineSet
EndChar

StartChar: braceleft
Encoding: 123 123 94
Width: 432
GlyphClass: 2
Flags: W
LayerCount: 2
Fore
SplineSet
273 214 m 2,0,-1
 273 96 l 2,1,2
 273 43 273 43 302 21.5 c 128,-1,3
 331 0 331 0 396 0 c 1,4,-1
 402 -23 l 1,5,6
 340 -50 340 -50 274.5 -50 c 128,-1,7
 209 -50 209 -50 168.5 -18.5 c 128,-1,8
 128 13 128 13 128 74 c 0,9,10
 128 107 128 107 142.5 176 c 128,-1,11
 157 245 157 245 157 271 c 128,-1,12
 157 297 157 297 148 309 c 128,-1,13
 139 321 139 321 120 326 c 0,14,15
 97 332 97 332 50 334 c 1,16,-1
 50 366 l 1,17,18
 97 368 97 368 118 373 c 0,19,20
 157 384 157 384 157 419.5 c 128,-1,21
 157 455 157 455 142.5 524 c 128,-1,22
 128 593 128 593 128 626 c 0,23,24
 128 687 128 687 168.5 718.5 c 128,-1,25
 209 750 209 750 274.5 750 c 128,-1,26
 340 750 340 750 402 723 c 1,27,-1
 396 700 l 1,28,29
 331 700 331 700 302 678.5 c 128,-1,30
 273 657 273 657 273 604 c 2,31,-1
 273 486 l 2,32,33
 273 434 273 434 251 397 c 128,-1,34
 229 360 229 360 195 350 c 1,35,36
 229 340 229 340 251 303 c 128,-1,37
 273 266 273 266 273 214 c 2,0,-1
EndSplineSet
EndChar

StartChar: bar
Encoding: 124 124 95
Width: 410
GlyphClass: 2
Flags: W
LayerCount: 2
Fore
SplineSet
260 800 m 1,0,-1
 260 -100 l 1,1,-1
 150 -100 l 1,2,-1
 150 800 l 1,3,-1
 260 800 l 1,0,-1
EndSplineSet
EndChar

StartChar: braceright
Encoding: 125 125 96
Width: 432
GlyphClass: 2
Flags: W
LayerCount: 2
Fore
SplineSet
159 486 m 2,0,-1
 159 604 l 2,1,2
 159 657 159 657 130 678.5 c 128,-1,3
 101 700 101 700 36 700 c 1,4,-1
 30 723 l 1,5,6
 92 750 92 750 157.5 750 c 128,-1,7
 223 750 223 750 263.5 718.5 c 128,-1,8
 304 687 304 687 304 626 c 0,9,10
 304 593 304 593 289.5 524 c 128,-1,11
 275 455 275 455 275 429 c 128,-1,12
 275 403 275 403 284 391 c 128,-1,13
 293 379 293 379 312 374 c 0,14,15
 335 368 335 368 382 366 c 1,16,-1
 382 334 l 1,17,18
 335 332 335 332 314 327 c 0,19,20
 275 316 275 316 275 280.5 c 128,-1,21
 275 245 275 245 289.5 176 c 128,-1,22
 304 107 304 107 304 74 c 0,23,24
 304 13 304 13 263.5 -18.5 c 128,-1,25
 223 -50 223 -50 157.5 -50 c 128,-1,26
 92 -50 92 -50 30 -23 c 1,27,-1
 36 0 l 1,28,29
 101 0 101 0 130 21.5 c 128,-1,30
 159 43 159 43 159 96 c 2,31,-1
 159 214 l 2,32,33
 159 266 159 266 181 303 c 128,-1,34
 203 340 203 340 237 350 c 1,35,36
 203 360 203 360 181 397 c 128,-1,37
 159 434 159 434 159 486 c 2,0,-1
EndSplineSet
EndChar

StartChar: asciitilde
Encoding: 126 126 97
Width: 560
GlyphClass: 2
Flags: W
LayerCount: 2
Fore
SplineSet
90 380 m 1,0,1
 126 362 126 362 166 362 c 128,-1,2
 206 362 206 362 279.5 379.5 c 128,-1,3
 353 397 353 397 392.5 397 c 128,-1,4
 432 397 432 397 470 380 c 1,5,-1
 470 320 l 1,6,7
 433 339 433 339 393 339 c 128,-1,8
 353 339 353 339 279 320 c 128,-1,9
 205 301 205 301 165 301 c 128,-1,10
 125 301 125 301 90 320 c 1,11,-1
 90 380 l 1,0,1
EndSplineSet
EndChar

StartChar: exclamdown
Encoding: 161 161 99
Width: 358
GlyphClass: 2
Flags: W
LayerCount: 2
Fore
SplineSet
102 438 m 128,-1,1
 102 470 102 470 124.5 492.5 c 128,-1,2
 147 515 147 515 179 515 c 128,-1,3
 211 515 211 515 233.5 492.5 c 128,-1,4
 256 470 256 470 256 438 c 128,-1,5
 256 406 256 406 233.5 383.5 c 128,-1,6
 211 361 211 361 179 361 c 128,-1,7
 147 361 147 361 124.5 383.5 c 128,-1,0
 102 406 102 406 102 438 c 128,-1,1
249.5 -38 m 128,-1,9
 258 -107 258 -107 258 -138.5 c 128,-1,10
 258 -170 258 -170 236.5 -192.5 c 128,-1,11
 215 -215 215 -215 179 -215 c 128,-1,12
 143 -215 143 -215 121.5 -192.5 c 128,-1,13
 100 -170 100 -170 100 -138.5 c 128,-1,14
 100 -107 100 -107 108.5 -38 c 128,-1,15
 117 31 117 31 131 131.5 c 128,-1,16
 145 232 145 232 152 297 c 1,17,-1
 206 297 l 1,18,19
 213 232 213 232 227 131.5 c 128,-1,8
 241 31 241 31 249.5 -38 c 128,-1,9
EndSplineSet
EndChar

StartChar: cent
Encoding: 162 162 100
Width: 650
GlyphClass: 2
Flags: W
LayerCount: 2
Fore
SplineSet
353 85 m 1,0,-1
 353 -100 l 1,1,-1
 323 -100 l 1,2,-1
 323 86 l 1,3,4
 217 97 217 97 153 171.5 c 128,-1,5
 89 246 89 246 89 350 c 128,-1,6
 89 454 89 454 153.5 528.5 c 128,-1,7
 218 603 218 603 323 613 c 1,8,-1
 323 800 l 1,9,-1
 353 800 l 1,10,-1
 353 615 l 1,11,12
 394 615 394 615 437 600 c 128,-1,13
 480 585 480 585 513 551.5 c 128,-1,14
 546 518 546 518 546 481 c 128,-1,15
 546 444 546 444 525 423 c 128,-1,16
 504 402 504 402 474 402 c 128,-1,17
 444 402 444 402 423 423 c 128,-1,18
 402 444 402 444 402 472 c 128,-1,19
 402 500 402 500 417.5 519.5 c 128,-1,20
 433 539 433 539 458 544 c 1,21,22
 423 563 423 563 380 563 c 0,23,24
 365 563 365 563 353 560 c 1,25,-1
 353 150 l 1,26,27
 365 147 365 147 380 147 c 0,28,29
 471 147 471 147 533 222 c 1,30,-1
 561 204 l 1,31,32
 528 150 528 150 473.5 117.5 c 128,-1,33
 419 85 419 85 353 85 c 1,0,-1
244 350 m 0,34,35
 244 283 244 283 264 232.5 c 128,-1,36
 284 182 284 182 323 161 c 1,37,-1
 323 548 l 1,38,39
 244 503 244 503 244 350 c 0,34,35
EndSplineSet
EndChar

StartChar: sterling
Encoding: 163 163 101
Width: 650
GlyphClass: 2
Flags: W
LayerCount: 2
Fore
SplineSet
75 309 m 1,0,-1
 75 354 l 1,1,-1
 150 354 l 1,2,3
 147 364 147 364 132 403 c 0,4,5
 105 473 105 473 105 530 c 0,6,7
 105 608 105 608 164.5 661.5 c 128,-1,8
 224 715 224 715 320 715 c 0,9,10
 448 715 448 715 515 655 c 0,11,12
 552 622 552 622 552 574 c 0,13,14
 552 541 552 541 529 517.5 c 128,-1,15
 506 494 506 494 472 494 c 128,-1,16
 438 494 438 494 415 515.5 c 128,-1,17
 392 537 392 537 392 569 c 128,-1,18
 392 601 392 601 407.5 621.5 c 128,-1,19
 423 642 423 642 447 650 c 1,20,21
 414 663 414 663 376 663 c 0,22,23
 317 663 317 663 283.5 622.5 c 128,-1,24
 250 582 250 582 250 518 c 0,25,26
 250 487 250 487 256.5 430 c 128,-1,27
 263 373 263 373 264 354 c 1,28,-1
 455 354 l 1,29,-1
 455 309 l 1,30,-1
 265 309 l 1,31,32
 263 198 263 198 180 92 c 1,33,-1
 365 92 l 2,34,35
 428 92 428 92 458 110 c 128,-1,36
 488 128 488 128 497 174 c 2,37,-1
 504 210 l 1,38,-1
 543 210 l 1,39,-1
 570 42 l 1,40,41
 570 22 570 22 561 12.5 c 128,-1,42
 552 3 552 3 541.5 1.5 c 128,-1,43
 531 0 531 0 509 0 c 2,44,-1
 75 0 l 1,45,-1
 75 40 l 1,46,47
 166 133 166 133 166 259 c 0,48,49
 166 282 166 282 161 309 c 1,50,-1
 75 309 l 1,0,-1
EndSplineSet
EndChar

StartChar: currency
Encoding: 164 164 102
Width: 650
GlyphClass: 2
Flags: W
LayerCount: 2
Fore
SplineSet
155 228 m 1,0,1
 119 283 119 283 119 351 c 128,-1,2
 119 419 119 419 156 471 c 1,3,-1
 64 563 l 1,4,-1
 112 611 l 1,5,-1
 204 519 l 1,6,7
 256 555 256 555 324 555 c 128,-1,8
 392 555 392 555 446 519 c 1,9,-1
 538 611 l 1,10,-1
 586 563 l 1,11,-1
 494 471 l 1,12,13
 531 419 531 419 531 350 c 128,-1,14
 531 281 531 281 495 228 c 1,15,-1
 586 137 l 1,16,-1
 538 89 l 1,17,-1
 447 180 l 1,18,19
 394 143 394 143 324 143 c 128,-1,20
 254 143 254 143 203 180 c 1,21,-1
 112 89 l 1,22,-1
 64 137 l 1,23,-1
 155 228 l 1,0,1
228.5 444.5 m 128,-1,25
 191 406 191 406 191 349.5 c 128,-1,26
 191 293 191 293 228.5 254 c 128,-1,27
 266 215 266 215 325.5 215 c 128,-1,28
 385 215 385 215 422 254 c 128,-1,29
 459 293 459 293 459 349.5 c 128,-1,30
 459 406 459 406 422 444.5 c 128,-1,31
 385 483 385 483 325.5 483 c 128,-1,24
 266 483 266 483 228.5 444.5 c 128,-1,25
EndSplineSet
EndChar

StartChar: yen
Encoding: 165 165 103
Width: 650
GlyphClass: 2
Flags: W
LayerCount: 2
Fore
SplineSet
92 199 m 1,0,-1
 92 244 l 1,1,-1
 252 244 l 1,2,-1
 252 250 l 1,3,-1
 212 339 l 1,4,-1
 92 339 l 1,5,-1
 92 384 l 1,6,-1
 192 384 l 1,7,-1
 70 660 l 1,8,-1
 20 660 l 1,9,-1
 20 700 l 1,10,-1
 220 700 l 1,11,-1
 378 310 l 1,12,-1
 493 555 l 1,13,14
 464 560 464 560 444 582.5 c 128,-1,15
 424 605 424 605 424 637 c 128,-1,16
 424 669 424 669 447 692 c 128,-1,17
 470 715 470 715 503 715 c 128,-1,18
 536 715 536 715 560 691.5 c 128,-1,19
 584 668 584 668 584 642 c 128,-1,20
 584 616 584 616 558 563 c 2,21,-1
 469 384 l 1,22,-1
 562 384 l 1,23,-1
 562 339 l 1,24,-1
 447 339 l 1,25,-1
 400 244 l 1,26,-1
 562 244 l 1,27,-1
 562 199 l 1,28,-1
 402 199 l 1,29,-1
 402 40 l 1,30,-1
 502 40 l 1,31,-1
 502 0 l 1,32,-1
 152 0 l 1,33,-1
 152 40 l 1,34,-1
 252 40 l 1,35,-1
 252 199 l 1,36,-1
 92 199 l 1,0,-1
EndSplineSet
EndChar

StartChar: brokenbar
Encoding: 166 166 104
Width: 410
GlyphClass: 2
Flags: W
LayerCount: 2
Fore
SplineSet
260 800 m 1,0,-1
 260 474 l 1,1,-1
 150 474 l 1,2,-1
 150 800 l 1,3,-1
 260 800 l 1,0,-1
260 226 m 1,4,-1
 260 -100 l 1,5,-1
 150 -100 l 1,6,-1
 150 226 l 1,7,-1
 260 226 l 1,4,-1
EndSplineSet
EndChar

StartChar: section
Encoding: 167 167 105
Width: 490
GlyphClass: 2
Flags: W
LayerCount: 2
Fore
SplineSet
308 420 m 2,0,1
 440 347 440 347 440 250.5 c 128,-1,2
 440 154 440 154 355 113 c 1,3,4
 420 60 420 60 420 -21 c 0,5,6
 420 -87 420 -87 372 -132 c 128,-1,7
 324 -177 324 -177 240 -177 c 0,8,9
 120 -177 120 -177 47 -72 c 1,10,-1
 82 -46 l 1,11,12
 112 -90 112 -90 152 -112.5 c 128,-1,13
 192 -135 192 -135 235 -135 c 128,-1,14
 278 -135 278 -135 312 -107.5 c 128,-1,15
 346 -80 346 -80 346 -36 c 0,16,17
 346 24 346 24 280 59 c 2,18,-1
 172 118 l 2,19,20
 40 191 40 191 40 287.5 c 128,-1,21
 40 384 40 384 125 424 c 1,22,23
 60 476 60 476 60 559 c 0,24,25
 60 625 60 625 108 670 c 128,-1,26
 156 715 156 715 240 715 c 0,27,28
 360 715 360 715 433 610 c 1,29,-1
 398 584 l 1,30,31
 368 628 368 628 328 650.5 c 128,-1,32
 288 673 288 673 245 673 c 128,-1,33
 202 673 202 673 168 645.5 c 128,-1,34
 134 618 134 618 134 574 c 0,35,36
 134 514 134 514 200 479 c 2,37,-1
 308 420 l 2,0,1
103 371.5 m 128,-1,39
 84 348 84 348 84 317 c 128,-1,40
 84 286 84 286 111 260.5 c 128,-1,41
 138 235 138 235 193 206 c 2,42,-1
 300 149 l 2,43,44
 310 144 310 144 328 132 c 1,45,46
 357 142 357 142 376.5 166 c 128,-1,47
 396 190 396 190 396 221 c 128,-1,48
 396 252 396 252 369 277.5 c 128,-1,49
 342 303 342 303 287 332 c 2,50,-1
 151 405 l 1,51,38
 122 395 122 395 103 371.5 c 128,-1,39
EndSplineSet
EndChar

StartChar: dieresis
Encoding: 168 168 106
Width: 490
GlyphClass: 2
Flags: W
LayerCount: 2
Fore
SplineSet
54 670 m 128,-1,1
 54 702 54 702 76 724 c 128,-1,2
 98 746 98 746 130 746 c 128,-1,3
 162 746 162 746 184 724 c 128,-1,4
 206 702 206 702 206 670 c 128,-1,5
 206 638 206 638 184 616 c 128,-1,6
 162 594 162 594 130 594 c 128,-1,7
 98 594 98 594 76 616 c 128,-1,0
 54 638 54 638 54 670 c 128,-1,1
284 670 m 128,-1,9
 284 702 284 702 306 724 c 128,-1,10
 328 746 328 746 360 746 c 128,-1,11
 392 746 392 746 414 724 c 128,-1,12
 436 702 436 702 436 670 c 128,-1,13
 436 638 436 638 414 616 c 128,-1,14
 392 594 392 594 360 594 c 128,-1,15
 328 594 328 594 306 616 c 128,-1,8
 284 638 284 638 284 670 c 128,-1,9
EndSplineSet
EndChar

StartChar: copyright
Encoding: 169 169 107
Width: 812
GlyphClass: 2
Flags: W
LayerCount: 2
Fore
SplineSet
415 652 m 0,0,1
 367 652 367 652 342 601 c 128,-1,2
 317 550 317 550 317 473 c 128,-1,3
 317 396 317 396 343.5 348 c 128,-1,4
 370 300 370 300 415 300 c 128,-1,5
 460 300 460 300 487 320.5 c 128,-1,6
 514 341 514 341 537 374 c 1,7,-1
 566 353 l 1,8,9
 535 304 535 304 498.5 276.5 c 128,-1,10
 462 249 462 249 405 249 c 0,11,12
 320 249 320 249 266.5 312.5 c 128,-1,13
 213 376 213 376 213 470.5 c 128,-1,14
 213 565 213 565 266.5 628.5 c 128,-1,15
 320 692 320 692 415 692 c 0,16,17
 464 692 464 692 510.5 671 c 128,-1,18
 557 650 557 650 557 622 c 0,19,20
 557 612 557 612 550 596 c 1,21,-1
 512 523 l 1,22,-1
 483 532 l 1,23,-1
 488 576 l 2,24,25
 490 586 490 586 490 603.5 c 128,-1,26
 490 621 490 621 469 636.5 c 128,-1,27
 448 652 448 652 415 652 c 0,0,1
106 469 m 128,-1,29
 106 345 106 345 194 257 c 128,-1,30
 282 169 282 169 406 169 c 128,-1,31
 530 169 530 169 618 257 c 128,-1,32
 706 345 706 345 706 469 c 128,-1,33
 706 593 706 593 618 681 c 128,-1,34
 530 769 530 769 406 769 c 128,-1,35
 282 769 282 769 194 681 c 128,-1,28
 106 593 106 593 106 469 c 128,-1,29
68 469 m 128,-1,37
 68 608 68 608 167 707.5 c 128,-1,38
 266 807 266 807 406 807 c 128,-1,39
 546 807 546 807 645 707.5 c 128,-1,40
 744 608 744 608 744 469 c 128,-1,41
 744 330 744 330 645 230.5 c 128,-1,42
 546 131 546 131 406 131 c 128,-1,43
 266 131 266 131 167 230.5 c 128,-1,36
 68 330 68 330 68 469 c 128,-1,37
EndSplineSet
EndChar

StartChar: ordfeminine
Encoding: 170 170 108
Width: 577
GlyphClass: 2
Flags: W
LayerCount: 2
Fore
SplineSet
457 706 m 1,0,-1
 457 434 l 2,1,2
 457 400 457 400 484 400 c 0,3,4
 505 400 505 400 531 422 c 1,5,-1
 550 398 l 1,6,7
 486 341 486 341 433 341 c 0,8,9
 368 341 368 341 353 399 c 1,10,-1
 345 399 l 1,11,12
 330 373 330 373 304 357 c 128,-1,13
 278 341 278 341 248 341 c 0,14,15
 166 341 166 341 123.5 394 c 128,-1,16
 81 447 81 447 81 528 c 128,-1,17
 81 609 81 609 127 662 c 128,-1,18
 173 715 173 715 255 715 c 0,19,20
 311 715 311 715 343 678 c 1,21,-1
 363 706 l 1,22,-1
 457 706 l 1,0,-1
271 665 m 0,23,24
 200 665 200 665 200 528.5 c 128,-1,25
 200 392 200 392 271 392 c 0,26,27
 307 392 307 392 326.5 429.5 c 128,-1,28
 346 467 346 467 346 529 c 128,-1,29
 346 591 346 591 326.5 628 c 128,-1,30
 307 665 307 665 271 665 c 0,23,24
EndSplineSet
EndChar

StartChar: guillemotleft
Encoding: 171 171 109
Width: 486
GlyphClass: 2
Flags: W
LayerCount: 2
Fore
SplineSet
30 292 m 128,-1,1
 30 324 30 324 58 350 c 2,2,-1
 202 488 l 1,3,-1
 226 467 l 1,4,-1
 131 296 l 1,5,-1
 131 288 l 1,6,-1
 226 117 l 1,7,-1
 202 96 l 1,8,-1
 58 234 l 2,9,0
 30 260 30 260 30 292 c 128,-1,1
230 292 m 128,-1,11
 230 324 230 324 258 350 c 2,12,-1
 402 488 l 1,13,-1
 426 467 l 1,14,-1
 331 296 l 1,15,-1
 331 288 l 1,16,-1
 426 117 l 1,17,-1
 402 96 l 1,18,-1
 258 234 l 2,19,10
 230 260 230 260 230 292 c 128,-1,11
EndSplineSet
EndChar

StartChar: logicalnot
Encoding: 172 172 110
Width: 560
GlyphClass: 2
Flags: W
LayerCount: 2
Fore
SplineSet
90 320 m 1,0,-1
 90 380 l 1,1,-1
 470 380 l 1,2,-1
 470 167 l 1,3,-1
 416 167 l 1,4,-1
 416 320 l 1,5,-1
 90 320 l 1,0,-1
EndSplineSet
EndChar

StartChar: registered
Encoding: 174 174 111
Width: 812
GlyphClass: 2
Flags: W
LayerCount: 2
Fore
SplineSet
106 469 m 128,-1,1
 106 345 106 345 194 257 c 128,-1,2
 282 169 282 169 406 169 c 128,-1,3
 530 169 530 169 618 257 c 128,-1,4
 706 345 706 345 706 469 c 128,-1,5
 706 593 706 593 618 681 c 128,-1,6
 530 769 530 769 406 769 c 128,-1,7
 282 769 282 769 194 681 c 128,-1,0
 106 593 106 593 106 469 c 128,-1,1
237 647 m 1,8,-1
 237 683 l 1,9,-1
 373 683 l 2,10,11
 576 683 576 683 576 548 c 0,12,13
 576 466 576 466 489 431 c 1,14,15
 518 414 518 414 527 383 c 2,16,-1
 545 324 l 2,17,18
 551 301 551 301 570 301 c 0,19,20
 585 301 585 301 608 321 c 1,21,-1
 626 298 l 1,22,23
 570 249 570 249 514.5 249 c 128,-1,24
 459 249 459 249 445 295 c 2,25,-1
 416 387 l 2,26,27
 412 400 412 400 403 406 c 128,-1,28
 394 412 394 412 373 413 c 1,29,-1
 373 258 l 1,30,-1
 237 258 l 1,31,-1
 237 293 l 1,32,-1
 273 293 l 1,33,-1
 273 647 l 1,34,-1
 237 647 l 1,8,-1
373 647 m 1,35,-1
 373 449 l 1,36,37
 418 449 418 449 446.5 474.5 c 128,-1,38
 475 500 475 500 475 547.5 c 128,-1,39
 475 595 475 595 446.5 621 c 128,-1,40
 418 647 418 647 373 647 c 1,35,-1
68 469 m 128,-1,42
 68 608 68 608 167 707.5 c 128,-1,43
 266 807 266 807 406 807 c 128,-1,44
 546 807 546 807 645 707.5 c 128,-1,45
 744 608 744 608 744 469 c 128,-1,46
 744 330 744 330 645 230.5 c 128,-1,47
 546 131 546 131 406 131 c 128,-1,48
 266 131 266 131 167 230.5 c 128,-1,41
 68 330 68 330 68 469 c 128,-1,42
EndSplineSet
EndChar

StartChar: macron
Encoding: 175 175 112
Width: 490
GlyphClass: 2
Flags: W
LayerCount: 2
Fore
SplineSet
98 700 m 1,0,-1
 392 700 l 1,1,-1
 392 612 l 1,2,-1
 98 612 l 1,3,-1
 98 700 l 1,0,-1
EndSplineSet
EndChar

StartChar: degree
Encoding: 176 176 113
Width: 536
GlyphClass: 2
Flags: W
LayerCount: 2
Fore
SplineSet
81 529 m 128,-1,1
 81 608 81 608 132.5 661.5 c 128,-1,2
 184 715 184 715 268 715 c 128,-1,3
 352 715 352 715 403.5 661.5 c 128,-1,4
 455 608 455 608 455 528.5 c 128,-1,5
 455 449 455 449 403.5 395 c 128,-1,6
 352 341 352 341 268 341 c 128,-1,7
 184 341 184 341 132.5 395.5 c 128,-1,0
 81 450 81 450 81 529 c 128,-1,1
168 529 m 128,-1,9
 168 464 168 464 193 423 c 128,-1,10
 218 382 218 382 269 382 c 128,-1,11
 320 382 320 382 345 423 c 128,-1,12
 370 464 370 464 370 529 c 128,-1,13
 370 594 370 594 345 634.5 c 128,-1,14
 320 675 320 675 269 675 c 128,-1,15
 218 675 218 675 193 634.5 c 128,-1,8
 168 594 168 594 168 529 c 128,-1,9
EndSplineSet
EndChar

StartChar: plusminus
Encoding: 177 177 114
Width: 560
GlyphClass: 2
Flags: W
LayerCount: 2
Fore
SplineSet
90 320 m 1,0,-1
 90 380 l 1,1,-1
 250 380 l 1,2,-1
 250 540 l 1,3,-1
 310 540 l 1,4,-1
 310 380 l 1,5,-1
 470 380 l 1,6,-1
 470 320 l 1,7,-1
 310 320 l 1,8,-1
 310 160 l 1,9,-1
 250 160 l 1,10,-1
 250 320 l 1,11,-1
 90 320 l 1,0,-1
90 0 m 1,12,-1
 90 60 l 1,13,-1
 470 60 l 1,14,-1
 470 0 l 1,15,-1
 90 0 l 1,12,-1
EndSplineSet
EndChar

StartChar: twosuperior
Encoding: 178 178 115
Width: 440
GlyphClass: 2
Flags: W
LayerCount: 2
Fore
SplineSet
320 331 m 2,0,-1
 63 331 l 1,1,-1
 63 362 l 1,2,-1
 204 505 l 2,3,4
 263 564 263 564 263 631 c 0,5,6
 263 670 263 670 240.5 696 c 128,-1,7
 218 722 218 722 184 722 c 0,8,9
 169 722 169 722 153 718 c 1,10,11
 175 703 175 703 175 679 c 128,-1,12
 175 655 175 655 159 638.5 c 128,-1,13
 143 622 143 622 121.5 622 c 128,-1,14
 100 622 100 622 84.5 638 c 128,-1,15
 69 654 69 654 69 675 c 0,16,17
 69 716 69 716 110.5 740.5 c 128,-1,18
 152 765 152 765 214 765 c 128,-1,19
 276 765 276 765 316 731.5 c 128,-1,20
 356 698 356 698 356 650 c 0,21,22
 356 625 356 625 336 592.5 c 128,-1,23
 316 560 316 560 299 542 c 128,-1,24
 282 524 282 524 248 491 c 2,25,-1
 152 397 l 1,26,-1
 234 397 l 2,27,28
 269 397 269 397 285 406.5 c 128,-1,29
 301 416 301 416 306 440 c 2,30,-1
 312 467 l 1,31,-1
 344 467 l 1,32,-1
 361 362 l 1,33,34
 361 347 361 347 354.5 340 c 128,-1,35
 348 333 348 333 341.5 332 c 128,-1,36
 335 331 335 331 320 331 c 2,0,-1
EndSplineSet
EndChar

StartChar: threesuperior
Encoding: 179 179 116
Width: 440
GlyphClass: 2
Flags: W
LayerCount: 2
Fore
SplineSet
159 718 m 1,0,1
 181 703 181 703 181 678.5 c 128,-1,2
 181 654 181 654 165 638 c 128,-1,3
 149 622 149 622 127.5 622 c 128,-1,4
 106 622 106 622 90.5 638 c 128,-1,5
 75 654 75 654 75 675 c 0,6,7
 75 716 75 716 117.5 740.5 c 128,-1,8
 160 765 160 765 222.5 765 c 128,-1,9
 285 765 285 765 323.5 731.5 c 128,-1,10
 362 698 362 698 362 650 c 0,11,12
 362 584 362 584 290 546 c 1,13,14
 326 532 326 532 347 506 c 128,-1,15
 368 480 368 480 368 449 c 0,16,17
 368 395 368 395 323 358.5 c 128,-1,18
 278 322 278 322 214.5 322 c 128,-1,19
 151 322 151 322 110 346 c 128,-1,20
 69 370 69 370 69 412 c 0,21,22
 69 433 69 433 84.5 449 c 128,-1,23
 100 465 100 465 121.5 465 c 128,-1,24
 143 465 143 465 159 449 c 128,-1,25
 175 433 175 433 175 407 c 128,-1,26
 175 381 175 381 152 366 c 1,27,28
 164 364 164 364 172 364 c 0,29,30
 217 364 217 364 241 389.5 c 128,-1,31
 265 415 265 415 265 448 c 128,-1,32
 265 481 265 481 242.5 504.5 c 128,-1,33
 220 528 220 528 178 528 c 2,34,-1
 141 528 l 1,35,-1
 141 564 l 1,36,-1
 187 564 l 2,37,38
 228 564 228 564 249.5 589.5 c 128,-1,39
 271 615 271 615 271 647 c 128,-1,40
 271 679 271 679 250 700.5 c 128,-1,41
 229 722 229 722 190 722 c 0,42,43
 175 722 175 722 159 718 c 1,0,1
EndSplineSet
EndChar

StartChar: acute
Encoding: 180 180 117
Width: 371
GlyphClass: 2
Flags: W
LayerCount: 2
Fore
SplineSet
258.5 758 m 128,-1,1
 272 765 272 765 291.5 765 c 128,-1,2
 311 765 311 765 327.5 750.5 c 128,-1,3
 344 736 344 736 344 713 c 128,-1,4
 344 690 344 690 326 672.5 c 128,-1,5
 308 655 308 655 261 632 c 2,6,-1
 113 559 l 1,7,-1
 92 583 l 1,8,-1
 211 715 l 2,9,10
 228 734 228 734 236.5 742.5 c 128,-1,0
 245 751 245 751 258.5 758 c 128,-1,1
EndSplineSet
EndChar

StartChar: mu
Encoding: 181 181 118
Width: 707
GlyphClass: 2
Flags: W
LayerCount: 2
Fore
SplineSet
274 454 m 2,0,-1
 274 46 l 1,1,2
 444 46 444 46 444 147 c 2,3,-1
 444 500 l 1,4,-1
 594 500 l 1,5,-1
 594 111 l 2,6,7
 594 84 594 84 607 68.5 c 128,-1,8
 620 53 620 53 647 53 c 128,-1,9
 674 53 674 53 709 82 c 1,10,-1
 727 58 l 1,11,12
 647 -15 647 -15 564 -15 c 128,-1,13
 481 -15 481 -15 454 59 c 1,14,15
 416 19 416 19 375.5 2.5 c 128,-1,16
 335 -14 335 -14 274 -15 c 1,17,-1
 274 -250 l 1,18,-1
 124 -250 l 1,19,-1
 124 467 l 1,20,21
 69 453 69 453 40 418 c 1,22,-1
 13 449 l 1,23,24
 42 479 42 479 86.5 497 c 128,-1,25
 131 515 131 515 174.5 515 c 128,-1,26
 218 515 218 515 246 497.5 c 128,-1,27
 274 480 274 480 274 454 c 2,0,-1
EndSplineSet
EndChar

StartChar: paragraph
Encoding: 182 182 119
Width: 548
GlyphClass: 2
Flags: W
LayerCount: 2
Fore
SplineSet
108 0 m 1,0,-1
 108 40 l 1,1,-1
 264 40 l 1,2,-1
 264 307 l 1,3,-1
 204 307 l 2,4,5
 113 307 113 307 56.5 366 c 128,-1,6
 0 425 0 425 0 511 c 128,-1,7
 0 597 0 597 56.5 656 c 128,-1,8
 113 715 113 715 204 715 c 128,-1,9
 295 715 295 715 351.5 656 c 128,-1,10
 408 597 408 597 408 511 c 2,11,-1
 408 40 l 1,12,-1
 478 40 l 1,13,-1
 478 0 l 1,14,-1
 108 0 l 1,0,-1
EndSplineSet
EndChar

StartChar: periodcentered
Encoding: 183 183 120
Width: 274
GlyphClass: 2
Flags: W
LayerCount: 2
Fore
SplineSet
60 292 m 128,-1,1
 60 324 60 324 82.5 346.5 c 128,-1,2
 105 369 105 369 137 369 c 128,-1,3
 169 369 169 369 191.5 346.5 c 128,-1,4
 214 324 214 324 214 292 c 128,-1,5
 214 260 214 260 191.5 237.5 c 128,-1,6
 169 215 169 215 137 215 c 128,-1,7
 105 215 105 215 82.5 237.5 c 128,-1,0
 60 260 60 260 60 292 c 128,-1,1
EndSplineSet
EndChar

StartChar: cedilla
Encoding: 184 184 121
Width: 330
GlyphClass: 2
Flags: W
LayerCount: 2
Fore
SplineSet
195 -70 m 0,0,1
 242 -70 242 -70 271 -97 c 128,-1,2
 300 -124 300 -124 300 -165 c 128,-1,3
 300 -206 300 -206 265.5 -235.5 c 128,-1,4
 231 -265 231 -265 182 -265 c 128,-1,5
 133 -265 133 -265 101.5 -247 c 128,-1,6
 70 -229 70 -229 70 -196 c 0,7,8
 70 -179 70 -179 82 -167 c 128,-1,9
 94 -155 94 -155 110.5 -155 c 128,-1,10
 127 -155 127 -155 139.5 -167.5 c 128,-1,11
 152 -180 152 -180 152 -199 c 128,-1,12
 152 -218 152 -218 134 -231 c 1,13,14
 142 -233 142 -233 149 -233 c 0,15,16
 178 -233 178 -233 195.5 -215 c 128,-1,17
 213 -197 213 -197 213 -172.5 c 128,-1,18
 213 -148 213 -148 194 -129 c 128,-1,19
 175 -110 175 -110 140 -110 c 1,20,-1
 118 -93 l 1,21,-1
 162 0 l 1,22,-1
 192 0 l 1,23,-1
 154 -77 l 1,24,25
 171 -70 171 -70 195 -70 c 0,0,1
EndSplineSet
EndChar

StartChar: onesuperior
Encoding: 185 185 122
Width: 363
GlyphClass: 2
Flags: W
LayerCount: 2
Fore
SplineSet
249 756 m 1,0,-1
 249 366 l 1,1,-1
 325 366 l 1,2,-1
 325 331 l 1,3,-1
 60 331 l 1,4,-1
 60 366 l 1,5,-1
 148 366 l 1,6,-1
 148 668 l 1,7,8
 99 649 99 649 35 649 c 1,9,-1
 35 684 l 1,10,11
 91 684 91 684 139 704 c 128,-1,12
 187 724 187 724 214 756 c 1,13,-1
 249 756 l 1,0,-1
EndSplineSet
EndChar

StartChar: ordmasculine
Encoding: 186 186 123
Width: 536
GlyphClass: 2
Flags: W
LayerCount: 2
Fore
SplineSet
81 529 m 128,-1,1
 81 608 81 608 132.5 661.5 c 128,-1,2
 184 715 184 715 268 715 c 128,-1,3
 352 715 352 715 403.5 661.5 c 128,-1,4
 455 608 455 608 455 528.5 c 128,-1,5
 455 449 455 449 403.5 395 c 128,-1,6
 352 341 352 341 268 341 c 128,-1,7
 184 341 184 341 132.5 395.5 c 128,-1,0
 81 450 81 450 81 529 c 128,-1,1
199 529 m 128,-1,9
 199 464 199 464 216.5 423 c 128,-1,10
 234 382 234 382 269 382 c 128,-1,11
 304 382 304 382 321.5 423 c 128,-1,12
 339 464 339 464 339 529 c 128,-1,13
 339 594 339 594 321.5 634.5 c 128,-1,14
 304 675 304 675 269 675 c 128,-1,15
 234 675 234 675 216.5 634.5 c 128,-1,8
 199 594 199 594 199 529 c 128,-1,9
EndSplineSet
EndChar

StartChar: guillemotright
Encoding: 187 187 124
Width: 486
GlyphClass: 2
Flags: W
LayerCount: 2
Fore
SplineSet
456 292 m 128,-1,1
 456 260 456 260 428 234 c 2,2,-1
 284 96 l 1,3,-1
 260 117 l 1,4,-1
 355 288 l 1,5,-1
 355 296 l 1,6,-1
 260 467 l 1,7,-1
 284 488 l 1,8,-1
 428 350 l 2,9,0
 456 324 456 324 456 292 c 128,-1,1
256 292 m 128,-1,11
 256 260 256 260 228 234 c 2,12,-1
 84 96 l 1,13,-1
 60 117 l 1,14,-1
 155 288 l 1,15,-1
 155 296 l 1,16,-1
 60 467 l 1,17,-1
 84 488 l 1,18,-1
 228 350 l 2,19,10
 256 324 256 324 256 292 c 128,-1,11
EndSplineSet
EndChar

StartChar: onequarter
Encoding: 188 188 125
Width: 1044
GlyphClass: 2
Flags: W
LayerCount: 2
Fore
SplineSet
732 700 m 1,0,-1
 342 0 l 1,1,-1
 302 0 l 1,2,-1
 692 700 l 1,3,-1
 732 700 l 1,0,-1
284 700 m 1,4,-1
 284 310 l 1,5,-1
 360 310 l 1,6,-1
 360 275 l 1,7,-1
 95 275 l 1,8,-1
 95 310 l 1,9,-1
 183 310 l 1,10,-1
 183 612 l 1,11,12
 134 593 134 593 70 593 c 1,13,-1
 70 628 l 1,14,15
 126 628 126 628 174 648 c 128,-1,16
 222 668 222 668 249 700 c 1,17,-1
 284 700 l 1,4,-1
836 425 m 1,18,19
 836 340 836 340 792.5 262.5 c 128,-1,20
 749 185 749 185 689 135 c 1,21,-1
 809 135 l 1,22,-1
 809 252 l 1,23,24
 861 271 861 271 873 316 c 1,25,-1
 910 316 l 1,26,-1
 910 135 l 1,27,-1
 945 135 l 1,28,-1
 945 93 l 1,29,-1
 910 93 l 1,30,-1
 910 35 l 1,31,-1
 980 35 l 1,32,-1
 980 0 l 1,33,-1
 733 0 l 1,34,-1
 733 35 l 1,35,-1
 809 35 l 1,36,-1
 809 93 l 1,37,-1
 628 93 l 1,38,-1
 628 131 l 1,39,40
 717 213 717 213 724 425 c 1,41,-1
 836 425 l 1,18,19
EndSplineSet
EndChar

StartChar: onehalf
Encoding: 189 189 126
Width: 1044
GlyphClass: 2
Flags: W
LayerCount: 2
Fore
SplineSet
732 700 m 1,0,-1
 342 0 l 1,1,-1
 302 0 l 1,2,-1
 692 700 l 1,3,-1
 732 700 l 1,0,-1
284 700 m 1,4,-1
 284 310 l 1,5,-1
 360 310 l 1,6,-1
 360 275 l 1,7,-1
 95 275 l 1,8,-1
 95 310 l 1,9,-1
 183 310 l 1,10,-1
 183 612 l 1,11,12
 134 593 134 593 70 593 c 1,13,-1
 70 628 l 1,14,15
 126 628 126 628 174 648 c 128,-1,16
 222 668 222 668 249 700 c 1,17,-1
 284 700 l 1,4,-1
903 0 m 2,18,-1
 646 0 l 1,19,-1
 646 31 l 1,20,-1
 787 174 l 2,21,22
 846 233 846 233 846 300 c 0,23,24
 846 339 846 339 823.5 365 c 128,-1,25
 801 391 801 391 767 391 c 0,26,27
 752 391 752 391 736 387 c 1,28,29
 758 372 758 372 758 348 c 128,-1,30
 758 324 758 324 742 307.5 c 128,-1,31
 726 291 726 291 704.5 291 c 128,-1,32
 683 291 683 291 667.5 307 c 128,-1,33
 652 323 652 323 652 344 c 0,34,35
 652 385 652 385 693.5 409.5 c 128,-1,36
 735 434 735 434 797 434 c 128,-1,37
 859 434 859 434 899 400.5 c 128,-1,38
 939 367 939 367 939 319 c 0,39,40
 939 294 939 294 919 261.5 c 128,-1,41
 899 229 899 229 882 211 c 128,-1,42
 865 193 865 193 831 160 c 2,43,-1
 735 66 l 1,44,-1
 817 66 l 2,45,46
 852 66 852 66 868 75.5 c 128,-1,47
 884 85 884 85 889 109 c 2,48,-1
 895 136 l 1,49,-1
 927 136 l 1,50,-1
 944 31 l 1,51,52
 944 16 944 16 937.5 9 c 128,-1,53
 931 2 931 2 924.5 1 c 128,-1,54
 918 0 918 0 903 0 c 2,18,-1
EndSplineSet
EndChar

StartChar: threequarters
Encoding: 190 190 127
Width: 1044
GlyphClass: 2
Flags: W
LayerCount: 2
Fore
SplineSet
742 700 m 1,0,-1
 352 0 l 1,1,-1
 312 0 l 1,2,-1
 702 700 l 1,3,-1
 742 700 l 1,0,-1
184 662 m 1,4,5
 206 647 206 647 206 622.5 c 128,-1,6
 206 598 206 598 190 582 c 128,-1,7
 174 566 174 566 152.5 566 c 128,-1,8
 131 566 131 566 115.5 582 c 128,-1,9
 100 598 100 598 100 619 c 0,10,11
 100 660 100 660 142.5 684.5 c 128,-1,12
 185 709 185 709 247.5 709 c 128,-1,13
 310 709 310 709 348.5 675.5 c 128,-1,14
 387 642 387 642 387 594 c 0,15,16
 387 528 387 528 315 490 c 1,17,18
 351 476 351 476 372 450 c 128,-1,19
 393 424 393 424 393 393 c 0,20,21
 393 339 393 339 348 302.5 c 128,-1,22
 303 266 303 266 239.5 266 c 128,-1,23
 176 266 176 266 135 290 c 128,-1,24
 94 314 94 314 94 356 c 0,25,26
 94 377 94 377 109.5 393 c 128,-1,27
 125 409 125 409 146.5 409 c 128,-1,28
 168 409 168 409 184 393 c 128,-1,29
 200 377 200 377 200 351 c 128,-1,30
 200 325 200 325 177 310 c 1,31,32
 189 308 189 308 197 308 c 0,33,34
 242 308 242 308 266 333.5 c 128,-1,35
 290 359 290 359 290 392 c 128,-1,36
 290 425 290 425 267.5 448.5 c 128,-1,37
 245 472 245 472 203 472 c 2,38,-1
 166 472 l 1,39,-1
 166 508 l 1,40,-1
 212 508 l 2,41,42
 253 508 253 508 274.5 533.5 c 128,-1,43
 296 559 296 559 296 591 c 128,-1,44
 296 623 296 623 275 644.5 c 128,-1,45
 254 666 254 666 215 666 c 0,46,47
 200 666 200 666 184 662 c 1,4,5
836 425 m 1,48,49
 836 340 836 340 792.5 262.5 c 128,-1,50
 749 185 749 185 689 135 c 1,51,-1
 809 135 l 1,52,-1
 809 252 l 1,53,54
 861 271 861 271 873 316 c 1,55,-1
 910 316 l 1,56,-1
 910 135 l 1,57,-1
 945 135 l 1,58,-1
 945 93 l 1,59,-1
 910 93 l 1,60,-1
 910 35 l 1,61,-1
 980 35 l 1,62,-1
 980 0 l 1,63,-1
 733 0 l 1,64,-1
 733 35 l 1,65,-1
 809 35 l 1,66,-1
 809 93 l 1,67,-1
 628 93 l 1,68,-1
 628 131 l 1,69,70
 717 213 717 213 724 425 c 1,71,-1
 836 425 l 1,48,49
EndSplineSet
EndChar

StartChar: questiondown
Encoding: 191 191 128
Width: 527
GlyphClass: 2
Flags: W
LayerCount: 2
Fore
SplineSet
218 88.5 m 128,-1,1
 185 40 185 40 185 -19 c 128,-1,2
 185 -78 185 -78 220 -120.5 c 128,-1,3
 255 -163 255 -163 321 -163 c 0,4,5
 353 -163 353 -163 378 -152 c 1,6,7
 351 -145 351 -145 334 -123.5 c 128,-1,8
 317 -102 317 -102 317 -72 c 128,-1,9
 317 -42 317 -42 341 -18 c 128,-1,10
 365 6 365 6 398 6 c 128,-1,11
 431 6 431 6 454 -17.5 c 128,-1,12
 477 -41 477 -41 477 -74 c 0,13,14
 477 -141 477 -141 413.5 -178 c 128,-1,15
 350 -215 350 -215 259.5 -215 c 128,-1,16
 169 -215 169 -215 109.5 -161.5 c 128,-1,17
 50 -108 50 -108 50 -31 c 128,-1,18
 50 46 50 46 102 103.5 c 128,-1,19
 154 161 154 161 244 181 c 1,20,-1
 258 297 l 1,21,-1
 312 297 l 1,22,-1
 329 151 l 1,23,0
 251 137 251 137 218 88.5 c 128,-1,1
362 438 m 128,-1,25
 362 406 362 406 339.5 383.5 c 128,-1,26
 317 361 317 361 285 361 c 128,-1,27
 253 361 253 361 230.5 383.5 c 128,-1,28
 208 406 208 406 208 438 c 128,-1,29
 208 470 208 470 230.5 492.5 c 128,-1,30
 253 515 253 515 285 515 c 128,-1,31
 317 515 317 515 339.5 492.5 c 128,-1,24
 362 470 362 470 362 438 c 128,-1,25
EndSplineSet
EndChar

StartChar: Agrave
Encoding: 192 192 129
Width: 656
GlyphClass: 2
Flags: W
LayerCount: 2
Fore
SplineSet
169 660 m 1,0,-1
 169 700 l 1,1,-1
 407 700 l 1,2,-1
 606 40 l 1,3,-1
 656 40 l 1,4,-1
 656 0 l 1,5,-1
 398 0 l 1,6,-1
 398 40 l 1,7,-1
 456 40 l 1,8,-1
 419 163 l 1,9,-1
 147 163 l 1,10,-1
 111 40 l 1,11,-1
 169 40 l 1,12,-1
 169 0 l 1,13,-1
 0 0 l 1,14,-1
 0 40 l 1,15,-1
 50 40 l 1,16,-1
 237 660 l 1,17,-1
 169 660 l 1,0,-1
282 617 m 1,18,-1
 161 208 l 1,19,-1
 405 208 l 1,20,-1
 282 617 l 1,18,-1
198.5 950.5 m 128,-1,22
 215 965 215 965 234.5 965 c 128,-1,23
 254 965 254 965 267.5 958 c 128,-1,24
 281 951 281 951 289.5 942.5 c 128,-1,25
 298 934 298 934 315 915 c 2,26,-1
 434 783 l 1,27,-1
 413 759 l 1,28,-1
 265 832 l 2,29,30
 218 855 218 855 200 872.5 c 128,-1,31
 182 890 182 890 182 913 c 128,-1,21
 182 936 182 936 198.5 950.5 c 128,-1,22
EndSplineSet
EndChar

StartChar: Aacute
Encoding: 193 193 130
Width: 656
GlyphClass: 2
Flags: W
LayerCount: 2
Fore
SplineSet
169 660 m 1,0,-1
 169 700 l 1,1,-1
 407 700 l 1,2,-1
 606 40 l 1,3,-1
 656 40 l 1,4,-1
 656 0 l 1,5,-1
 398 0 l 1,6,-1
 398 40 l 1,7,-1
 456 40 l 1,8,-1
 419 163 l 1,9,-1
 147 163 l 1,10,-1
 111 40 l 1,11,-1
 169 40 l 1,12,-1
 169 0 l 1,13,-1
 0 0 l 1,14,-1
 0 40 l 1,15,-1
 50 40 l 1,16,-1
 237 660 l 1,17,-1
 169 660 l 1,0,-1
282 617 m 1,18,-1
 161 208 l 1,19,-1
 405 208 l 1,20,-1
 282 617 l 1,18,-1
379.5 958 m 128,-1,22
 393 965 393 965 412.5 965 c 128,-1,23
 432 965 432 965 448.5 950.5 c 128,-1,24
 465 936 465 936 465 913 c 128,-1,25
 465 890 465 890 447 872.5 c 128,-1,26
 429 855 429 855 382 832 c 2,27,-1
 234 759 l 1,28,-1
 213 783 l 1,29,-1
 332 915 l 2,30,31
 349 934 349 934 357.5 942.5 c 128,-1,21
 366 951 366 951 379.5 958 c 128,-1,22
EndSplineSet
EndChar

StartChar: Acircumflex
Encoding: 194 194 131
Width: 656
GlyphClass: 2
Flags: W
LayerCount: 2
Fore
SplineSet
169 660 m 1,0,-1
 169 700 l 1,1,-1
 407 700 l 1,2,-1
 606 40 l 1,3,-1
 656 40 l 1,4,-1
 656 0 l 1,5,-1
 398 0 l 1,6,-1
 398 40 l 1,7,-1
 456 40 l 1,8,-1
 419 163 l 1,9,-1
 147 163 l 1,10,-1
 111 40 l 1,11,-1
 169 40 l 1,12,-1
 169 0 l 1,13,-1
 0 0 l 1,14,-1
 0 40 l 1,15,-1
 50 40 l 1,16,-1
 237 660 l 1,17,-1
 169 660 l 1,0,-1
282 617 m 1,18,-1
 161 208 l 1,19,-1
 405 208 l 1,20,-1
 282 617 l 1,18,-1
308 965 m 128,-1,22
 338 965 338 965 366 927 c 2,23,-1
 474 783 l 1,24,-1
 453 759 l 1,25,-1
 312 854 l 1,26,-1
 304 854 l 1,27,-1
 163 759 l 1,28,-1
 142 783 l 1,29,-1
 250 927 l 2,30,21
 278 965 278 965 308 965 c 128,-1,22
EndSplineSet
EndChar

StartChar: Atilde
Encoding: 195 195 132
Width: 656
GlyphClass: 2
Flags: W
LayerCount: 2
Fore
SplineSet
169 660 m 1,0,-1
 169 700 l 1,1,-1
 407 700 l 1,2,-1
 606 40 l 1,3,-1
 656 40 l 1,4,-1
 656 0 l 1,5,-1
 398 0 l 1,6,-1
 398 40 l 1,7,-1
 456 40 l 1,8,-1
 419 163 l 1,9,-1
 147 163 l 1,10,-1
 111 40 l 1,11,-1
 169 40 l 1,12,-1
 169 0 l 1,13,-1
 0 0 l 1,14,-1
 0 40 l 1,15,-1
 50 40 l 1,16,-1
 237 660 l 1,17,-1
 169 660 l 1,0,-1
282 617 m 1,18,-1
 161 208 l 1,19,-1
 405 208 l 1,20,-1
 282 617 l 1,18,-1
452 809 m 1,21,-1
 452 824 l 2,22,23
 452 863 452 863 424 863 c 0,24,25
 412 863 412 863 401 856 c 2,26,-1
 316 808 l 2,27,28
 284 789 284 789 256 789 c 128,-1,29
 228 789 228 789 205.5 815 c 128,-1,30
 183 841 183 841 183 875.5 c 128,-1,31
 183 910 183 910 191 942 c 1,32,-1
 227 942 l 1,33,-1
 227 927 l 2,34,35
 227 888 227 888 255 888 c 0,36,37
 267 888 267 888 278 895 c 2,38,-1
 363 943 l 2,39,40
 395 962 395 962 423 962 c 128,-1,41
 451 962 451 962 473.5 936 c 128,-1,42
 496 910 496 910 496 875.5 c 128,-1,43
 496 841 496 841 488 809 c 1,44,-1
 452 809 l 1,21,-1
EndSplineSet
EndChar

StartChar: Adieresis
Encoding: 196 196 133
Width: 656
GlyphClass: 2
Flags: W
LayerCount: 2
Fore
SplineSet
169 660 m 1,0,-1
 169 700 l 1,1,-1
 407 700 l 1,2,-1
 606 40 l 1,3,-1
 656 40 l 1,4,-1
 656 0 l 1,5,-1
 398 0 l 1,6,-1
 398 40 l 1,7,-1
 456 40 l 1,8,-1
 419 163 l 1,9,-1
 147 163 l 1,10,-1
 111 40 l 1,11,-1
 169 40 l 1,12,-1
 169 0 l 1,13,-1
 0 0 l 1,14,-1
 0 40 l 1,15,-1
 50 40 l 1,16,-1
 237 660 l 1,17,-1
 169 660 l 1,0,-1
282 617 m 1,18,-1
 161 208 l 1,19,-1
 405 208 l 1,20,-1
 282 617 l 1,18,-1
128 870 m 128,-1,22
 128 902 128 902 150 924 c 128,-1,23
 172 946 172 946 204 946 c 128,-1,24
 236 946 236 946 258 924 c 128,-1,25
 280 902 280 902 280 870 c 128,-1,26
 280 838 280 838 258 816 c 128,-1,27
 236 794 236 794 204 794 c 128,-1,28
 172 794 172 794 150 816 c 128,-1,21
 128 838 128 838 128 870 c 128,-1,22
358 870 m 128,-1,30
 358 902 358 902 380 924 c 128,-1,31
 402 946 402 946 434 946 c 128,-1,32
 466 946 466 946 488 924 c 128,-1,33
 510 902 510 902 510 870 c 128,-1,34
 510 838 510 838 488 816 c 128,-1,35
 466 794 466 794 434 794 c 128,-1,36
 402 794 402 794 380 816 c 128,-1,29
 358 838 358 838 358 870 c 128,-1,30
EndSplineSet
EndChar

StartChar: Aring
Encoding: 197 197 134
Width: 656
GlyphClass: 2
Flags: W
LayerCount: 2
Fore
SplineSet
169 660 m 1,0,-1
 169 700 l 1,1,-1
 407 700 l 1,2,-1
 606 40 l 1,3,-1
 656 40 l 1,4,-1
 656 0 l 1,5,-1
 398 0 l 1,6,-1
 398 40 l 1,7,-1
 456 40 l 1,8,-1
 419 163 l 1,9,-1
 147 163 l 1,10,-1
 111 40 l 1,11,-1
 169 40 l 1,12,-1
 169 0 l 1,13,-1
 0 0 l 1,14,-1
 0 40 l 1,15,-1
 50 40 l 1,16,-1
 237 660 l 1,17,-1
 169 660 l 1,0,-1
282 617 m 1,18,-1
 161 208 l 1,19,-1
 405 208 l 1,20,-1
 282 617 l 1,18,-1
216 785 m 128,-1,22
 179 817 179 817 179 869.5 c 128,-1,23
 179 922 179 922 216 954.5 c 128,-1,24
 253 987 253 987 308 987 c 128,-1,25
 363 987 363 987 400 954.5 c 128,-1,26
 437 922 437 922 437 869.5 c 128,-1,27
 437 817 437 817 400 785 c 128,-1,28
 363 753 363 753 308 753 c 128,-1,21
 253 753 253 753 216 785 c 128,-1,22
263 869 m 128,-1,30
 263 786 263 786 307.5 786 c 128,-1,31
 352 786 352 786 352 869 c 128,-1,32
 352 952 352 952 307.5 952 c 128,-1,29
 263 952 263 952 263 869 c 128,-1,30
EndSplineSet
EndChar

StartChar: AE
Encoding: 198 198 135
Width: 912
GlyphClass: 2
Flags: W
LayerCount: 2
Fore
SplineSet
-20 0 m 1,0,-1
 -20 40 l 1,1,-1
 32 40 l 1,2,-1
 245 660 l 1,3,-1
 178 660 l 1,4,-1
 178 700 l 1,5,-1
 781 700 l 2,6,7
 803 700 803 700 813.5 698.5 c 128,-1,8
 824 697 824 697 833 687.5 c 128,-1,9
 842 678 842 678 842 658 c 1,10,-1
 815 490 l 1,11,-1
 776 490 l 1,12,-1
 756 589 l 2,13,14
 747 634 747 634 722.5 647 c 128,-1,15
 698 660 698 660 632 660 c 2,16,-1
 562 660 l 1,17,-1
 562 318 l 1,18,-1
 792 318 l 1,19,-1
 792 273 l 1,20,-1
 562 273 l 1,21,-1
 562 40 l 1,22,-1
 652 40 l 2,23,24
 717 40 717 40 741.5 53 c 128,-1,25
 766 66 766 66 776 111 c 2,26,-1
 796 200 l 1,27,-1
 835 200 l 1,28,-1
 862 42 l 1,29,30
 862 22 862 22 853 12.5 c 128,-1,31
 844 3 844 3 833.5 1.5 c 128,-1,32
 823 0 823 0 801 0 c 2,33,-1
 352 0 l 1,34,-1
 352 40 l 1,35,-1
 412 40 l 1,36,-1
 412 273 l 1,37,-1
 172 273 l 1,38,-1
 92 40 l 1,39,-1
 149 40 l 1,40,-1
 149 0 l 1,41,-1
 -20 0 l 1,0,-1
412 318 m 1,42,-1
 412 660 l 1,43,-1
 303 660 l 1,44,-1
 187 318 l 1,45,-1
 412 318 l 1,42,-1
EndSplineSet
EndChar

StartChar: Ccedilla
Encoding: 199 199 136
Width: 650
GlyphClass: 2
Flags: W
LayerCount: 2
Fore
SplineSet
382 668 m 0,0,1
 295 668 295 668 250 578.5 c 128,-1,2
 205 489 205 489 205 355 c 128,-1,3
 205 221 205 221 252.5 136 c 128,-1,4
 300 51 300 51 389 51 c 0,5,6
 439 51 439 51 481 72 c 128,-1,7
 523 93 523 93 544.5 116 c 128,-1,8
 566 139 566 139 590 174 c 1,9,-1
 625 149 l 1,10,11
 577 72 577 72 517.5 28.5 c 128,-1,12
 458 -15 458 -15 365 -15 c 0,13,14
 351 -15 351 -15 345 -14 c 1,15,-1
 314 -77 l 1,16,17
 331 -70 331 -70 355 -70 c 0,18,19
 402 -70 402 -70 431 -97 c 128,-1,20
 460 -124 460 -124 460 -165 c 128,-1,21
 460 -206 460 -206 425.5 -235.5 c 128,-1,22
 391 -265 391 -265 342 -265 c 128,-1,23
 293 -265 293 -265 261.5 -247 c 128,-1,24
 230 -229 230 -229 230 -196 c 0,25,26
 230 -179 230 -179 242 -167 c 128,-1,27
 254 -155 254 -155 270.5 -155 c 128,-1,28
 287 -155 287 -155 299.5 -167.5 c 128,-1,29
 312 -180 312 -180 312 -199 c 128,-1,30
 312 -218 312 -218 294 -231 c 1,31,32
 302 -233 302 -233 309 -233 c 0,33,34
 338 -233 338 -233 355.5 -215 c 128,-1,35
 373 -197 373 -197 373 -172.5 c 128,-1,36
 373 -148 373 -148 354 -129 c 128,-1,37
 335 -110 335 -110 300 -110 c 1,38,-1
 278 -93 l 1,39,-1
 316 -11 l 1,40,41
 197 8 197 8 123.5 109 c 128,-1,42
 50 210 50 210 50 358.5 c 128,-1,43
 50 507 50 507 138 611 c 128,-1,44
 226 715 226 715 382 715 c 0,45,46
 463 715 463 715 538 683 c 128,-1,47
 613 651 613 651 613 607 c 0,48,49
 613 590 613 590 602 568 c 2,50,-1
 542 452 l 1,51,-1
 506 463 l 1,52,-1
 515 525 l 2,53,54
 519 549 519 549 519 571 c 0,55,56
 519 610 519 610 481 639 c 128,-1,57
 443 668 443 668 382 668 c 0,0,1
EndSplineSet
EndChar

StartChar: Egrave
Encoding: 200 200 137
Width: 630
GlyphClass: 2
Flags: W
LayerCount: 2
Fore
SplineSet
519 0 m 2,0,-1
 70 0 l 1,1,-1
 70 40 l 1,2,-1
 130 40 l 1,3,-1
 130 660 l 1,4,-1
 70 660 l 1,5,-1
 70 700 l 1,6,-1
 499 700 l 2,7,8
 521 700 521 700 531.5 698.5 c 128,-1,9
 542 697 542 697 551 687.5 c 128,-1,10
 560 678 560 678 560 658 c 1,11,-1
 533 490 l 1,12,-1
 494 490 l 1,13,-1
 474 589 l 2,14,15
 465 634 465 634 440.5 647 c 128,-1,16
 416 660 416 660 350 660 c 2,17,-1
 280 660 l 1,18,-1
 280 318 l 1,19,-1
 510 318 l 1,20,-1
 510 273 l 1,21,-1
 280 273 l 1,22,-1
 280 40 l 1,23,-1
 370 40 l 2,24,25
 435 40 435 40 459.5 53 c 128,-1,26
 484 66 484 66 494 111 c 2,27,-1
 514 200 l 1,28,-1
 553 200 l 1,29,-1
 580 42 l 1,30,31
 580 22 580 22 571 12.5 c 128,-1,32
 562 3 562 3 551.5 1.5 c 128,-1,33
 541 0 541 0 519 0 c 2,0,-1
205.5 950.5 m 128,-1,35
 222 965 222 965 241.5 965 c 128,-1,36
 261 965 261 965 274.5 958 c 128,-1,37
 288 951 288 951 296.5 942.5 c 128,-1,38
 305 934 305 934 322 915 c 2,39,-1
 441 783 l 1,40,-1
 420 759 l 1,41,-1
 272 832 l 2,42,43
 225 855 225 855 207 872.5 c 128,-1,44
 189 890 189 890 189 913 c 128,-1,34
 189 936 189 936 205.5 950.5 c 128,-1,35
EndSplineSet
EndChar

StartChar: Eacute
Encoding: 201 201 138
Width: 630
GlyphClass: 2
Flags: W
LayerCount: 2
Fore
SplineSet
519 0 m 2,0,-1
 70 0 l 1,1,-1
 70 40 l 1,2,-1
 130 40 l 1,3,-1
 130 660 l 1,4,-1
 70 660 l 1,5,-1
 70 700 l 1,6,-1
 499 700 l 2,7,8
 521 700 521 700 531.5 698.5 c 128,-1,9
 542 697 542 697 551 687.5 c 128,-1,10
 560 678 560 678 560 658 c 1,11,-1
 533 490 l 1,12,-1
 494 490 l 1,13,-1
 474 589 l 2,14,15
 465 634 465 634 440.5 647 c 128,-1,16
 416 660 416 660 350 660 c 2,17,-1
 280 660 l 1,18,-1
 280 318 l 1,19,-1
 510 318 l 1,20,-1
 510 273 l 1,21,-1
 280 273 l 1,22,-1
 280 40 l 1,23,-1
 370 40 l 2,24,25
 435 40 435 40 459.5 53 c 128,-1,26
 484 66 484 66 494 111 c 2,27,-1
 514 200 l 1,28,-1
 553 200 l 1,29,-1
 580 42 l 1,30,31
 580 22 580 22 571 12.5 c 128,-1,32
 562 3 562 3 551.5 1.5 c 128,-1,33
 541 0 541 0 519 0 c 2,0,-1
355.5 958 m 128,-1,35
 369 965 369 965 388.5 965 c 128,-1,36
 408 965 408 965 424.5 950.5 c 128,-1,37
 441 936 441 936 441 913 c 128,-1,38
 441 890 441 890 423 872.5 c 128,-1,39
 405 855 405 855 358 832 c 2,40,-1
 210 759 l 1,41,-1
 189 783 l 1,42,-1
 308 915 l 2,43,44
 325 934 325 934 333.5 942.5 c 128,-1,34
 342 951 342 951 355.5 958 c 128,-1,35
EndSplineSet
EndChar

StartChar: Ecircumflex
Encoding: 202 202 139
Width: 630
GlyphClass: 2
Flags: W
LayerCount: 2
Fore
SplineSet
519 0 m 2,0,-1
 70 0 l 1,1,-1
 70 40 l 1,2,-1
 130 40 l 1,3,-1
 130 660 l 1,4,-1
 70 660 l 1,5,-1
 70 700 l 1,6,-1
 499 700 l 2,7,8
 521 700 521 700 531.5 698.5 c 128,-1,9
 542 697 542 697 551 687.5 c 128,-1,10
 560 678 560 678 560 658 c 1,11,-1
 533 490 l 1,12,-1
 494 490 l 1,13,-1
 474 589 l 2,14,15
 465 634 465 634 440.5 647 c 128,-1,16
 416 660 416 660 350 660 c 2,17,-1
 280 660 l 1,18,-1
 280 318 l 1,19,-1
 510 318 l 1,20,-1
 510 273 l 1,21,-1
 280 273 l 1,22,-1
 280 40 l 1,23,-1
 370 40 l 2,24,25
 435 40 435 40 459.5 53 c 128,-1,26
 484 66 484 66 494 111 c 2,27,-1
 514 200 l 1,28,-1
 553 200 l 1,29,-1
 580 42 l 1,30,31
 580 22 580 22 571 12.5 c 128,-1,32
 562 3 562 3 551.5 1.5 c 128,-1,33
 541 0 541 0 519 0 c 2,0,-1
335 965 m 128,-1,35
 365 965 365 965 393 927 c 2,36,-1
 501 783 l 1,37,-1
 480 759 l 1,38,-1
 339 854 l 1,39,-1
 331 854 l 1,40,-1
 190 759 l 1,41,-1
 169 783 l 1,42,-1
 277 927 l 2,43,34
 305 965 305 965 335 965 c 128,-1,35
EndSplineSet
EndChar

StartChar: Edieresis
Encoding: 203 203 140
Width: 630
GlyphClass: 2
Flags: W
LayerCount: 2
Fore
SplineSet
519 0 m 2,0,-1
 70 0 l 1,1,-1
 70 40 l 1,2,-1
 130 40 l 1,3,-1
 130 660 l 1,4,-1
 70 660 l 1,5,-1
 70 700 l 1,6,-1
 499 700 l 2,7,8
 521 700 521 700 531.5 698.5 c 128,-1,9
 542 697 542 697 551 687.5 c 128,-1,10
 560 678 560 678 560 658 c 1,11,-1
 533 490 l 1,12,-1
 494 490 l 1,13,-1
 474 589 l 2,14,15
 465 634 465 634 440.5 647 c 128,-1,16
 416 660 416 660 350 660 c 2,17,-1
 280 660 l 1,18,-1
 280 318 l 1,19,-1
 510 318 l 1,20,-1
 510 273 l 1,21,-1
 280 273 l 1,22,-1
 280 40 l 1,23,-1
 370 40 l 2,24,25
 435 40 435 40 459.5 53 c 128,-1,26
 484 66 484 66 494 111 c 2,27,-1
 514 200 l 1,28,-1
 553 200 l 1,29,-1
 580 42 l 1,30,31
 580 22 580 22 571 12.5 c 128,-1,32
 562 3 562 3 551.5 1.5 c 128,-1,33
 541 0 541 0 519 0 c 2,0,-1
124 870 m 128,-1,35
 124 902 124 902 146 924 c 128,-1,36
 168 946 168 946 200 946 c 128,-1,37
 232 946 232 946 254 924 c 128,-1,38
 276 902 276 902 276 870 c 128,-1,39
 276 838 276 838 254 816 c 128,-1,40
 232 794 232 794 200 794 c 128,-1,41
 168 794 168 794 146 816 c 128,-1,34
 124 838 124 838 124 870 c 128,-1,35
354 870 m 128,-1,43
 354 902 354 902 376 924 c 128,-1,44
 398 946 398 946 430 946 c 128,-1,45
 462 946 462 946 484 924 c 128,-1,46
 506 902 506 902 506 870 c 128,-1,47
 506 838 506 838 484 816 c 128,-1,48
 462 794 462 794 430 794 c 128,-1,49
 398 794 398 794 376 816 c 128,-1,42
 354 838 354 838 354 870 c 128,-1,43
EndSplineSet
EndChar

StartChar: Igrave
Encoding: 204 204 141
Width: 410
GlyphClass: 2
Flags: W
LayerCount: 2
Fore
SplineSet
60 660 m 1,0,-1
 60 700 l 1,1,-1
 350 700 l 1,2,-1
 350 660 l 1,3,-1
 280 660 l 1,4,-1
 280 40 l 1,5,-1
 350 40 l 1,6,-1
 350 0 l 1,7,-1
 60 0 l 1,8,-1
 60 40 l 1,9,-1
 130 40 l 1,10,-1
 130 660 l 1,11,-1
 60 660 l 1,0,-1
95.5 950.5 m 128,-1,13
 112 965 112 965 131.5 965 c 128,-1,14
 151 965 151 965 164.5 958 c 128,-1,15
 178 951 178 951 186.5 942.5 c 128,-1,16
 195 934 195 934 212 915 c 2,17,-1
 331 783 l 1,18,-1
 310 759 l 1,19,-1
 162 832 l 2,20,21
 115 855 115 855 97 872.5 c 128,-1,22
 79 890 79 890 79 913 c 128,-1,12
 79 936 79 936 95.5 950.5 c 128,-1,13
EndSplineSet
EndChar

StartChar: Iacute
Encoding: 205 205 142
Width: 410
GlyphClass: 2
Flags: W
LayerCount: 2
Fore
SplineSet
60 660 m 1,0,-1
 60 700 l 1,1,-1
 350 700 l 1,2,-1
 350 660 l 1,3,-1
 280 660 l 1,4,-1
 280 40 l 1,5,-1
 350 40 l 1,6,-1
 350 0 l 1,7,-1
 60 0 l 1,8,-1
 60 40 l 1,9,-1
 130 40 l 1,10,-1
 130 660 l 1,11,-1
 60 660 l 1,0,-1
265.5 958 m 128,-1,13
 279 965 279 965 298.5 965 c 128,-1,14
 318 965 318 965 334.5 950.5 c 128,-1,15
 351 936 351 936 351 913 c 128,-1,16
 351 890 351 890 333 872.5 c 128,-1,17
 315 855 315 855 268 832 c 2,18,-1
 120 759 l 1,19,-1
 99 783 l 1,20,-1
 218 915 l 2,21,22
 235 934 235 934 243.5 942.5 c 128,-1,12
 252 951 252 951 265.5 958 c 128,-1,13
EndSplineSet
EndChar

StartChar: Icircumflex
Encoding: 206 206 143
Width: 410
GlyphClass: 2
Flags: W
LayerCount: 2
Fore
SplineSet
60 660 m 1,0,-1
 60 700 l 1,1,-1
 350 700 l 1,2,-1
 350 660 l 1,3,-1
 280 660 l 1,4,-1
 280 40 l 1,5,-1
 350 40 l 1,6,-1
 350 0 l 1,7,-1
 60 0 l 1,8,-1
 60 40 l 1,9,-1
 130 40 l 1,10,-1
 130 660 l 1,11,-1
 60 660 l 1,0,-1
205 965 m 128,-1,13
 235 965 235 965 263 927 c 2,14,-1
 371 783 l 1,15,-1
 350 759 l 1,16,-1
 209 854 l 1,17,-1
 201 854 l 1,18,-1
 60 759 l 1,19,-1
 39 783 l 1,20,-1
 147 927 l 2,21,12
 175 965 175 965 205 965 c 128,-1,13
EndSplineSet
EndChar

StartChar: Idieresis
Encoding: 207 207 144
Width: 410
GlyphClass: 2
Flags: W
LayerCount: 2
Fore
SplineSet
60 660 m 1,0,-1
 60 700 l 1,1,-1
 350 700 l 1,2,-1
 350 660 l 1,3,-1
 280 660 l 1,4,-1
 280 40 l 1,5,-1
 350 40 l 1,6,-1
 350 0 l 1,7,-1
 60 0 l 1,8,-1
 60 40 l 1,9,-1
 130 40 l 1,10,-1
 130 660 l 1,11,-1
 60 660 l 1,0,-1
4 870 m 128,-1,13
 4 902 4 902 26 924 c 128,-1,14
 48 946 48 946 80 946 c 128,-1,15
 112 946 112 946 134 924 c 128,-1,16
 156 902 156 902 156 870 c 128,-1,17
 156 838 156 838 134 816 c 128,-1,18
 112 794 112 794 80 794 c 128,-1,19
 48 794 48 794 26 816 c 128,-1,12
 4 838 4 838 4 870 c 128,-1,13
234 870 m 128,-1,21
 234 902 234 902 256 924 c 128,-1,22
 278 946 278 946 310 946 c 128,-1,23
 342 946 342 946 364 924 c 128,-1,24
 386 902 386 902 386 870 c 128,-1,25
 386 838 386 838 364 816 c 128,-1,26
 342 794 342 794 310 794 c 128,-1,27
 278 794 278 794 256 816 c 128,-1,20
 234 838 234 838 234 870 c 128,-1,21
EndSplineSet
EndChar

StartChar: Eth
Encoding: 208 208 145
Width: 782
GlyphClass: 2
Flags: W
LayerCount: 2
Fore
SplineSet
70 273 m 1,0,-1
 70 318 l 1,1,-1
 150 318 l 1,2,-1
 150 660 l 1,3,-1
 70 660 l 1,4,-1
 70 700 l 1,5,-1
 340 700 l 2,6,7
 520 700 520 700 631 602.5 c 128,-1,8
 742 505 742 505 742 350.5 c 128,-1,9
 742 196 742 196 631 98 c 128,-1,10
 520 0 520 0 340 0 c 2,11,-1
 70 0 l 1,12,-1
 70 40 l 1,13,-1
 150 40 l 1,14,-1
 150 273 l 1,15,-1
 70 273 l 1,0,-1
340 660 m 2,16,-1
 300 660 l 1,17,-1
 300 318 l 1,18,-1
 450 318 l 1,19,-1
 450 273 l 1,20,-1
 300 273 l 1,21,-1
 300 40 l 1,22,-1
 340 40 l 2,23,24
 456 40 456 40 521.5 123.5 c 128,-1,25
 587 207 587 207 587 350 c 128,-1,26
 587 493 587 493 521.5 576.5 c 128,-1,27
 456 660 456 660 340 660 c 2,16,-1
EndSplineSet
EndChar

StartChar: Ntilde
Encoding: 209 209 146
Width: 770
GlyphClass: 2
Flags: W
LayerCount: 2
Fore
SplineSet
60 0 m 1,0,-1
 60 40 l 1,1,-1
 120 40 l 1,2,-1
 120 660 l 1,3,-1
 60 660 l 1,4,-1
 60 700 l 1,5,-1
 294 700 l 1,6,-1
 580 137 l 1,7,-1
 580 660 l 1,8,-1
 520 660 l 1,9,-1
 520 700 l 1,10,-1
 710 700 l 1,11,-1
 710 660 l 1,12,-1
 650 660 l 1,13,-1
 650 0 l 1,14,-1
 491 0 l 1,15,-1
 190 592 l 1,16,-1
 190 40 l 1,17,-1
 250 40 l 1,18,-1
 250 0 l 1,19,-1
 60 0 l 1,0,-1
510 809 m 1,20,-1
 510 824 l 2,21,22
 510 863 510 863 482 863 c 0,23,24
 470 863 470 863 459 856 c 2,25,-1
 374 808 l 2,26,27
 342 789 342 789 314 789 c 128,-1,28
 286 789 286 789 263.5 815 c 128,-1,29
 241 841 241 841 241 875.5 c 128,-1,30
 241 910 241 910 249 942 c 1,31,-1
 285 942 l 1,32,-1
 285 927 l 2,33,34
 285 888 285 888 313 888 c 0,35,36
 325 888 325 888 336 895 c 2,37,-1
 421 943 l 2,38,39
 453 962 453 962 481 962 c 128,-1,40
 509 962 509 962 531.5 936 c 128,-1,41
 554 910 554 910 554 875.5 c 128,-1,42
 554 841 554 841 546 809 c 1,43,-1
 510 809 l 1,20,-1
EndSplineSet
EndChar

StartChar: Ograve
Encoding: 210 210 147
Width: 768
GlyphClass: 2
Flags: W
LayerCount: 2
Fore
SplineSet
136.5 611.5 m 128,-1,1
 223 715 223 715 383.5 715 c 128,-1,2
 544 715 544 715 631 612 c 128,-1,3
 718 509 718 509 718 349.5 c 128,-1,4
 718 190 718 190 631 87.5 c 128,-1,5
 544 -15 544 -15 383.5 -15 c 128,-1,6
 223 -15 223 -15 136.5 87.5 c 128,-1,7
 50 190 50 190 50 349 c 128,-1,0
 50 508 50 508 136.5 611.5 c 128,-1,1
384 668 m 0,8,9
 325 668 325 668 284 622 c 0,10,11
 205 536 205 536 205 349 c 0,12,13
 205 163 205 163 284 78 c 0,14,15
 326 32 326 32 384 32 c 0,16,17
 470 32 470 32 516.5 124 c 128,-1,18
 563 216 563 216 563 349.5 c 128,-1,19
 563 483 563 483 516.5 575.5 c 128,-1,20
 470 668 470 668 384 668 c 0,8,9
254.5 950.5 m 128,-1,22
 271 965 271 965 290.5 965 c 128,-1,23
 310 965 310 965 323.5 958 c 128,-1,24
 337 951 337 951 345.5 942.5 c 128,-1,25
 354 934 354 934 371 915 c 2,26,-1
 490 783 l 1,27,-1
 469 759 l 1,28,-1
 321 832 l 2,29,30
 274 855 274 855 256 872.5 c 128,-1,31
 238 890 238 890 238 913 c 128,-1,21
 238 936 238 936 254.5 950.5 c 128,-1,22
EndSplineSet
EndChar

StartChar: Oacute
Encoding: 211 211 148
Width: 768
GlyphClass: 2
Flags: W
LayerCount: 2
Fore
SplineSet
136.5 611.5 m 128,-1,1
 223 715 223 715 383.5 715 c 128,-1,2
 544 715 544 715 631 612 c 128,-1,3
 718 509 718 509 718 349.5 c 128,-1,4
 718 190 718 190 631 87.5 c 128,-1,5
 544 -15 544 -15 383.5 -15 c 128,-1,6
 223 -15 223 -15 136.5 87.5 c 128,-1,7
 50 190 50 190 50 349 c 128,-1,0
 50 508 50 508 136.5 611.5 c 128,-1,1
384 668 m 0,8,9
 325 668 325 668 284 622 c 0,10,11
 205 536 205 536 205 349 c 0,12,13
 205 163 205 163 284 78 c 0,14,15
 326 32 326 32 384 32 c 0,16,17
 470 32 470 32 516.5 124 c 128,-1,18
 563 216 563 216 563 349.5 c 128,-1,19
 563 483 563 483 516.5 575.5 c 128,-1,20
 470 668 470 668 384 668 c 0,8,9
424.5 958 m 128,-1,22
 438 965 438 965 457.5 965 c 128,-1,23
 477 965 477 965 493.5 950.5 c 128,-1,24
 510 936 510 936 510 913 c 128,-1,25
 510 890 510 890 492 872.5 c 128,-1,26
 474 855 474 855 427 832 c 2,27,-1
 279 759 l 1,28,-1
 258 783 l 1,29,-1
 377 915 l 2,30,31
 394 934 394 934 402.5 942.5 c 128,-1,21
 411 951 411 951 424.5 958 c 128,-1,22
EndSplineSet
EndChar

StartChar: Ocircumflex
Encoding: 212 212 149
Width: 768
GlyphClass: 2
Flags: W
LayerCount: 2
Fore
SplineSet
136.5 611.5 m 128,-1,1
 223 715 223 715 383.5 715 c 128,-1,2
 544 715 544 715 631 612 c 128,-1,3
 718 509 718 509 718 349.5 c 128,-1,4
 718 190 718 190 631 87.5 c 128,-1,5
 544 -15 544 -15 383.5 -15 c 128,-1,6
 223 -15 223 -15 136.5 87.5 c 128,-1,7
 50 190 50 190 50 349 c 128,-1,0
 50 508 50 508 136.5 611.5 c 128,-1,1
384 668 m 0,8,9
 325 668 325 668 284 622 c 0,10,11
 205 536 205 536 205 349 c 0,12,13
 205 163 205 163 284 78 c 0,14,15
 326 32 326 32 384 32 c 0,16,17
 470 32 470 32 516.5 124 c 128,-1,18
 563 216 563 216 563 349.5 c 128,-1,19
 563 483 563 483 516.5 575.5 c 128,-1,20
 470 668 470 668 384 668 c 0,8,9
384 965 m 128,-1,22
 414 965 414 965 442 927 c 2,23,-1
 550 783 l 1,24,-1
 529 759 l 1,25,-1
 388 854 l 1,26,-1
 380 854 l 1,27,-1
 239 759 l 1,28,-1
 218 783 l 1,29,-1
 326 927 l 2,30,21
 354 965 354 965 384 965 c 128,-1,22
EndSplineSet
EndChar

StartChar: Otilde
Encoding: 213 213 150
Width: 768
GlyphClass: 2
Flags: W
LayerCount: 2
Fore
SplineSet
136.5 611.5 m 128,-1,1
 223 715 223 715 383.5 715 c 128,-1,2
 544 715 544 715 631 612 c 128,-1,3
 718 509 718 509 718 349.5 c 128,-1,4
 718 190 718 190 631 87.5 c 128,-1,5
 544 -15 544 -15 383.5 -15 c 128,-1,6
 223 -15 223 -15 136.5 87.5 c 128,-1,7
 50 190 50 190 50 349 c 128,-1,0
 50 508 50 508 136.5 611.5 c 128,-1,1
384 668 m 0,8,9
 325 668 325 668 284 622 c 0,10,11
 205 536 205 536 205 349 c 0,12,13
 205 163 205 163 284 78 c 0,14,15
 326 32 326 32 384 32 c 0,16,17
 470 32 470 32 516.5 124 c 128,-1,18
 563 216 563 216 563 349.5 c 128,-1,19
 563 483 563 483 516.5 575.5 c 128,-1,20
 470 668 470 668 384 668 c 0,8,9
496 809 m 1,21,-1
 496 824 l 2,22,23
 496 863 496 863 468 863 c 0,24,25
 456 863 456 863 445 856 c 2,26,-1
 360 808 l 2,27,28
 328 789 328 789 300 789 c 128,-1,29
 272 789 272 789 249.5 815 c 128,-1,30
 227 841 227 841 227 875.5 c 128,-1,31
 227 910 227 910 235 942 c 1,32,-1
 271 942 l 1,33,-1
 271 927 l 2,34,35
 271 888 271 888 299 888 c 0,36,37
 311 888 311 888 322 895 c 2,38,-1
 407 943 l 2,39,40
 439 962 439 962 467 962 c 128,-1,41
 495 962 495 962 517.5 936 c 128,-1,42
 540 910 540 910 540 875.5 c 128,-1,43
 540 841 540 841 532 809 c 1,44,-1
 496 809 l 1,21,-1
EndSplineSet
EndChar

StartChar: Odieresis
Encoding: 214 214 151
Width: 768
GlyphClass: 2
Flags: W
LayerCount: 2
Fore
SplineSet
136.5 611.5 m 128,-1,1
 223 715 223 715 383.5 715 c 128,-1,2
 544 715 544 715 631 612 c 128,-1,3
 718 509 718 509 718 349.5 c 128,-1,4
 718 190 718 190 631 87.5 c 128,-1,5
 544 -15 544 -15 383.5 -15 c 128,-1,6
 223 -15 223 -15 136.5 87.5 c 128,-1,7
 50 190 50 190 50 349 c 128,-1,0
 50 508 50 508 136.5 611.5 c 128,-1,1
384 668 m 0,8,9
 325 668 325 668 284 622 c 0,10,11
 205 536 205 536 205 349 c 0,12,13
 205 163 205 163 284 78 c 0,14,15
 326 32 326 32 384 32 c 0,16,17
 470 32 470 32 516.5 124 c 128,-1,18
 563 216 563 216 563 349.5 c 128,-1,19
 563 483 563 483 516.5 575.5 c 128,-1,20
 470 668 470 668 384 668 c 0,8,9
193 870 m 128,-1,22
 193 902 193 902 215.5 924 c 128,-1,23
 238 946 238 946 269 946 c 128,-1,24
 300 946 300 946 322.5 924 c 128,-1,25
 345 902 345 902 345 870 c 128,-1,26
 345 838 345 838 322.5 816 c 128,-1,27
 300 794 300 794 269 794 c 128,-1,28
 238 794 238 794 215.5 816 c 128,-1,21
 193 838 193 838 193 870 c 128,-1,22
423 870 m 128,-1,30
 423 902 423 902 445.5 924 c 128,-1,31
 468 946 468 946 499 946 c 128,-1,32
 530 946 530 946 552.5 924 c 128,-1,33
 575 902 575 902 575 870 c 128,-1,34
 575 838 575 838 552.5 816 c 128,-1,35
 530 794 530 794 499 794 c 128,-1,36
 468 794 468 794 445.5 816 c 128,-1,29
 423 838 423 838 423 870 c 128,-1,30
EndSplineSet
EndChar

StartChar: multiply
Encoding: 215 215 152
Width: 560
GlyphClass: 2
Flags: W
LayerCount: 2
Fore
SplineSet
147 175 m 1,0,-1
 105 217 l 1,1,-1
 238 350 l 1,2,-1
 105 483 l 1,3,-1
 147 525 l 1,4,-1
 280 392 l 1,5,-1
 413 525 l 1,6,-1
 455 483 l 1,7,-1
 322 350 l 1,8,-1
 455 217 l 1,9,-1
 413 175 l 1,10,-1
 280 308 l 1,11,-1
 147 175 l 1,0,-1
EndSplineSet
EndChar

StartChar: Oslash
Encoding: 216 216 153
Width: 768
GlyphClass: 2
Flags: W
LayerCount: 2
Fore
SplineSet
718 349 m 0,0,1
 718 190 718 190 631 87.5 c 128,-1,2
 544 -15 544 -15 383 -15 c 0,3,4
 351 -15 351 -15 311 -8 c 1,5,-1
 292 -80 l 1,6,-1
 243 -80 l 1,7,-1
 265 3 l 1,8,9
 161 37 161 37 105.5 130.5 c 128,-1,10
 50 224 50 224 50 349 c 0,11,12
 50 508 50 508 136.5 611.5 c 128,-1,13
 223 715 223 715 383 715 c 0,14,15
 416 715 416 715 456 708 c 1,16,-1
 475 779 l 1,17,-1
 525 779 l 1,18,-1
 502 697 l 1,19,20
 607 662 607 662 662.5 568.5 c 128,-1,21
 718 475 718 475 718 349 c 0,0,1
563 349 m 0,22,23
 563 538 563 538 482 624 c 1,24,-1
 326 45 l 1,25,26
 351 32 351 32 384 32 c 0,27,28
 470 32 470 32 516.5 124 c 128,-1,29
 563 216 563 216 563 349 c 0,22,23
384 668 m 0,30,31
 325 668 325 668 284 622 c 0,32,33
 205 536 205 536 205 348 c 128,-1,34
 205 160 205 160 285 76 c 1,35,-1
 441 655 l 1,36,37
 413 668 413 668 384 668 c 0,30,31
EndSplineSet
EndChar

StartChar: Ugrave
Encoding: 217 217 154
Width: 700
GlyphClass: 2
Flags: W
LayerCount: 2
Fore
SplineSet
485 660 m 1,0,-1
 485 700 l 1,1,-1
 675 700 l 1,2,-1
 675 660 l 1,3,-1
 615 660 l 1,4,-1
 615 241 l 2,5,6
 615 169 615 169 593.5 117 c 128,-1,7
 572 65 572 65 534 37 c 0,8,9
 463 -15 463 -15 357 -15 c 256,10,11
 251 -15 251 -15 178 38 c 1,12,13
 139 65 139 65 117 117 c 128,-1,14
 95 169 95 169 95 242 c 2,15,-1
 95 660 l 1,16,-1
 35 660 l 1,17,-1
 35 700 l 1,18,-1
 305 700 l 1,19,-1
 305 660 l 1,20,-1
 245 660 l 1,21,-1
 245 210 l 2,22,23
 245 132 245 132 287 90 c 128,-1,24
 329 48 329 48 390.5 48 c 128,-1,25
 452 48 452 48 498.5 90.5 c 128,-1,26
 545 133 545 133 545 210 c 2,27,-1
 545 660 l 1,28,-1
 485 660 l 1,0,-1
240.5 950.5 m 128,-1,30
 257 965 257 965 276.5 965 c 128,-1,31
 296 965 296 965 309.5 958 c 128,-1,32
 323 951 323 951 331.5 942.5 c 128,-1,33
 340 934 340 934 357 915 c 2,34,-1
 476 783 l 1,35,-1
 455 759 l 1,36,-1
 307 832 l 2,37,38
 260 855 260 855 242 872.5 c 128,-1,39
 224 890 224 890 224 913 c 128,-1,29
 224 936 224 936 240.5 950.5 c 128,-1,30
EndSplineSet
EndChar

StartChar: Uacute
Encoding: 218 218 155
Width: 700
GlyphClass: 2
Flags: W
LayerCount: 2
Fore
SplineSet
485 660 m 1,0,-1
 485 700 l 1,1,-1
 675 700 l 1,2,-1
 675 660 l 1,3,-1
 615 660 l 1,4,-1
 615 241 l 2,5,6
 615 169 615 169 593.5 117 c 128,-1,7
 572 65 572 65 534 37 c 0,8,9
 463 -15 463 -15 357 -15 c 256,10,11
 251 -15 251 -15 178 38 c 1,12,13
 139 65 139 65 117 117 c 128,-1,14
 95 169 95 169 95 242 c 2,15,-1
 95 660 l 1,16,-1
 35 660 l 1,17,-1
 35 700 l 1,18,-1
 305 700 l 1,19,-1
 305 660 l 1,20,-1
 245 660 l 1,21,-1
 245 210 l 2,22,23
 245 132 245 132 287 90 c 128,-1,24
 329 48 329 48 390.5 48 c 128,-1,25
 452 48 452 48 498.5 90.5 c 128,-1,26
 545 133 545 133 545 210 c 2,27,-1
 545 660 l 1,28,-1
 485 660 l 1,0,-1
395.5 958 m 128,-1,30
 409 965 409 965 428.5 965 c 128,-1,31
 448 965 448 965 464.5 950.5 c 128,-1,32
 481 936 481 936 481 913 c 128,-1,33
 481 890 481 890 463 872.5 c 128,-1,34
 445 855 445 855 398 832 c 2,35,-1
 250 759 l 1,36,-1
 229 783 l 1,37,-1
 348 915 l 2,38,39
 365 934 365 934 373.5 942.5 c 128,-1,29
 382 951 382 951 395.5 958 c 128,-1,30
EndSplineSet
EndChar

StartChar: Ucircumflex
Encoding: 219 219 156
Width: 700
GlyphClass: 2
Flags: W
LayerCount: 2
Fore
SplineSet
485 660 m 1,0,-1
 485 700 l 1,1,-1
 675 700 l 1,2,-1
 675 660 l 1,3,-1
 615 660 l 1,4,-1
 615 241 l 2,5,6
 615 169 615 169 593.5 117 c 128,-1,7
 572 65 572 65 534 37 c 0,8,9
 463 -15 463 -15 357 -15 c 256,10,11
 251 -15 251 -15 178 38 c 1,12,13
 139 65 139 65 117 117 c 128,-1,14
 95 169 95 169 95 242 c 2,15,-1
 95 660 l 1,16,-1
 35 660 l 1,17,-1
 35 700 l 1,18,-1
 305 700 l 1,19,-1
 305 660 l 1,20,-1
 245 660 l 1,21,-1
 245 210 l 2,22,23
 245 132 245 132 287 90 c 128,-1,24
 329 48 329 48 390.5 48 c 128,-1,25
 452 48 452 48 498.5 90.5 c 128,-1,26
 545 133 545 133 545 210 c 2,27,-1
 545 660 l 1,28,-1
 485 660 l 1,0,-1
370 965 m 128,-1,30
 400 965 400 965 428 927 c 2,31,-1
 536 783 l 1,32,-1
 515 759 l 1,33,-1
 374 854 l 1,34,-1
 366 854 l 1,35,-1
 225 759 l 1,36,-1
 204 783 l 1,37,-1
 312 927 l 2,38,29
 340 965 340 965 370 965 c 128,-1,30
EndSplineSet
EndChar

StartChar: Udieresis
Encoding: 220 220 157
Width: 700
GlyphClass: 2
Flags: W
LayerCount: 2
Fore
SplineSet
485 660 m 1,0,-1
 485 700 l 1,1,-1
 675 700 l 1,2,-1
 675 660 l 1,3,-1
 615 660 l 1,4,-1
 615 241 l 2,5,6
 615 169 615 169 593.5 117 c 128,-1,7
 572 65 572 65 534 37 c 0,8,9
 463 -15 463 -15 357 -15 c 256,10,11
 251 -15 251 -15 178 38 c 1,12,13
 139 65 139 65 117 117 c 128,-1,14
 95 169 95 169 95 242 c 2,15,-1
 95 660 l 1,16,-1
 35 660 l 1,17,-1
 35 700 l 1,18,-1
 305 700 l 1,19,-1
 305 660 l 1,20,-1
 245 660 l 1,21,-1
 245 210 l 2,22,23
 245 132 245 132 287 90 c 128,-1,24
 329 48 329 48 390.5 48 c 128,-1,25
 452 48 452 48 498.5 90.5 c 128,-1,26
 545 133 545 133 545 210 c 2,27,-1
 545 660 l 1,28,-1
 485 660 l 1,0,-1
164 870 m 128,-1,30
 164 902 164 902 186 924 c 128,-1,31
 208 946 208 946 240 946 c 128,-1,32
 272 946 272 946 294 924 c 128,-1,33
 316 902 316 902 316 870 c 128,-1,34
 316 838 316 838 294 816 c 128,-1,35
 272 794 272 794 240 794 c 128,-1,36
 208 794 208 794 186 816 c 128,-1,29
 164 838 164 838 164 870 c 128,-1,30
394 870 m 128,-1,38
 394 902 394 902 416 924 c 128,-1,39
 438 946 438 946 470 946 c 128,-1,40
 502 946 502 946 524 924 c 128,-1,41
 546 902 546 902 546 870 c 128,-1,42
 546 838 546 838 524 816 c 128,-1,43
 502 794 502 794 470 794 c 128,-1,44
 438 794 438 794 416 816 c 128,-1,37
 394 838 394 838 394 870 c 128,-1,38
EndSplineSet
EndChar

StartChar: Yacute
Encoding: 221 221 158
Width: 607
GlyphClass: 2
Flags: W
LayerCount: 2
Fore
SplineSet
135 0 m 1,0,-1
 135 40 l 1,1,-1
 235 40 l 1,2,-1
 235 250 l 1,3,-1
 53 660 l 1,4,-1
 5 660 l 1,5,-1
 5 700 l 1,6,-1
 203 700 l 1,7,-1
 361 308 l 1,8,-1
 451 700 l 1,9,-1
 602 700 l 1,10,-1
 602 660 l 1,11,-1
 555 660 l 1,12,-1
 385 250 l 1,13,-1
 385 40 l 1,14,-1
 485 40 l 1,15,-1
 485 0 l 1,16,-1
 135 0 l 1,0,-1
377.5 958 m 128,-1,18
 391 965 391 965 410.5 965 c 128,-1,19
 430 965 430 965 446.5 950.5 c 128,-1,20
 463 936 463 936 463 913 c 128,-1,21
 463 890 463 890 445 872.5 c 128,-1,22
 427 855 427 855 380 832 c 2,23,-1
 232 759 l 1,24,-1
 211 783 l 1,25,-1
 330 915 l 2,26,27
 347 934 347 934 355.5 942.5 c 128,-1,17
 364 951 364 951 377.5 958 c 128,-1,18
EndSplineSet
EndChar

StartChar: Thorn
Encoding: 222 222 159
Width: 673
GlyphClass: 2
Flags: W
LayerCount: 2
Fore
SplineSet
70 660 m 1,0,-1
 70 700 l 1,1,-1
 340 700 l 1,2,-1
 340 660 l 1,3,-1
 280 660 l 1,4,-1
 280 570 l 1,5,-1
 290 570 l 2,6,7
 536 570 536 570 598 457 c 0,8,9
 623 413 623 413 623 350 c 128,-1,10
 623 287 623 287 598.5 243 c 128,-1,11
 574 199 574 199 527 175 c 0,12,13
 439 130 439 130 290 130 c 2,14,-1
 280 130 l 1,15,-1
 280 40 l 1,16,-1
 340 40 l 1,17,-1
 340 0 l 1,18,-1
 70 0 l 1,19,-1
 70 40 l 1,20,-1
 130 40 l 1,21,-1
 130 660 l 1,22,-1
 70 660 l 1,0,-1
290 530 m 2,23,-1
 280 530 l 1,24,-1
 280 170 l 1,25,-1
 290 170 l 2,26,27
 369 170 369 170 421 217.5 c 128,-1,28
 473 265 473 265 473 350 c 128,-1,29
 473 435 473 435 421 482.5 c 128,-1,30
 369 530 369 530 290 530 c 2,23,-1
EndSplineSet
EndChar

StartChar: germandbls
Encoding: 223 223 160
Width: 655
GlyphClass: 2
Flags: W
LayerCount: 2
Fore
SplineSet
552 597 m 0,0,1
 552 561 552 561 530 529.5 c 128,-1,2
 508 498 508 498 481 479 c 0,3,4
 410 429 410 429 410 390 c 0,5,6
 410 343 410 343 491 302 c 0,7,8
 525 284 525 284 559 264 c 128,-1,9
 593 244 593 244 616.5 212.5 c 128,-1,10
 640 181 640 181 640 140 c 0,11,12
 640 65 640 65 592 25 c 128,-1,13
 544 -15 544 -15 451 -15 c 128,-1,14
 358 -15 358 -15 297 30 c 1,15,-1
 315 61 l 1,16,17
 357 37 357 37 402 37 c 128,-1,18
 447 37 447 37 468.5 60 c 128,-1,19
 490 83 490 83 490 118 c 128,-1,20
 490 153 490 153 474.5 181 c 128,-1,21
 459 209 459 209 437 230.5 c 128,-1,22
 415 252 415 252 392 274 c 1,23,24
 339 328 339 328 339 389 c 0,25,26
 339 429 339 429 379 492.5 c 128,-1,27
 419 556 419 556 419 591.5 c 128,-1,28
 419 627 419 627 402 646 c 128,-1,29
 385 665 385 665 351 665 c 128,-1,30
 317 665 317 665 294 624.5 c 128,-1,31
 271 584 271 584 271 499 c 2,32,-1
 271 0 l 1,33,-1
 121 0 l 1,34,-1
 121 445 l 1,35,-1
 39 445 l 1,36,-1
 39 486 l 1,37,-1
 121 486 l 1,38,-1
 121 489 l 2,39,40
 121 597 121 597 183.5 656 c 128,-1,41
 246 715 246 715 353 715 c 128,-1,42
 460 715 460 715 506 682 c 128,-1,43
 552 649 552 649 552 597 c 0,0,1
EndSplineSet
EndChar

StartChar: agrave
Encoding: 224 224 161
Width: 710
GlyphClass: 2
Flags: W
LayerCount: 2
Fore
SplineSet
597 500 m 1,0,-1
 597 111 l 2,1,2
 597 84 597 84 610 68.5 c 128,-1,3
 623 53 623 53 650 53 c 128,-1,4
 677 53 677 53 712 82 c 1,5,-1
 730 58 l 1,6,7
 650 -15 650 -15 570 -15 c 0,8,9
 475 -15 475 -15 453 74 c 1,10,11
 401 -15 401 -15 300 -15 c 0,12,13
 185 -15 185 -15 125 59.5 c 128,-1,14
 65 134 65 134 65 249.5 c 128,-1,15
 65 365 65 365 129.5 440 c 128,-1,16
 194 515 194 515 310 515 c 0,17,18
 399 515 399 515 447 444 c 1,19,-1
 447 500 l 1,20,-1
 597 500 l 1,0,-1
220 250 m 128,-1,22
 220 154 220 154 248 98 c 128,-1,23
 276 42 276 42 333.5 42 c 128,-1,24
 391 42 391 42 421.5 98.5 c 128,-1,25
 452 155 452 155 452 250 c 128,-1,26
 452 345 452 345 421.5 401.5 c 128,-1,27
 391 458 391 458 333.5 458 c 128,-1,28
 276 458 276 458 248 402 c 128,-1,21
 220 346 220 346 220 250 c 128,-1,22
223.5 750.5 m 128,-1,30
 240 765 240 765 259.5 765 c 128,-1,31
 279 765 279 765 292.5 758 c 128,-1,32
 306 751 306 751 314.5 742.5 c 128,-1,33
 323 734 323 734 340 715 c 2,34,-1
 459 583 l 1,35,-1
 438 559 l 1,36,-1
 290 632 l 2,37,38
 243 655 243 655 225 672.5 c 128,-1,39
 207 690 207 690 207 713 c 128,-1,29
 207 736 207 736 223.5 750.5 c 128,-1,30
EndSplineSet
EndChar

StartChar: aacute
Encoding: 225 225 162
Width: 695
GlyphClass: 2
Flags: W
LayerCount: 2
Fore
SplineSet
582 500 m 1,0,-1
 582 111 l 2,1,2
 582 84 582 84 595 68.5 c 128,-1,3
 608 53 608 53 635 53 c 128,-1,4
 662 53 662 53 697 82 c 1,5,-1
 715 58 l 1,6,7
 635 -15 635 -15 555 -15 c 0,8,9
 460 -15 460 -15 438 74 c 1,10,11
 386 -15 386 -15 285 -15 c 0,12,13
 170 -15 170 -15 110 59.5 c 128,-1,14
 50 134 50 134 50 249.5 c 128,-1,15
 50 365 50 365 114.5 440 c 128,-1,16
 179 515 179 515 295 515 c 0,17,18
 384 515 384 515 432 444 c 1,19,-1
 432 500 l 1,20,-1
 582 500 l 1,0,-1
205 250 m 128,-1,22
 205 154 205 154 233 98 c 128,-1,23
 261 42 261 42 318.5 42 c 128,-1,24
 376 42 376 42 406.5 98.5 c 128,-1,25
 437 155 437 155 437 250 c 128,-1,26
 437 345 437 345 406.5 401.5 c 128,-1,27
 376 458 376 458 318.5 458 c 128,-1,28
 261 458 261 458 233 402 c 128,-1,21
 205 346 205 346 205 250 c 128,-1,22
425.5 758 m 128,-1,30
 439 765 439 765 458.5 765 c 128,-1,31
 478 765 478 765 494.5 750.5 c 128,-1,32
 511 736 511 736 511 713 c 128,-1,33
 511 690 511 690 493 672.5 c 128,-1,34
 475 655 475 655 428 632 c 2,35,-1
 280 559 l 1,36,-1
 259 583 l 1,37,-1
 378 715 l 2,38,39
 395 734 395 734 403.5 742.5 c 128,-1,29
 412 751 412 751 425.5 758 c 128,-1,30
EndSplineSet
EndChar

StartChar: acircumflex
Encoding: 226 226 163
Width: 710
GlyphClass: 2
Flags: W
LayerCount: 2
Fore
SplineSet
597 500 m 1,0,-1
 597 111 l 2,1,2
 597 84 597 84 610 68.5 c 128,-1,3
 623 53 623 53 650 53 c 128,-1,4
 677 53 677 53 712 82 c 1,5,-1
 730 58 l 1,6,7
 650 -15 650 -15 570 -15 c 0,8,9
 475 -15 475 -15 453 74 c 1,10,11
 401 -15 401 -15 300 -15 c 0,12,13
 185 -15 185 -15 125 59.5 c 128,-1,14
 65 134 65 134 65 249.5 c 128,-1,15
 65 365 65 365 129.5 440 c 128,-1,16
 194 515 194 515 310 515 c 0,17,18
 399 515 399 515 447 444 c 1,19,-1
 447 500 l 1,20,-1
 597 500 l 1,0,-1
220 250 m 128,-1,22
 220 154 220 154 248 98 c 128,-1,23
 276 42 276 42 333.5 42 c 128,-1,24
 391 42 391 42 421.5 98.5 c 128,-1,25
 452 155 452 155 452 250 c 128,-1,26
 452 345 452 345 421.5 401.5 c 128,-1,27
 391 458 391 458 333.5 458 c 128,-1,28
 276 458 276 458 248 402 c 128,-1,21
 220 346 220 346 220 250 c 128,-1,22
335 765 m 128,-1,30
 365 765 365 765 393 727 c 2,31,-1
 501 583 l 1,32,-1
 480 559 l 1,33,-1
 339 654 l 1,34,-1
 331 654 l 1,35,-1
 190 559 l 1,36,-1
 169 583 l 1,37,-1
 277 727 l 2,38,29
 305 765 305 765 335 765 c 128,-1,30
EndSplineSet
EndChar

StartChar: atilde
Encoding: 227 227 164
Width: 695
GlyphClass: 2
Flags: W
LayerCount: 2
Fore
SplineSet
582 500 m 1,0,-1
 582 111 l 2,1,2
 582 84 582 84 595 68.5 c 128,-1,3
 608 53 608 53 635 53 c 128,-1,4
 662 53 662 53 697 82 c 1,5,-1
 715 58 l 1,6,7
 635 -15 635 -15 555 -15 c 0,8,9
 460 -15 460 -15 438 74 c 1,10,11
 386 -15 386 -15 285 -15 c 0,12,13
 170 -15 170 -15 110 59.5 c 128,-1,14
 50 134 50 134 50 249.5 c 128,-1,15
 50 365 50 365 114.5 440 c 128,-1,16
 179 515 179 515 295 515 c 0,17,18
 384 515 384 515 432 444 c 1,19,-1
 432 500 l 1,20,-1
 582 500 l 1,0,-1
205 250 m 128,-1,22
 205 154 205 154 233 98 c 128,-1,23
 261 42 261 42 318.5 42 c 128,-1,24
 376 42 376 42 406.5 98.5 c 128,-1,25
 437 155 437 155 437 250 c 128,-1,26
 437 345 437 345 406.5 401.5 c 128,-1,27
 376 458 376 458 318.5 458 c 128,-1,28
 261 458 261 458 233 402 c 128,-1,21
 205 346 205 346 205 250 c 128,-1,22
460 609 m 1,29,-1
 460 624 l 2,30,31
 460 663 460 663 432 663 c 0,32,33
 420 663 420 663 409 656 c 2,34,-1
 324 608 l 2,35,36
 292 589 292 589 264 589 c 128,-1,37
 236 589 236 589 213.5 615 c 128,-1,38
 191 641 191 641 191 675.5 c 128,-1,39
 191 710 191 710 199 742 c 1,40,-1
 235 742 l 1,41,-1
 235 727 l 2,42,43
 235 688 235 688 263 688 c 0,44,45
 275 688 275 688 286 695 c 2,46,-1
 371 743 l 2,47,48
 403 762 403 762 431 762 c 128,-1,49
 459 762 459 762 481.5 736 c 128,-1,50
 504 710 504 710 504 675.5 c 128,-1,51
 504 641 504 641 496 609 c 1,52,-1
 460 609 l 1,29,-1
EndSplineSet
EndChar

StartChar: adieresis
Encoding: 228 228 165
Width: 695
GlyphClass: 2
Flags: W
LayerCount: 2
Fore
SplineSet
582 500 m 1,0,-1
 582 111 l 2,1,2
 582 84 582 84 595 68.5 c 128,-1,3
 608 53 608 53 635 53 c 128,-1,4
 662 53 662 53 697 82 c 1,5,-1
 715 58 l 1,6,7
 635 -15 635 -15 555 -15 c 0,8,9
 460 -15 460 -15 438 74 c 1,10,11
 386 -15 386 -15 285 -15 c 0,12,13
 170 -15 170 -15 110 59.5 c 128,-1,14
 50 134 50 134 50 249.5 c 128,-1,15
 50 365 50 365 114.5 440 c 128,-1,16
 179 515 179 515 295 515 c 0,17,18
 384 515 384 515 432 444 c 1,19,-1
 432 500 l 1,20,-1
 582 500 l 1,0,-1
205 250 m 128,-1,22
 205 154 205 154 233 98 c 128,-1,23
 261 42 261 42 318.5 42 c 128,-1,24
 376 42 376 42 406.5 98.5 c 128,-1,25
 437 155 437 155 437 250 c 128,-1,26
 437 345 437 345 406.5 401.5 c 128,-1,27
 376 458 376 458 318.5 458 c 128,-1,28
 261 458 261 458 233 402 c 128,-1,21
 205 346 205 346 205 250 c 128,-1,22
156 670 m 128,-1,30
 156 702 156 702 178 724 c 128,-1,31
 200 746 200 746 232 746 c 128,-1,32
 264 746 264 746 286 724 c 128,-1,33
 308 702 308 702 308 670 c 128,-1,34
 308 638 308 638 286 616 c 128,-1,35
 264 594 264 594 232 594 c 128,-1,36
 200 594 200 594 178 616 c 128,-1,29
 156 638 156 638 156 670 c 128,-1,30
386 670 m 128,-1,38
 386 702 386 702 408 724 c 128,-1,39
 430 746 430 746 462 746 c 128,-1,40
 494 746 494 746 516 724 c 128,-1,41
 538 702 538 702 538 670 c 128,-1,42
 538 638 538 638 516 616 c 128,-1,43
 494 594 494 594 462 594 c 128,-1,44
 430 594 430 594 408 616 c 128,-1,37
 386 638 386 638 386 670 c 128,-1,38
EndSplineSet
EndChar

StartChar: aring
Encoding: 229 229 166
Width: 710
GlyphClass: 2
Flags: W
LayerCount: 2
Fore
SplineSet
597 500 m 1,0,-1
 597 111 l 2,1,2
 597 84 597 84 610 68.5 c 128,-1,3
 623 53 623 53 650 53 c 128,-1,4
 677 53 677 53 712 82 c 1,5,-1
 730 58 l 1,6,7
 650 -15 650 -15 570 -15 c 0,8,9
 475 -15 475 -15 453 74 c 1,10,11
 401 -15 401 -15 300 -15 c 0,12,13
 185 -15 185 -15 125 59.5 c 128,-1,14
 65 134 65 134 65 249.5 c 128,-1,15
 65 365 65 365 129.5 440 c 128,-1,16
 194 515 194 515 310 515 c 0,17,18
 399 515 399 515 447 444 c 1,19,-1
 447 500 l 1,20,-1
 597 500 l 1,0,-1
220 250 m 128,-1,22
 220 154 220 154 248 98 c 128,-1,23
 276 42 276 42 333.5 42 c 128,-1,24
 391 42 391 42 421.5 98.5 c 128,-1,25
 452 155 452 155 452 250 c 128,-1,26
 452 345 452 345 421.5 401.5 c 128,-1,27
 391 458 391 458 333.5 458 c 128,-1,28
 276 458 276 458 248 402 c 128,-1,21
 220 346 220 346 220 250 c 128,-1,22
253 585 m 128,-1,30
 216 617 216 617 216 669.5 c 128,-1,31
 216 722 216 722 253 754.5 c 128,-1,32
 290 787 290 787 345 787 c 128,-1,33
 400 787 400 787 437 754.5 c 128,-1,34
 474 722 474 722 474 669.5 c 128,-1,35
 474 617 474 617 437 585 c 128,-1,36
 400 553 400 553 345 553 c 128,-1,29
 290 553 290 553 253 585 c 128,-1,30
300 669 m 128,-1,38
 300 586 300 586 344.5 586 c 128,-1,39
 389 586 389 586 389 669 c 128,-1,40
 389 752 389 752 344.5 752 c 128,-1,37
 300 752 300 752 300 669 c 128,-1,38
EndSplineSet
EndChar

StartChar: ae
Encoding: 230 230 167
Width: 904
GlyphClass: 2
Flags: W
LayerCount: 2
Fore
SplineSet
643 180 m 0,0,1
 588 180 588 180 531 192 c 1,2,3
 540 126 540 126 572.5 86.5 c 128,-1,4
 605 47 605 47 658 47 c 0,5,6
 754 47 754 47 821 122 c 1,7,-1
 849 104 l 1,8,9
 815 50 815 50 759 17.5 c 128,-1,10
 703 -15 703 -15 630 -15 c 128,-1,11
 557 -15 557 -15 501 21 c 128,-1,12
 445 57 445 57 413 117 c 1,13,14
 394 59 394 59 347.5 22 c 128,-1,15
 301 -15 301 -15 224 -15 c 128,-1,16
 147 -15 147 -15 101 29 c 128,-1,17
 55 73 55 73 55 144.5 c 128,-1,18
 55 216 55 216 109 260.5 c 128,-1,19
 163 305 163 305 242 305 c 128,-1,20
 321 305 321 305 390 274 c 1,21,22
 390 406 390 406 340 437 c 0,23,24
 318 451 318 451 284 451 c 0,25,26
 213 451 213 451 125 398 c 1,27,-1
 105 430 l 1,28,29
 165 478 165 478 216.5 496.5 c 128,-1,30
 268 515 268 515 338 515 c 0,31,32
 436 515 436 515 487 466 c 1,33,34
 555 515 555 515 650 515 c 128,-1,35
 745 515 745 515 795 471 c 128,-1,36
 845 427 845 427 845 360 c 128,-1,37
 845 293 845 293 789.5 236.5 c 128,-1,38
 734 180 734 180 643 180 c 0,0,1
527 250 m 2,39,-1
 527 226 l 1,40,41
 560 219 560 219 581 219 c 0,42,43
 648 219 648 219 682.5 263.5 c 128,-1,44
 717 308 717 308 717 357.5 c 128,-1,45
 717 407 717 407 697.5 434 c 128,-1,46
 678 461 678 461 636 461 c 128,-1,47
 594 461 594 461 560.5 406 c 128,-1,48
 527 351 527 351 527 250 c 2,39,-1
278 52 m 0,49,50
 390 52 390 52 390 239 c 1,51,52
 338 258 338 258 292.5 258 c 128,-1,53
 247 258 247 258 223.5 228 c 128,-1,54
 200 198 200 198 200 152 c 128,-1,55
 200 106 200 106 221 79 c 128,-1,56
 242 52 242 52 278 52 c 0,49,50
EndSplineSet
EndChar

StartChar: ccedilla
Encoding: 231 231 168
Width: 562
GlyphClass: 2
Flags: W
LayerCount: 2
Fore
SplineSet
331 -15 m 0,0,1
 317 -15 317 -15 311 -14 c 1,2,-1
 280 -77 l 1,3,4
 297 -70 297 -70 321 -70 c 0,5,6
 368 -70 368 -70 397 -97 c 128,-1,7
 426 -124 426 -124 426 -165 c 128,-1,8
 426 -206 426 -206 391.5 -235.5 c 128,-1,9
 357 -265 357 -265 308 -265 c 128,-1,10
 259 -265 259 -265 227.5 -247 c 128,-1,11
 196 -229 196 -229 196 -196 c 0,12,13
 196 -179 196 -179 208 -167 c 128,-1,14
 220 -155 220 -155 236.5 -155 c 128,-1,15
 253 -155 253 -155 265.5 -167.5 c 128,-1,16
 278 -180 278 -180 278 -199 c 128,-1,17
 278 -218 278 -218 260 -231 c 1,18,19
 268 -233 268 -233 275 -233 c 0,20,21
 304 -233 304 -233 321.5 -215 c 128,-1,22
 339 -197 339 -197 339 -172.5 c 128,-1,23
 339 -148 339 -148 320 -129 c 128,-1,24
 301 -110 301 -110 266 -110 c 1,25,-1
 244 -93 l 1,26,-1
 282 -11 l 1,27,28
 183 4 183 4 124 77 c 128,-1,29
 65 150 65 150 65 256 c 128,-1,30
 65 362 65 362 138.5 438.5 c 128,-1,31
 212 515 212 515 330 515 c 0,32,33
 396 515 396 515 459 477 c 128,-1,34
 522 439 522 439 522 374 c 0,35,36
 522 341 522 341 498.5 317.5 c 128,-1,37
 475 294 475 294 442 294 c 128,-1,38
 409 294 409 294 385.5 317.5 c 128,-1,39
 362 341 362 341 362 371 c 128,-1,40
 362 401 362 401 378 422 c 128,-1,41
 394 443 394 443 420 451 c 1,42,43
 392 463 392 463 356 463 c 0,44,45
 289 463 289 463 254.5 403.5 c 128,-1,46
 220 344 220 344 220 252.5 c 128,-1,47
 220 161 220 161 254.5 104 c 128,-1,48
 289 47 289 47 356 47 c 0,49,50
 446 47 446 47 509 122 c 1,51,-1
 537 104 l 1,52,53
 504 50 504 50 450.5 17.5 c 128,-1,54
 397 -15 397 -15 331 -15 c 0,0,1
EndSplineSet
EndChar

StartChar: egrave
Encoding: 232 232 169
Width: 597
GlyphClass: 2
Flags: W
LayerCount: 2
Fore
SplineSet
374.5 280.5 m 128,-1,1
 410 324 410 324 410 368.5 c 128,-1,2
 410 413 410 413 390.5 437 c 128,-1,3
 371 461 371 461 331.5 461 c 128,-1,4
 292 461 292 461 256 405 c 128,-1,5
 220 349 220 349 220 255 c 128,-1,6
 220 161 220 161 254 104 c 128,-1,7
 288 47 288 47 351 47 c 0,8,9
 447 47 447 47 514 122 c 1,10,-1
 542 104 l 1,11,12
 508 50 508 50 452 17.5 c 128,-1,13
 396 -15 396 -15 326 -15 c 0,14,15
 207 -15 207 -15 136 63.5 c 128,-1,16
 65 142 65 142 65 253 c 128,-1,17
 65 364 65 364 140.5 439.5 c 128,-1,18
 216 515 216 515 350 515 c 0,19,20
 438 515 438 515 488 474 c 128,-1,21
 538 433 538 433 538 370 c 128,-1,22
 538 307 538 307 482.5 253.5 c 128,-1,23
 427 200 427 200 336 200 c 0,24,25
 305 200 305 200 276 207 c 1,26,-1
 274 231 l 1,27,0
 339 237 339 237 374.5 280.5 c 128,-1,1
208.5 750.5 m 128,-1,29
 225 765 225 765 244.5 765 c 128,-1,30
 264 765 264 765 277.5 758 c 128,-1,31
 291 751 291 751 299.5 742.5 c 128,-1,32
 308 734 308 734 325 715 c 2,33,-1
 444 583 l 1,34,-1
 423 559 l 1,35,-1
 275 632 l 2,36,37
 228 655 228 655 210 672.5 c 128,-1,38
 192 690 192 690 192 713 c 128,-1,28
 192 736 192 736 208.5 750.5 c 128,-1,29
EndSplineSet
EndChar

StartChar: eacute
Encoding: 233 233 170
Width: 597
GlyphClass: 2
Flags: W
LayerCount: 2
Fore
SplineSet
374.5 280.5 m 128,-1,1
 410 324 410 324 410 368.5 c 128,-1,2
 410 413 410 413 390.5 437 c 128,-1,3
 371 461 371 461 331.5 461 c 128,-1,4
 292 461 292 461 256 405 c 128,-1,5
 220 349 220 349 220 255 c 128,-1,6
 220 161 220 161 254 104 c 128,-1,7
 288 47 288 47 351 47 c 0,8,9
 447 47 447 47 514 122 c 1,10,-1
 542 104 l 1,11,12
 508 50 508 50 452 17.5 c 128,-1,13
 396 -15 396 -15 326 -15 c 0,14,15
 207 -15 207 -15 136 63.5 c 128,-1,16
 65 142 65 142 65 253 c 128,-1,17
 65 364 65 364 140.5 439.5 c 128,-1,18
 216 515 216 515 350 515 c 0,19,20
 438 515 438 515 488 474 c 128,-1,21
 538 433 538 433 538 370 c 128,-1,22
 538 307 538 307 482.5 253.5 c 128,-1,23
 427 200 427 200 336 200 c 0,24,25
 305 200 305 200 276 207 c 1,26,-1
 274 231 l 1,27,0
 339 237 339 237 374.5 280.5 c 128,-1,1
376.5 758 m 128,-1,29
 390 765 390 765 409.5 765 c 128,-1,30
 429 765 429 765 445.5 750.5 c 128,-1,31
 462 736 462 736 462 713 c 128,-1,32
 462 690 462 690 444 672.5 c 128,-1,33
 426 655 426 655 379 632 c 2,34,-1
 231 559 l 1,35,-1
 210 583 l 1,36,-1
 329 715 l 2,37,38
 346 734 346 734 354.5 742.5 c 128,-1,28
 363 751 363 751 376.5 758 c 128,-1,29
EndSplineSet
EndChar

StartChar: ecircumflex
Encoding: 234 234 171
Width: 597
GlyphClass: 2
Flags: W
LayerCount: 2
Fore
SplineSet
374.5 280.5 m 128,-1,1
 410 324 410 324 410 368.5 c 128,-1,2
 410 413 410 413 390.5 437 c 128,-1,3
 371 461 371 461 331.5 461 c 128,-1,4
 292 461 292 461 256 405 c 128,-1,5
 220 349 220 349 220 255 c 128,-1,6
 220 161 220 161 254 104 c 128,-1,7
 288 47 288 47 351 47 c 0,8,9
 447 47 447 47 514 122 c 1,10,-1
 542 104 l 1,11,12
 508 50 508 50 452 17.5 c 128,-1,13
 396 -15 396 -15 326 -15 c 0,14,15
 207 -15 207 -15 136 63.5 c 128,-1,16
 65 142 65 142 65 253 c 128,-1,17
 65 364 65 364 140.5 439.5 c 128,-1,18
 216 515 216 515 350 515 c 0,19,20
 438 515 438 515 488 474 c 128,-1,21
 538 433 538 433 538 370 c 128,-1,22
 538 307 538 307 482.5 253.5 c 128,-1,23
 427 200 427 200 336 200 c 0,24,25
 305 200 305 200 276 207 c 1,26,-1
 274 231 l 1,27,0
 339 237 339 237 374.5 280.5 c 128,-1,1
308 765 m 128,-1,29
 338 765 338 765 366 727 c 2,30,-1
 474 583 l 1,31,-1
 453 559 l 1,32,-1
 312 654 l 1,33,-1
 304 654 l 1,34,-1
 163 559 l 1,35,-1
 142 583 l 1,36,-1
 250 727 l 2,37,28
 278 765 278 765 308 765 c 128,-1,29
EndSplineSet
EndChar

StartChar: edieresis
Encoding: 235 235 172
Width: 597
GlyphClass: 2
Flags: W
LayerCount: 2
Fore
SplineSet
374.5 280.5 m 128,-1,1
 410 324 410 324 410 368.5 c 128,-1,2
 410 413 410 413 390.5 437 c 128,-1,3
 371 461 371 461 331.5 461 c 128,-1,4
 292 461 292 461 256 405 c 128,-1,5
 220 349 220 349 220 255 c 128,-1,6
 220 161 220 161 254 104 c 128,-1,7
 288 47 288 47 351 47 c 0,8,9
 447 47 447 47 514 122 c 1,10,-1
 542 104 l 1,11,12
 508 50 508 50 452 17.5 c 128,-1,13
 396 -15 396 -15 326 -15 c 0,14,15
 207 -15 207 -15 136 63.5 c 128,-1,16
 65 142 65 142 65 253 c 128,-1,17
 65 364 65 364 140.5 439.5 c 128,-1,18
 216 515 216 515 350 515 c 0,19,20
 438 515 438 515 488 474 c 128,-1,21
 538 433 538 433 538 370 c 128,-1,22
 538 307 538 307 482.5 253.5 c 128,-1,23
 427 200 427 200 336 200 c 0,24,25
 305 200 305 200 276 207 c 1,26,-1
 274 231 l 1,27,0
 339 237 339 237 374.5 280.5 c 128,-1,1
107 670 m 128,-1,29
 107 702 107 702 129.5 724 c 128,-1,30
 152 746 152 746 183 746 c 128,-1,31
 214 746 214 746 236.5 724 c 128,-1,32
 259 702 259 702 259 670 c 128,-1,33
 259 638 259 638 236.5 616 c 128,-1,34
 214 594 214 594 183 594 c 128,-1,35
 152 594 152 594 129.5 616 c 128,-1,28
 107 638 107 638 107 670 c 128,-1,29
337 670 m 128,-1,37
 337 702 337 702 359.5 724 c 128,-1,38
 382 746 382 746 413 746 c 128,-1,39
 444 746 444 746 466.5 724 c 128,-1,40
 489 702 489 702 489 670 c 128,-1,41
 489 638 489 638 466.5 616 c 128,-1,42
 444 594 444 594 413 594 c 128,-1,43
 382 594 382 594 359.5 616 c 128,-1,36
 337 638 337 638 337 670 c 128,-1,37
EndSplineSet
EndChar

StartChar: igrave
Encoding: 236 236 173
Width: 399
GlyphClass: 2
Flags: W
LayerCount: 2
Fore
SplineSet
192 515 m 0,0,1
 286 515 286 515 286 434 c 2,2,-1
 286 111 l 2,3,4
 286 84 286 84 299 68.5 c 128,-1,5
 312 53 312 53 339 53 c 128,-1,6
 366 53 366 53 401 82 c 1,7,-1
 419 58 l 1,8,9
 339 -15 339 -15 259 -15 c 0,10,11
 136 -15 136 -15 136 132 c 2,12,-1
 136 467 l 1,13,14
 81 453 81 453 52 418 c 1,15,-1
 25 449 l 1,16,17
 54 479 54 479 98.5 497 c 128,-1,18
 143 515 143 515 192 515 c 0,0,1
89.5 750.5 m 128,-1,20
 106 765 106 765 125.5 765 c 128,-1,21
 145 765 145 765 158.5 758 c 128,-1,22
 172 751 172 751 180.5 742.5 c 128,-1,23
 189 734 189 734 206 715 c 2,24,-1
 325 583 l 1,25,-1
 304 559 l 1,26,-1
 156 632 l 2,27,28
 109 655 109 655 91 672.5 c 128,-1,29
 73 690 73 690 73 713 c 128,-1,19
 73 736 73 736 89.5 750.5 c 128,-1,20
EndSplineSet
EndChar

StartChar: iacute
Encoding: 237 237 174
Width: 399
GlyphClass: 2
Flags: W
LayerCount: 2
Fore
SplineSet
192 515 m 0,0,1
 286 515 286 515 286 434 c 2,2,-1
 286 111 l 2,3,4
 286 84 286 84 299 68.5 c 128,-1,5
 312 53 312 53 339 53 c 128,-1,6
 366 53 366 53 401 82 c 1,7,-1
 419 58 l 1,8,9
 339 -15 339 -15 259 -15 c 0,10,11
 136 -15 136 -15 136 132 c 2,12,-1
 136 467 l 1,13,14
 81 453 81 453 52 418 c 1,15,-1
 25 449 l 1,16,17
 54 479 54 479 98.5 497 c 128,-1,18
 143 515 143 515 192 515 c 0,0,1
240.5 758 m 128,-1,20
 254 765 254 765 273.5 765 c 128,-1,21
 293 765 293 765 309.5 750.5 c 128,-1,22
 326 736 326 736 326 713 c 128,-1,23
 326 690 326 690 308 672.5 c 128,-1,24
 290 655 290 655 243 632 c 2,25,-1
 95 559 l 1,26,-1
 74 583 l 1,27,-1
 193 715 l 2,28,29
 210 734 210 734 218.5 742.5 c 128,-1,19
 227 751 227 751 240.5 758 c 128,-1,20
EndSplineSet
EndChar

StartChar: icircumflex
Encoding: 238 238 175
Width: 399
GlyphClass: 2
Flags: W
LayerCount: 2
Fore
SplineSet
192 515 m 0,0,1
 286 515 286 515 286 434 c 2,2,-1
 286 111 l 2,3,4
 286 84 286 84 299 68.5 c 128,-1,5
 312 53 312 53 339 53 c 128,-1,6
 366 53 366 53 401 82 c 1,7,-1
 419 58 l 1,8,9
 339 -15 339 -15 259 -15 c 0,10,11
 136 -15 136 -15 136 132 c 2,12,-1
 136 467 l 1,13,14
 81 453 81 453 52 418 c 1,15,-1
 25 449 l 1,16,17
 54 479 54 479 98.5 497 c 128,-1,18
 143 515 143 515 192 515 c 0,0,1
199 765 m 128,-1,20
 229 765 229 765 257 727 c 2,21,-1
 365 583 l 1,22,-1
 344 559 l 1,23,-1
 203 654 l 1,24,-1
 195 654 l 1,25,-1
 54 559 l 1,26,-1
 33 583 l 1,27,-1
 141 727 l 2,28,19
 169 765 169 765 199 765 c 128,-1,20
EndSplineSet
EndChar

StartChar: idieresis
Encoding: 239 239 176
Width: 399
GlyphClass: 2
Flags: W
LayerCount: 2
Fore
SplineSet
192 515 m 0,0,1
 286 515 286 515 286 434 c 2,2,-1
 286 111 l 2,3,4
 286 84 286 84 299 68.5 c 128,-1,5
 312 53 312 53 339 53 c 128,-1,6
 366 53 366 53 401 82 c 1,7,-1
 419 58 l 1,8,9
 339 -15 339 -15 259 -15 c 0,10,11
 136 -15 136 -15 136 132 c 2,12,-1
 136 467 l 1,13,14
 81 453 81 453 52 418 c 1,15,-1
 25 449 l 1,16,17
 54 479 54 479 98.5 497 c 128,-1,18
 143 515 143 515 192 515 c 0,0,1
9 670 m 128,-1,20
 9 702 9 702 31.5 724 c 128,-1,21
 54 746 54 746 85 746 c 128,-1,22
 116 746 116 746 138.5 724 c 128,-1,23
 161 702 161 702 161 670 c 128,-1,24
 161 638 161 638 138.5 616 c 128,-1,25
 116 594 116 594 85 594 c 128,-1,26
 54 594 54 594 31.5 616 c 128,-1,19
 9 638 9 638 9 670 c 128,-1,20
239 670 m 128,-1,28
 239 702 239 702 261.5 724 c 128,-1,29
 284 746 284 746 315 746 c 128,-1,30
 346 746 346 746 368.5 724 c 128,-1,31
 391 702 391 702 391 670 c 128,-1,32
 391 638 391 638 368.5 616 c 128,-1,33
 346 594 346 594 315 594 c 128,-1,34
 284 594 284 594 261.5 616 c 128,-1,27
 239 638 239 638 239 670 c 128,-1,28
EndSplineSet
EndChar

StartChar: eth
Encoding: 240 240 177
Width: 673
GlyphClass: 2
Flags: W
LayerCount: 2
Fore
SplineSet
270 705 m 0,0,1
 194 705 194 705 133 647 c 1,2,-1
 108 721 l 1,3,4
 186 765 186 765 271 765 c 0,5,6
 380 765 380 765 459 689 c 1,7,-1
 579 750 l 1,8,-1
 598 712 l 1,9,-1
 488 656 l 1,10,11
 590 524 590 524 590 293 c 0,12,13
 590 146 590 146 520 65.5 c 128,-1,14
 450 -15 450 -15 330.5 -15 c 128,-1,15
 211 -15 211 -15 140.5 57 c 128,-1,16
 70 129 70 129 70 240 c 128,-1,17
 70 351 70 351 137.5 418 c 128,-1,18
 205 485 205 485 310 485 c 0,19,20
 396 485 396 485 438 427 c 1,21,-1
 448 431 l 1,22,23
 432 543 432 543 398 610 c 1,24,-1
 274 547 l 1,25,-1
 255 585 l 1,26,-1
 375 646 l 1,27,28
 331 705 331 705 270 705 c 0,0,1
243 381 m 128,-1,30
 215 324 215 324 215 233.5 c 128,-1,31
 215 143 215 143 243 85 c 128,-1,32
 271 27 271 27 328.5 27 c 128,-1,33
 386 27 386 27 416.5 85 c 128,-1,34
 447 143 447 143 447 233.5 c 128,-1,35
 447 324 447 324 416.5 381 c 128,-1,36
 386 438 386 438 328.5 438 c 128,-1,29
 271 438 271 438 243 381 c 128,-1,30
EndSplineSet
EndChar

StartChar: ntilde
Encoding: 241 241 178
Width: 707
GlyphClass: 2
Flags: W
LayerCount: 2
Fore
SplineSet
124 500 m 0,0,1
 206 500 206 500 272 450 c 1,2,3
 310 486 310 486 350 500.5 c 128,-1,4
 390 515 390 515 452.5 515 c 128,-1,5
 515 515 515 515 554.5 475.5 c 128,-1,6
 594 436 594 436 594 368 c 2,7,-1
 594 111 l 2,8,9
 594 84 594 84 607 68.5 c 128,-1,10
 620 53 620 53 647 53 c 128,-1,11
 674 53 674 53 709 82 c 1,12,-1
 727 58 l 1,13,14
 647 -15 647 -15 567 -15 c 0,15,16
 444 -15 444 -15 444 132 c 2,17,-1
 444 389 l 2,18,19
 444 420 444 420 425 437 c 128,-1,20
 406 454 406 454 372.5 454 c 128,-1,21
 339 454 339 454 306.5 427 c 128,-1,22
 274 400 274 400 274 357 c 2,23,-1
 274 0 l 1,24,-1
 124 0 l 1,25,-1
 124 460 l 1,26,27
 79 460 79 460 44 445 c 1,28,-1
 30 482 l 1,29,30
 73 500 73 500 124 500 c 0,0,1
466 609 m 1,31,-1
 466 624 l 2,32,33
 466 663 466 663 438 663 c 0,34,35
 426 663 426 663 415 656 c 2,36,-1
 330 608 l 2,37,38
 298 589 298 589 270 589 c 128,-1,39
 242 589 242 589 219.5 615 c 128,-1,40
 197 641 197 641 197 675.5 c 128,-1,41
 197 710 197 710 205 742 c 1,42,-1
 241 742 l 1,43,-1
 241 727 l 2,44,45
 241 688 241 688 269 688 c 0,46,47
 281 688 281 688 292 695 c 2,48,-1
 377 743 l 2,49,50
 409 762 409 762 437 762 c 128,-1,51
 465 762 465 762 487.5 736 c 128,-1,52
 510 710 510 710 510 675.5 c 128,-1,53
 510 641 510 641 502 609 c 1,54,-1
 466 609 l 1,31,-1
EndSplineSet
EndChar

StartChar: ograve
Encoding: 242 242 179
Width: 660
GlyphClass: 2
Flags: W
LayerCount: 2
Fore
SplineSet
65 250 m 128,-1,1
 65 362 65 362 138.5 438.5 c 128,-1,2
 212 515 212 515 330 515 c 128,-1,3
 448 515 448 515 521.5 438.5 c 128,-1,4
 595 362 595 362 595 250 c 128,-1,5
 595 138 595 138 521.5 61.5 c 128,-1,6
 448 -15 448 -15 330 -15 c 128,-1,7
 212 -15 212 -15 138.5 61.5 c 128,-1,0
 65 138 65 138 65 250 c 128,-1,1
220 250 m 128,-1,9
 220 152 220 152 248 89.5 c 128,-1,10
 276 27 276 27 331 27 c 128,-1,11
 386 27 386 27 414 89.5 c 128,-1,12
 442 152 442 152 442 250 c 128,-1,13
 442 348 442 348 414 410.5 c 128,-1,14
 386 473 386 473 331 473 c 128,-1,15
 276 473 276 473 248 410.5 c 128,-1,8
 220 348 220 348 220 250 c 128,-1,9
220.5 750.5 m 128,-1,17
 237 765 237 765 256.5 765 c 128,-1,18
 276 765 276 765 289.5 758 c 128,-1,19
 303 751 303 751 311.5 742.5 c 128,-1,20
 320 734 320 734 337 715 c 2,21,-1
 456 583 l 1,22,-1
 435 559 l 1,23,-1
 287 632 l 2,24,25
 240 655 240 655 222 672.5 c 128,-1,26
 204 690 204 690 204 713 c 128,-1,16
 204 736 204 736 220.5 750.5 c 128,-1,17
EndSplineSet
EndChar

StartChar: oacute
Encoding: 243 243 180
Width: 660
GlyphClass: 2
Flags: W
LayerCount: 2
Fore
SplineSet
65 250 m 128,-1,1
 65 362 65 362 138.5 438.5 c 128,-1,2
 212 515 212 515 330 515 c 128,-1,3
 448 515 448 515 521.5 438.5 c 128,-1,4
 595 362 595 362 595 250 c 128,-1,5
 595 138 595 138 521.5 61.5 c 128,-1,6
 448 -15 448 -15 330 -15 c 128,-1,7
 212 -15 212 -15 138.5 61.5 c 128,-1,0
 65 138 65 138 65 250 c 128,-1,1
220 250 m 128,-1,9
 220 152 220 152 248 89.5 c 128,-1,10
 276 27 276 27 331 27 c 128,-1,11
 386 27 386 27 414 89.5 c 128,-1,12
 442 152 442 152 442 250 c 128,-1,13
 442 348 442 348 414 410.5 c 128,-1,14
 386 473 386 473 331 473 c 128,-1,15
 276 473 276 473 248 410.5 c 128,-1,8
 220 348 220 348 220 250 c 128,-1,9
408.5 758 m 128,-1,17
 422 765 422 765 441.5 765 c 128,-1,18
 461 765 461 765 477.5 750.5 c 128,-1,19
 494 736 494 736 494 713 c 128,-1,20
 494 690 494 690 476 672.5 c 128,-1,21
 458 655 458 655 411 632 c 2,22,-1
 263 559 l 1,23,-1
 242 583 l 1,24,-1
 361 715 l 2,25,26
 378 734 378 734 386.5 742.5 c 128,-1,16
 395 751 395 751 408.5 758 c 128,-1,17
EndSplineSet
EndChar

StartChar: ocircumflex
Encoding: 244 244 181
Width: 660
GlyphClass: 2
Flags: W
LayerCount: 2
Fore
SplineSet
65 250 m 128,-1,1
 65 362 65 362 138.5 438.5 c 128,-1,2
 212 515 212 515 330 515 c 128,-1,3
 448 515 448 515 521.5 438.5 c 128,-1,4
 595 362 595 362 595 250 c 128,-1,5
 595 138 595 138 521.5 61.5 c 128,-1,6
 448 -15 448 -15 330 -15 c 128,-1,7
 212 -15 212 -15 138.5 61.5 c 128,-1,0
 65 138 65 138 65 250 c 128,-1,1
220 250 m 128,-1,9
 220 152 220 152 248 89.5 c 128,-1,10
 276 27 276 27 331 27 c 128,-1,11
 386 27 386 27 414 89.5 c 128,-1,12
 442 152 442 152 442 250 c 128,-1,13
 442 348 442 348 414 410.5 c 128,-1,14
 386 473 386 473 331 473 c 128,-1,15
 276 473 276 473 248 410.5 c 128,-1,8
 220 348 220 348 220 250 c 128,-1,9
330 765 m 128,-1,17
 360 765 360 765 388 727 c 2,18,-1
 496 583 l 1,19,-1
 475 559 l 1,20,-1
 334 654 l 1,21,-1
 326 654 l 1,22,-1
 185 559 l 1,23,-1
 164 583 l 1,24,-1
 272 727 l 2,25,16
 300 765 300 765 330 765 c 128,-1,17
EndSplineSet
EndChar

StartChar: otilde
Encoding: 245 245 182
Width: 660
GlyphClass: 2
Flags: W
LayerCount: 2
Fore
SplineSet
65 250 m 128,-1,1
 65 362 65 362 138.5 438.5 c 128,-1,2
 212 515 212 515 330 515 c 128,-1,3
 448 515 448 515 521.5 438.5 c 128,-1,4
 595 362 595 362 595 250 c 128,-1,5
 595 138 595 138 521.5 61.5 c 128,-1,6
 448 -15 448 -15 330 -15 c 128,-1,7
 212 -15 212 -15 138.5 61.5 c 128,-1,0
 65 138 65 138 65 250 c 128,-1,1
220 250 m 128,-1,9
 220 152 220 152 248 89.5 c 128,-1,10
 276 27 276 27 331 27 c 128,-1,11
 386 27 386 27 414 89.5 c 128,-1,12
 442 152 442 152 442 250 c 128,-1,13
 442 348 442 348 414 410.5 c 128,-1,14
 386 473 386 473 331 473 c 128,-1,15
 276 473 276 473 248 410.5 c 128,-1,8
 220 348 220 348 220 250 c 128,-1,9
442 609 m 1,16,-1
 442 624 l 2,17,18
 442 663 442 663 414 663 c 0,19,20
 402 663 402 663 391 656 c 2,21,-1
 306 608 l 2,22,23
 274 589 274 589 246 589 c 128,-1,24
 218 589 218 589 195.5 615 c 128,-1,25
 173 641 173 641 173 675.5 c 128,-1,26
 173 710 173 710 181 742 c 1,27,-1
 217 742 l 1,28,-1
 217 727 l 2,29,30
 217 688 217 688 245 688 c 0,31,32
 257 688 257 688 268 695 c 2,33,-1
 353 743 l 2,34,35
 385 762 385 762 413 762 c 128,-1,36
 441 762 441 762 463.5 736 c 128,-1,37
 486 710 486 710 486 675.5 c 128,-1,38
 486 641 486 641 478 609 c 1,39,-1
 442 609 l 1,16,-1
EndSplineSet
EndChar

StartChar: odieresis
Encoding: 246 246 183
Width: 660
GlyphClass: 2
Flags: W
LayerCount: 2
Fore
SplineSet
65 250 m 128,-1,1
 65 362 65 362 138.5 438.5 c 128,-1,2
 212 515 212 515 330 515 c 128,-1,3
 448 515 448 515 521.5 438.5 c 128,-1,4
 595 362 595 362 595 250 c 128,-1,5
 595 138 595 138 521.5 61.5 c 128,-1,6
 448 -15 448 -15 330 -15 c 128,-1,7
 212 -15 212 -15 138.5 61.5 c 128,-1,0
 65 138 65 138 65 250 c 128,-1,1
220 250 m 128,-1,9
 220 152 220 152 248 89.5 c 128,-1,10
 276 27 276 27 331 27 c 128,-1,11
 386 27 386 27 414 89.5 c 128,-1,12
 442 152 442 152 442 250 c 128,-1,13
 442 348 442 348 414 410.5 c 128,-1,14
 386 473 386 473 331 473 c 128,-1,15
 276 473 276 473 248 410.5 c 128,-1,8
 220 348 220 348 220 250 c 128,-1,9
139 670 m 128,-1,17
 139 702 139 702 161.5 724 c 128,-1,18
 184 746 184 746 215 746 c 128,-1,19
 246 746 246 746 268.5 724 c 128,-1,20
 291 702 291 702 291 670 c 128,-1,21
 291 638 291 638 268.5 616 c 128,-1,22
 246 594 246 594 215 594 c 128,-1,23
 184 594 184 594 161.5 616 c 128,-1,16
 139 638 139 638 139 670 c 128,-1,17
369 670 m 128,-1,25
 369 702 369 702 391.5 724 c 128,-1,26
 414 746 414 746 445 746 c 128,-1,27
 476 746 476 746 498.5 724 c 128,-1,28
 521 702 521 702 521 670 c 128,-1,29
 521 638 521 638 498.5 616 c 128,-1,30
 476 594 476 594 445 594 c 128,-1,31
 414 594 414 594 391.5 616 c 128,-1,24
 369 638 369 638 369 670 c 128,-1,25
EndSplineSet
EndChar

StartChar: divide
Encoding: 247 247 184
Width: 560
GlyphClass: 2
Flags: W
LayerCount: 2
Fore
SplineSet
90 320 m 1,0,-1
 90 380 l 1,1,-1
 470 380 l 1,2,-1
 470 320 l 1,3,-1
 90 320 l 1,0,-1
218 522 m 128,-1,5
 218 548 218 548 236 565.5 c 128,-1,6
 254 583 254 583 280 583 c 128,-1,7
 306 583 306 583 323.5 565.5 c 128,-1,8
 341 548 341 548 341 522 c 128,-1,9
 341 496 341 496 323.5 478 c 128,-1,10
 306 460 306 460 280 460 c 128,-1,11
 254 460 254 460 236 478 c 128,-1,4
 218 496 218 496 218 522 c 128,-1,5
218 179 m 128,-1,13
 218 205 218 205 236 222.5 c 128,-1,14
 254 240 254 240 280 240 c 128,-1,15
 306 240 306 240 323.5 222 c 128,-1,16
 341 204 341 204 341 178.5 c 128,-1,17
 341 153 341 153 323.5 135 c 128,-1,18
 306 117 306 117 280 117 c 128,-1,19
 254 117 254 117 236 135 c 128,-1,12
 218 153 218 153 218 179 c 128,-1,13
EndSplineSet
EndChar

StartChar: oslash
Encoding: 248 248 185
Width: 660
GlyphClass: 2
Flags: W
LayerCount: 2
Fore
SplineSet
595 250 m 0,0,1
 595 138 595 138 521.5 61.5 c 128,-1,2
 448 -15 448 -15 330 -15 c 0,3,4
 314 -15 314 -15 284 -11 c 1,5,-1
 238 -181 l 1,6,-1
 189 -181 l 1,7,-1
 237 0 l 1,8,9
 157 26 157 26 111 94 c 128,-1,10
 65 162 65 162 65 250 c 0,11,12
 65 362 65 362 138.5 438.5 c 128,-1,13
 212 515 212 515 330 515 c 0,14,15
 346 515 346 515 376 511 c 1,16,-1
 421 678 l 1,17,-1
 471 678 l 1,18,-1
 422 500 l 1,19,20
 502 473 502 473 548.5 405 c 128,-1,21
 595 337 595 337 595 250 c 0,0,1
414 89.5 m 128,-1,23
 442 152 442 152 442 261.5 c 128,-1,24
 442 371 442 371 403 430 c 1,25,-1
 296 35 l 1,26,27
 314 27 314 27 331 27 c 0,28,22
 386 27 386 27 414 89.5 c 128,-1,23
248 410.5 m 128,-1,30
 220 348 220 348 220 239 c 128,-1,31
 220 130 220 130 257 72 c 1,32,-1
 363 466 l 1,33,34
 346 473 346 473 331 473 c 0,35,29
 276 473 276 473 248 410.5 c 128,-1,30
EndSplineSet
EndChar

StartChar: ugrave
Encoding: 249 249 186
Width: 707
GlyphClass: 2
Flags: W
LayerCount: 2
Fore
SplineSet
274 454 m 2,0,-1
 274 111 l 2,1,2
 274 80 274 80 293 63 c 128,-1,3
 312 46 312 46 346 46 c 128,-1,4
 380 46 380 46 412 74 c 128,-1,5
 444 102 444 102 444 147 c 2,6,-1
 444 500 l 1,7,-1
 594 500 l 1,8,-1
 594 111 l 2,9,10
 594 84 594 84 607 68.5 c 128,-1,11
 620 53 620 53 647 53 c 128,-1,12
 674 53 674 53 709 82 c 1,13,-1
 727 58 l 1,14,15
 647 -15 647 -15 564 -15 c 128,-1,16
 481 -15 481 -15 454 59 c 1,17,18
 415 18 415 18 373.5 1.5 c 128,-1,19
 332 -15 332 -15 267.5 -15 c 128,-1,20
 203 -15 203 -15 163.5 24.5 c 128,-1,21
 124 64 124 64 124 132 c 2,22,-1
 124 467 l 1,23,24
 69 453 69 453 40 418 c 1,25,-1
 13 449 l 1,26,27
 42 479 42 479 86.5 497 c 128,-1,28
 131 515 131 515 174.5 515 c 128,-1,29
 218 515 218 515 246 497.5 c 128,-1,30
 274 480 274 480 274 454 c 2,0,-1
223.5 750.5 m 128,-1,32
 240 765 240 765 259.5 765 c 128,-1,33
 279 765 279 765 292.5 758 c 128,-1,34
 306 751 306 751 314.5 742.5 c 128,-1,35
 323 734 323 734 340 715 c 2,36,-1
 459 583 l 1,37,-1
 438 559 l 1,38,-1
 290 632 l 2,39,40
 243 655 243 655 225 672.5 c 128,-1,41
 207 690 207 690 207 713 c 128,-1,31
 207 736 207 736 223.5 750.5 c 128,-1,32
EndSplineSet
EndChar

StartChar: uacute
Encoding: 250 250 187
Width: 707
GlyphClass: 2
Flags: W
LayerCount: 2
Fore
SplineSet
274 454 m 2,0,-1
 274 111 l 2,1,2
 274 80 274 80 293 63 c 128,-1,3
 312 46 312 46 346 46 c 128,-1,4
 380 46 380 46 412 74 c 128,-1,5
 444 102 444 102 444 147 c 2,6,-1
 444 500 l 1,7,-1
 594 500 l 1,8,-1
 594 111 l 2,9,10
 594 84 594 84 607 68.5 c 128,-1,11
 620 53 620 53 647 53 c 128,-1,12
 674 53 674 53 709 82 c 1,13,-1
 727 58 l 1,14,15
 647 -15 647 -15 564 -15 c 128,-1,16
 481 -15 481 -15 454 59 c 1,17,18
 415 18 415 18 373.5 1.5 c 128,-1,19
 332 -15 332 -15 267.5 -15 c 128,-1,20
 203 -15 203 -15 163.5 24.5 c 128,-1,21
 124 64 124 64 124 132 c 2,22,-1
 124 467 l 1,23,24
 69 453 69 453 40 418 c 1,25,-1
 13 449 l 1,26,27
 42 479 42 479 86.5 497 c 128,-1,28
 131 515 131 515 174.5 515 c 128,-1,29
 218 515 218 515 246 497.5 c 128,-1,30
 274 480 274 480 274 454 c 2,0,-1
431.5 758 m 128,-1,32
 445 765 445 765 464.5 765 c 128,-1,33
 484 765 484 765 500.5 750.5 c 128,-1,34
 517 736 517 736 517 713 c 128,-1,35
 517 690 517 690 499 672.5 c 128,-1,36
 481 655 481 655 434 632 c 2,37,-1
 286 559 l 1,38,-1
 265 583 l 1,39,-1
 384 715 l 2,40,41
 401 734 401 734 409.5 742.5 c 128,-1,31
 418 751 418 751 431.5 758 c 128,-1,32
EndSplineSet
EndChar

StartChar: ucircumflex
Encoding: 251 251 188
Width: 707
GlyphClass: 2
Flags: W
LayerCount: 2
Fore
SplineSet
274 454 m 2,0,-1
 274 111 l 2,1,2
 274 80 274 80 293 63 c 128,-1,3
 312 46 312 46 346 46 c 128,-1,4
 380 46 380 46 412 74 c 128,-1,5
 444 102 444 102 444 147 c 2,6,-1
 444 500 l 1,7,-1
 594 500 l 1,8,-1
 594 111 l 2,9,10
 594 84 594 84 607 68.5 c 128,-1,11
 620 53 620 53 647 53 c 128,-1,12
 674 53 674 53 709 82 c 1,13,-1
 727 58 l 1,14,15
 647 -15 647 -15 564 -15 c 128,-1,16
 481 -15 481 -15 454 59 c 1,17,18
 415 18 415 18 373.5 1.5 c 128,-1,19
 332 -15 332 -15 267.5 -15 c 128,-1,20
 203 -15 203 -15 163.5 24.5 c 128,-1,21
 124 64 124 64 124 132 c 2,22,-1
 124 467 l 1,23,24
 69 453 69 453 40 418 c 1,25,-1
 13 449 l 1,26,27
 42 479 42 479 86.5 497 c 128,-1,28
 131 515 131 515 174.5 515 c 128,-1,29
 218 515 218 515 246 497.5 c 128,-1,30
 274 480 274 480 274 454 c 2,0,-1
353 765 m 128,-1,32
 383 765 383 765 411 727 c 2,33,-1
 519 583 l 1,34,-1
 498 559 l 1,35,-1
 357 654 l 1,36,-1
 349 654 l 1,37,-1
 208 559 l 1,38,-1
 187 583 l 1,39,-1
 295 727 l 2,40,31
 323 765 323 765 353 765 c 128,-1,32
EndSplineSet
EndChar

StartChar: udieresis
Encoding: 252 252 189
Width: 707
GlyphClass: 2
Flags: W
LayerCount: 2
Fore
SplineSet
274 454 m 2,0,-1
 274 111 l 2,1,2
 274 80 274 80 293 63 c 128,-1,3
 312 46 312 46 346 46 c 128,-1,4
 380 46 380 46 412 74 c 128,-1,5
 444 102 444 102 444 147 c 2,6,-1
 444 500 l 1,7,-1
 594 500 l 1,8,-1
 594 111 l 2,9,10
 594 84 594 84 607 68.5 c 128,-1,11
 620 53 620 53 647 53 c 128,-1,12
 674 53 674 53 709 82 c 1,13,-1
 727 58 l 1,14,15
 647 -15 647 -15 564 -15 c 128,-1,16
 481 -15 481 -15 454 59 c 1,17,18
 415 18 415 18 373.5 1.5 c 128,-1,19
 332 -15 332 -15 267.5 -15 c 128,-1,20
 203 -15 203 -15 163.5 24.5 c 128,-1,21
 124 64 124 64 124 132 c 2,22,-1
 124 467 l 1,23,24
 69 453 69 453 40 418 c 1,25,-1
 13 449 l 1,26,27
 42 479 42 479 86.5 497 c 128,-1,28
 131 515 131 515 174.5 515 c 128,-1,29
 218 515 218 515 246 497.5 c 128,-1,30
 274 480 274 480 274 454 c 2,0,-1
162 670 m 128,-1,32
 162 702 162 702 184 724 c 128,-1,33
 206 746 206 746 238 746 c 128,-1,34
 270 746 270 746 292 724 c 128,-1,35
 314 702 314 702 314 670 c 128,-1,36
 314 638 314 638 292 616 c 128,-1,37
 270 594 270 594 238 594 c 128,-1,38
 206 594 206 594 184 616 c 128,-1,31
 162 638 162 638 162 670 c 128,-1,32
392 670 m 128,-1,40
 392 702 392 702 414 724 c 128,-1,41
 436 746 436 746 468 746 c 128,-1,42
 500 746 500 746 522 724 c 128,-1,43
 544 702 544 702 544 670 c 128,-1,44
 544 638 544 638 522 616 c 128,-1,45
 500 594 500 594 468 594 c 128,-1,46
 436 594 436 594 414 616 c 128,-1,39
 392 638 392 638 392 670 c 128,-1,40
EndSplineSet
EndChar

StartChar: yacute
Encoding: 253 253 190
Width: 627
GlyphClass: 2
Flags: W
LayerCount: 2
Fore
SplineSet
86.5 497 m 128,-1,1
 131 515 131 515 174.5 515 c 128,-1,2
 218 515 218 515 246 497.5 c 128,-1,3
 274 480 274 480 274 454 c 2,4,-1
 274 151 l 2,5,6
 274 119 274 119 294 102.5 c 128,-1,7
 314 86 314 86 344 86 c 0,8,9
 408 86 408 86 453.5 141 c 128,-1,10
 499 196 499 196 499 282 c 0,11,12
 499 330 499 330 480 383 c 1,13,14
 462 371 462 371 434 371 c 128,-1,15
 406 371 406 371 383.5 393.5 c 128,-1,16
 361 416 361 416 361 448 c 128,-1,17
 361 480 361 480 383.5 502.5 c 128,-1,18
 406 525 406 525 440 525 c 128,-1,19
 474 525 474 525 498.5 499.5 c 128,-1,20
 523 474 523 474 534 432 c 0,21,22
 552 359 552 359 552 270.5 c 128,-1,23
 552 182 552 182 531.5 93 c 128,-1,24
 511 4 511 4 477.5 -60 c 128,-1,25
 444 -124 444 -124 402 -171 c 0,26,27
 316 -265 316 -265 227 -265 c 0,28,29
 203 -265 203 -265 187.5 -254.5 c 128,-1,30
 172 -244 172 -244 152 -216 c 2,31,-1
 100 -144 l 1,32,-1
 126 -117 l 1,33,34
 174 -125 174 -125 210 -125 c 0,35,36
 322 -125 322 -125 393 -54 c 128,-1,37
 464 17 464 17 505 177 c 1,38,39
 443 5 443 5 277 5 c 0,40,41
 213 5 213 5 168.5 48.5 c 128,-1,42
 124 92 124 92 124 172 c 2,43,-1
 124 467 l 1,44,45
 69 453 69 453 40 418 c 1,46,-1
 13 449 l 1,47,0
 42 479 42 479 86.5 497 c 128,-1,1
372.5 758 m 128,-1,49
 386 765 386 765 405.5 765 c 128,-1,50
 425 765 425 765 441.5 750.5 c 128,-1,51
 458 736 458 736 458 713 c 128,-1,52
 458 690 458 690 440 672.5 c 128,-1,53
 422 655 422 655 375 632 c 2,54,-1
 227 559 l 1,55,-1
 206 583 l 1,56,-1
 325 715 l 2,57,58
 342 734 342 734 350.5 742.5 c 128,-1,48
 359 751 359 751 372.5 758 c 128,-1,49
EndSplineSet
EndChar

StartChar: thorn
Encoding: 254 254 191
Width: 709
GlyphClass: 2
Flags: W
LayerCount: 2
Fore
SplineSet
409 515 m 0,0,1
 524 515 524 515 584 440.5 c 128,-1,2
 644 366 644 366 644 250.5 c 128,-1,3
 644 135 644 135 579.5 60 c 128,-1,4
 515 -15 515 -15 399 -15 c 0,5,6
 313 -15 313 -15 262 62 c 1,7,-1
 262 -250 l 1,8,-1
 111 -250 l 1,9,-1
 111 718 l 1,10,11
 55 703 55 703 27 668 c 1,12,-1
 0 699 l 1,13,14
 29 729 29 729 73.5 747 c 128,-1,15
 118 765 118 765 161.5 765 c 128,-1,16
 205 765 205 765 233 747.5 c 128,-1,17
 261 730 261 730 261 704 c 2,18,-1
 262 436 l 1,19,20
 315 515 315 515 409 515 c 0,0,1
489 250 m 128,-1,22
 489 346 489 346 461 402 c 128,-1,23
 433 458 433 458 375.5 458 c 128,-1,24
 318 458 318 458 287.5 401.5 c 128,-1,25
 257 345 257 345 257 250 c 128,-1,26
 257 155 257 155 287.5 98.5 c 128,-1,27
 318 42 318 42 375.5 42 c 128,-1,28
 433 42 433 42 461 98 c 128,-1,21
 489 154 489 154 489 250 c 128,-1,22
EndSplineSet
EndChar

StartChar: ydieresis
Encoding: 255 255 192
Width: 627
GlyphClass: 2
Flags: W
LayerCount: 2
Fore
SplineSet
86.5 497 m 128,-1,1
 131 515 131 515 174.5 515 c 128,-1,2
 218 515 218 515 246 497.5 c 128,-1,3
 274 480 274 480 274 454 c 2,4,-1
 274 151 l 2,5,6
 274 119 274 119 294 102.5 c 128,-1,7
 314 86 314 86 344 86 c 0,8,9
 408 86 408 86 453.5 141 c 128,-1,10
 499 196 499 196 499 282 c 0,11,12
 499 330 499 330 480 383 c 1,13,14
 462 371 462 371 434 371 c 128,-1,15
 406 371 406 371 383.5 393.5 c 128,-1,16
 361 416 361 416 361 448 c 128,-1,17
 361 480 361 480 383.5 502.5 c 128,-1,18
 406 525 406 525 440 525 c 128,-1,19
 474 525 474 525 498.5 499.5 c 128,-1,20
 523 474 523 474 534 432 c 0,21,22
 552 359 552 359 552 270.5 c 128,-1,23
 552 182 552 182 531.5 93 c 128,-1,24
 511 4 511 4 477.5 -60 c 128,-1,25
 444 -124 444 -124 402 -171 c 0,26,27
 316 -265 316 -265 227 -265 c 0,28,29
 203 -265 203 -265 187.5 -254.5 c 128,-1,30
 172 -244 172 -244 152 -216 c 2,31,-1
 100 -144 l 1,32,-1
 126 -117 l 1,33,34
 174 -125 174 -125 210 -125 c 0,35,36
 322 -125 322 -125 393 -54 c 128,-1,37
 464 17 464 17 505 177 c 1,38,39
 443 5 443 5 277 5 c 0,40,41
 213 5 213 5 168.5 48.5 c 128,-1,42
 124 92 124 92 124 172 c 2,43,-1
 124 467 l 1,44,45
 69 453 69 453 40 418 c 1,46,-1
 13 449 l 1,47,0
 42 479 42 479 86.5 497 c 128,-1,1
121 670 m 128,-1,49
 121 702 121 702 143.5 724 c 128,-1,50
 166 746 166 746 197 746 c 128,-1,51
 228 746 228 746 250.5 724 c 128,-1,52
 273 702 273 702 273 670 c 128,-1,53
 273 638 273 638 250.5 616 c 128,-1,54
 228 594 228 594 197 594 c 128,-1,55
 166 594 166 594 143.5 616 c 128,-1,48
 121 638 121 638 121 670 c 128,-1,49
351 670 m 128,-1,57
 351 702 351 702 373.5 724 c 128,-1,58
 396 746 396 746 427 746 c 128,-1,59
 458 746 458 746 480.5 724 c 128,-1,60
 503 702 503 702 503 670 c 128,-1,61
 503 638 503 638 480.5 616 c 128,-1,62
 458 594 458 594 427 594 c 128,-1,63
 396 594 396 594 373.5 616 c 128,-1,56
 351 638 351 638 351 670 c 128,-1,57
EndSplineSet
EndChar

StartChar: Amacron
Encoding: 256 256 193
Width: 656
GlyphClass: 2
Flags: W
LayerCount: 2
Fore
SplineSet
169 660 m 1,0,-1
 169 700 l 1,1,-1
 407 700 l 1,2,-1
 606 40 l 1,3,-1
 656 40 l 1,4,-1
 656 0 l 1,5,-1
 398 0 l 1,6,-1
 398 40 l 1,7,-1
 456 40 l 1,8,-1
 419 163 l 1,9,-1
 147 163 l 1,10,-1
 111 40 l 1,11,-1
 169 40 l 1,12,-1
 169 0 l 1,13,-1
 0 0 l 1,14,-1
 0 40 l 1,15,-1
 50 40 l 1,16,-1
 237 660 l 1,17,-1
 169 660 l 1,0,-1
282 617 m 1,18,-1
 161 208 l 1,19,-1
 405 208 l 1,20,-1
 282 617 l 1,18,-1
181 900 m 1,21,-1
 475 900 l 1,22,-1
 475 812 l 1,23,-1
 181 812 l 1,24,-1
 181 900 l 1,21,-1
EndSplineSet
EndChar

StartChar: amacron
Encoding: 257 257 194
Width: 710
GlyphClass: 2
Flags: W
LayerCount: 2
Fore
SplineSet
597 500 m 1,0,-1
 597 111 l 2,1,2
 597 84 597 84 610 68.5 c 128,-1,3
 623 53 623 53 650 53 c 128,-1,4
 677 53 677 53 712 82 c 1,5,-1
 730 58 l 1,6,7
 650 -15 650 -15 570 -15 c 0,8,9
 475 -15 475 -15 453 74 c 1,10,11
 401 -15 401 -15 300 -15 c 0,12,13
 185 -15 185 -15 125 59.5 c 128,-1,14
 65 134 65 134 65 249.5 c 128,-1,15
 65 365 65 365 129.5 440 c 128,-1,16
 194 515 194 515 310 515 c 0,17,18
 399 515 399 515 447 444 c 1,19,-1
 447 500 l 1,20,-1
 597 500 l 1,0,-1
220 250 m 128,-1,22
 220 154 220 154 248 98 c 128,-1,23
 276 42 276 42 333.5 42 c 128,-1,24
 391 42 391 42 421.5 98.5 c 128,-1,25
 452 155 452 155 452 250 c 128,-1,26
 452 345 452 345 421.5 401.5 c 128,-1,27
 391 458 391 458 333.5 458 c 128,-1,28
 276 458 276 458 248 402 c 128,-1,21
 220 346 220 346 220 250 c 128,-1,22
208 700 m 1,29,-1
 502 700 l 1,30,-1
 502 612 l 1,31,-1
 208 612 l 1,32,-1
 208 700 l 1,29,-1
EndSplineSet
EndChar

StartChar: Abreve
Encoding: 258 258 195
Width: 656
GlyphClass: 2
Flags: W
LayerCount: 2
Fore
SplineSet
169 660 m 1,0,-1
 169 700 l 1,1,-1
 407 700 l 1,2,-1
 606 40 l 1,3,-1
 656 40 l 1,4,-1
 656 0 l 1,5,-1
 398 0 l 1,6,-1
 398 40 l 1,7,-1
 456 40 l 1,8,-1
 419 163 l 1,9,-1
 147 163 l 1,10,-1
 111 40 l 1,11,-1
 169 40 l 1,12,-1
 169 0 l 1,13,-1
 0 0 l 1,14,-1
 0 40 l 1,15,-1
 50 40 l 1,16,-1
 237 660 l 1,17,-1
 169 660 l 1,0,-1
282 617 m 1,18,-1
 161 208 l 1,19,-1
 405 208 l 1,20,-1
 282 617 l 1,18,-1
288 878 m 0,21,22
 307 870 307 870 330.5 870 c 128,-1,23
 354 870 354 870 380.5 888 c 128,-1,24
 407 906 407 906 419 920.5 c 128,-1,25
 431 935 431 935 449 960 c 1,26,-1
 494 931 l 1,27,28
 444 840 444 840 407 804.5 c 128,-1,29
 370 769 370 769 328 769 c 128,-1,30
 286 769 286 769 249 804.5 c 128,-1,31
 212 840 212 840 162 931 c 1,32,-1
 206 960 l 1,33,34
 255 893 255 893 288 878 c 0,21,22
EndSplineSet
EndChar

StartChar: abreve
Encoding: 259 259 196
Width: 710
GlyphClass: 2
Flags: W
LayerCount: 2
Fore
SplineSet
597 500 m 1,0,-1
 597 111 l 2,1,2
 597 84 597 84 610 68.5 c 128,-1,3
 623 53 623 53 650 53 c 128,-1,4
 677 53 677 53 712 82 c 1,5,-1
 730 58 l 1,6,7
 650 -15 650 -15 570 -15 c 0,8,9
 475 -15 475 -15 453 74 c 1,10,11
 401 -15 401 -15 300 -15 c 0,12,13
 185 -15 185 -15 125 59.5 c 128,-1,14
 65 134 65 134 65 249.5 c 128,-1,15
 65 365 65 365 129.5 440 c 128,-1,16
 194 515 194 515 310 515 c 0,17,18
 399 515 399 515 447 444 c 1,19,-1
 447 500 l 1,20,-1
 597 500 l 1,0,-1
220 250 m 128,-1,22
 220 154 220 154 248 98 c 128,-1,23
 276 42 276 42 333.5 42 c 128,-1,24
 391 42 391 42 421.5 98.5 c 128,-1,25
 452 155 452 155 452 250 c 128,-1,26
 452 345 452 345 421.5 401.5 c 128,-1,27
 391 458 391 458 333.5 458 c 128,-1,28
 276 458 276 458 248 402 c 128,-1,21
 220 346 220 346 220 250 c 128,-1,22
315 678 m 0,29,30
 334 670 334 670 357.5 670 c 128,-1,31
 381 670 381 670 407.5 688 c 128,-1,32
 434 706 434 706 446 720.5 c 128,-1,33
 458 735 458 735 476 760 c 1,34,-1
 521 731 l 1,35,36
 471 640 471 640 434 604.5 c 128,-1,37
 397 569 397 569 355 569 c 128,-1,38
 313 569 313 569 276 604.5 c 128,-1,39
 239 640 239 640 189 731 c 1,40,-1
 233 760 l 1,41,42
 282 693 282 693 315 678 c 0,29,30
EndSplineSet
EndChar

StartChar: Aogonek
Encoding: 260 260 197
Width: 656
GlyphClass: 2
Flags: W
LayerCount: 2
Fore
SplineSet
398 0 m 1,0,-1
 398 40 l 1,1,-1
 456 40 l 1,2,-1
 419 163 l 1,3,-1
 147 163 l 1,4,-1
 111 40 l 1,5,-1
 169 40 l 1,6,-1
 169 0 l 1,7,-1
 0 0 l 1,8,-1
 0 40 l 1,9,-1
 50 40 l 1,10,-1
 237 660 l 1,11,-1
 169 660 l 1,12,-1
 169 700 l 1,13,-1
 407 700 l 1,14,-1
 606 40 l 1,15,-1
 656 40 l 1,16,-1
 656 0 l 1,17,-1
 608 0 l 1,18,-1
 600 -8 l 2,19,20
 562 -46 562 -46 550 -70.5 c 128,-1,21
 538 -95 538 -95 538 -122.5 c 128,-1,22
 538 -150 538 -150 554.5 -164.5 c 128,-1,23
 571 -179 571 -179 602 -179 c 128,-1,24
 633 -179 633 -179 663 -151 c 1,25,-1
 680 -180 l 1,26,27
 632 -238 632 -238 556 -238 c 0,28,29
 509 -238 509 -238 478 -214.5 c 128,-1,30
 447 -191 447 -191 447 -143 c 0,31,32
 447 -119 447 -119 462 -94.5 c 128,-1,33
 477 -70 477 -70 492 -56.5 c 128,-1,34
 507 -43 507 -43 534 -21 c 2,35,-1
 560 0 l 1,36,-1
 398 0 l 1,0,-1
282 617 m 1,37,-1
 161 208 l 1,38,-1
 405 208 l 1,39,-1
 282 617 l 1,37,-1
EndSplineSet
EndChar

StartChar: aogonek
Encoding: 261 261 198
Width: 710
GlyphClass: 2
Flags: W
LayerCount: 2
Fore
SplineSet
597 500 m 1,0,-1
 597 111 l 2,1,2
 597 84 597 84 610 68.5 c 128,-1,3
 623 53 623 53 650 53 c 128,-1,4
 677 53 677 53 712 82 c 1,5,-1
 730 58 l 1,6,-1
 664 -8 l 2,7,8
 626 -46 626 -46 614 -70.5 c 128,-1,9
 602 -95 602 -95 602 -122.5 c 128,-1,10
 602 -150 602 -150 618.5 -164.5 c 128,-1,11
 635 -179 635 -179 666 -179 c 128,-1,12
 697 -179 697 -179 727 -151 c 1,13,-1
 744 -180 l 1,14,15
 696 -238 696 -238 620 -238 c 0,16,17
 573 -238 573 -238 542 -214.5 c 128,-1,18
 511 -191 511 -191 511 -149.5 c 128,-1,19
 511 -108 511 -108 531.5 -79.5 c 128,-1,20
 552 -51 552 -51 588 -21 c 1,21,-1
 597 -13 l 1,22,23
 579 -15 579 -15 570 -15 c 0,24,25
 475 -15 475 -15 453 74 c 1,26,27
 401 -15 401 -15 300 -15 c 0,28,29
 185 -15 185 -15 125 59.5 c 128,-1,30
 65 134 65 134 65 249.5 c 128,-1,31
 65 365 65 365 129.5 440 c 128,-1,32
 194 515 194 515 310 515 c 0,33,34
 399 515 399 515 447 444 c 1,35,-1
 447 500 l 1,36,-1
 597 500 l 1,0,-1
220 250 m 128,-1,38
 220 154 220 154 248 98 c 128,-1,39
 276 42 276 42 333.5 42 c 128,-1,40
 391 42 391 42 421.5 98.5 c 128,-1,41
 452 155 452 155 452 250 c 128,-1,42
 452 345 452 345 421.5 401.5 c 128,-1,43
 391 458 391 458 333.5 458 c 128,-1,44
 276 458 276 458 248 402 c 128,-1,37
 220 346 220 346 220 250 c 128,-1,38
EndSplineSet
EndChar

StartChar: Cacute
Encoding: 262 262 199
Width: 650
GlyphClass: 2
Flags: W
LayerCount: 2
Fore
SplineSet
382 668 m 0,0,1
 295 668 295 668 250 578.5 c 128,-1,2
 205 489 205 489 205 355 c 128,-1,3
 205 221 205 221 252.5 136 c 128,-1,4
 300 51 300 51 389 51 c 0,5,6
 439 51 439 51 481 72 c 128,-1,7
 523 93 523 93 544.5 116 c 128,-1,8
 566 139 566 139 590 174 c 1,9,-1
 625 149 l 1,10,11
 577 72 577 72 517.5 28.5 c 128,-1,12
 458 -15 458 -15 365 -15 c 0,13,14
 226 -15 226 -15 138 90 c 128,-1,15
 50 195 50 195 50 351 c 128,-1,16
 50 507 50 507 138 611 c 128,-1,17
 226 715 226 715 382 715 c 0,18,19
 463 715 463 715 538 683 c 128,-1,20
 613 651 613 651 613 607 c 0,21,22
 613 590 613 590 602 568 c 2,23,-1
 542 452 l 1,24,-1
 506 463 l 1,25,-1
 515 525 l 2,26,27
 519 549 519 549 519 571 c 0,28,29
 519 610 519 610 481 639 c 128,-1,30
 443 668 443 668 382 668 c 0,0,1
415.5 958 m 128,-1,32
 429 965 429 965 448.5 965 c 128,-1,33
 468 965 468 965 484.5 950.5 c 128,-1,34
 501 936 501 936 501 913 c 128,-1,35
 501 890 501 890 483 872.5 c 128,-1,36
 465 855 465 855 418 832 c 2,37,-1
 270 759 l 1,38,-1
 249 783 l 1,39,-1
 368 915 l 2,40,41
 385 934 385 934 393.5 942.5 c 128,-1,31
 402 951 402 951 415.5 958 c 128,-1,32
EndSplineSet
EndChar

StartChar: cacute
Encoding: 263 263 200
Width: 562
GlyphClass: 2
Flags: W
LayerCount: 2
Fore
SplineSet
331 -15 m 0,0,1
 212 -15 212 -15 138.5 61.5 c 128,-1,2
 65 138 65 138 65 250 c 128,-1,3
 65 362 65 362 138.5 438.5 c 128,-1,4
 212 515 212 515 330 515 c 0,5,6
 396 515 396 515 459 477 c 128,-1,7
 522 439 522 439 522 374 c 0,8,9
 522 341 522 341 498.5 317.5 c 128,-1,10
 475 294 475 294 442 294 c 128,-1,11
 409 294 409 294 385.5 317.5 c 128,-1,12
 362 341 362 341 362 371 c 128,-1,13
 362 401 362 401 378 422 c 128,-1,14
 394 443 394 443 420 451 c 1,15,16
 392 463 392 463 356 463 c 0,17,18
 289 463 289 463 254.5 403.5 c 128,-1,19
 220 344 220 344 220 252.5 c 128,-1,20
 220 161 220 161 254.5 104 c 128,-1,21
 289 47 289 47 356 47 c 0,22,23
 446 47 446 47 509 122 c 1,24,-1
 537 104 l 1,25,26
 504 50 504 50 450.5 17.5 c 128,-1,27
 397 -15 397 -15 331 -15 c 0,0,1
371.5 758 m 128,-1,29
 385 765 385 765 404.5 765 c 128,-1,30
 424 765 424 765 440.5 750.5 c 128,-1,31
 457 736 457 736 457 713 c 128,-1,32
 457 690 457 690 439 672.5 c 128,-1,33
 421 655 421 655 374 632 c 2,34,-1
 226 559 l 1,35,-1
 205 583 l 1,36,-1
 324 715 l 2,37,38
 341 734 341 734 349.5 742.5 c 128,-1,28
 358 751 358 751 371.5 758 c 128,-1,29
EndSplineSet
EndChar

StartChar: Ccircumflex
Encoding: 264 264 201
Width: 650
GlyphClass: 2
Flags: W
LayerCount: 2
Fore
SplineSet
382 668 m 0,0,1
 295 668 295 668 250 578.5 c 128,-1,2
 205 489 205 489 205 355 c 128,-1,3
 205 221 205 221 252.5 136 c 128,-1,4
 300 51 300 51 389 51 c 0,5,6
 439 51 439 51 481 72 c 128,-1,7
 523 93 523 93 544.5 116 c 128,-1,8
 566 139 566 139 590 174 c 1,9,-1
 625 149 l 1,10,11
 577 72 577 72 517.5 28.5 c 128,-1,12
 458 -15 458 -15 365 -15 c 0,13,14
 226 -15 226 -15 138 90 c 128,-1,15
 50 195 50 195 50 351 c 128,-1,16
 50 507 50 507 138 611 c 128,-1,17
 226 715 226 715 382 715 c 0,18,19
 463 715 463 715 538 683 c 128,-1,20
 613 651 613 651 613 607 c 0,21,22
 613 590 613 590 602 568 c 2,23,-1
 542 452 l 1,24,-1
 506 463 l 1,25,-1
 515 525 l 2,26,27
 519 549 519 549 519 571 c 0,28,29
 519 610 519 610 481 639 c 128,-1,30
 443 668 443 668 382 668 c 0,0,1
375 965 m 128,-1,32
 405 965 405 965 433 927 c 2,33,-1
 541 783 l 1,34,-1
 520 759 l 1,35,-1
 379 854 l 1,36,-1
 371 854 l 1,37,-1
 230 759 l 1,38,-1
 209 783 l 1,39,-1
 317 927 l 2,40,31
 345 965 345 965 375 965 c 128,-1,32
EndSplineSet
EndChar

StartChar: ccircumflex
Encoding: 265 265 202
Width: 562
GlyphClass: 2
Flags: W
LayerCount: 2
Fore
SplineSet
331 -15 m 0,0,1
 212 -15 212 -15 138.5 61.5 c 128,-1,2
 65 138 65 138 65 250 c 128,-1,3
 65 362 65 362 138.5 438.5 c 128,-1,4
 212 515 212 515 330 515 c 0,5,6
 396 515 396 515 459 477 c 128,-1,7
 522 439 522 439 522 374 c 0,8,9
 522 341 522 341 498.5 317.5 c 128,-1,10
 475 294 475 294 442 294 c 128,-1,11
 409 294 409 294 385.5 317.5 c 128,-1,12
 362 341 362 341 362 371 c 128,-1,13
 362 401 362 401 378 422 c 128,-1,14
 394 443 394 443 420 451 c 1,15,16
 392 463 392 463 356 463 c 0,17,18
 289 463 289 463 254.5 403.5 c 128,-1,19
 220 344 220 344 220 252.5 c 128,-1,20
 220 161 220 161 254.5 104 c 128,-1,21
 289 47 289 47 356 47 c 0,22,23
 446 47 446 47 509 122 c 1,24,-1
 537 104 l 1,25,26
 504 50 504 50 450.5 17.5 c 128,-1,27
 397 -15 397 -15 331 -15 c 0,0,1
311 765 m 128,-1,29
 341 765 341 765 369 727 c 2,30,-1
 477 583 l 1,31,-1
 456 559 l 1,32,-1
 315 654 l 1,33,-1
 307 654 l 1,34,-1
 166 559 l 1,35,-1
 145 583 l 1,36,-1
 253 727 l 2,37,28
 281 765 281 765 311 765 c 128,-1,29
EndSplineSet
EndChar

StartChar: Cdotaccent
Encoding: 266 266 203
Width: 650
GlyphClass: 2
Flags: W
LayerCount: 2
Fore
SplineSet
382 668 m 0,0,1
 295 668 295 668 250 578.5 c 128,-1,2
 205 489 205 489 205 355 c 128,-1,3
 205 221 205 221 252.5 136 c 128,-1,4
 300 51 300 51 389 51 c 0,5,6
 439 51 439 51 481 72 c 128,-1,7
 523 93 523 93 544.5 116 c 128,-1,8
 566 139 566 139 590 174 c 1,9,-1
 625 149 l 1,10,11
 577 72 577 72 517.5 28.5 c 128,-1,12
 458 -15 458 -15 365 -15 c 0,13,14
 226 -15 226 -15 138 90 c 128,-1,15
 50 195 50 195 50 351 c 128,-1,16
 50 507 50 507 138 611 c 128,-1,17
 226 715 226 715 382 715 c 0,18,19
 463 715 463 715 538 683 c 128,-1,20
 613 651 613 651 613 607 c 0,21,22
 613 590 613 590 602 568 c 2,23,-1
 542 452 l 1,24,-1
 506 463 l 1,25,-1
 515 525 l 2,26,27
 519 549 519 549 519 571 c 0,28,29
 519 610 519 610 481 639 c 128,-1,30
 443 668 443 668 382 668 c 0,0,1
295 870 m 128,-1,32
 295 903 295 903 318.5 926.5 c 128,-1,33
 342 950 342 950 375 950 c 128,-1,34
 408 950 408 950 431.5 926.5 c 128,-1,35
 455 903 455 903 455 870 c 128,-1,36
 455 837 455 837 431.5 813.5 c 128,-1,37
 408 790 408 790 375 790 c 128,-1,38
 342 790 342 790 318.5 813.5 c 128,-1,31
 295 837 295 837 295 870 c 128,-1,32
EndSplineSet
EndChar

StartChar: cdotaccent
Encoding: 267 267 204
Width: 562
GlyphClass: 2
Flags: W
LayerCount: 2
Fore
SplineSet
331 -15 m 0,0,1
 212 -15 212 -15 138.5 61.5 c 128,-1,2
 65 138 65 138 65 250 c 128,-1,3
 65 362 65 362 138.5 438.5 c 128,-1,4
 212 515 212 515 330 515 c 0,5,6
 396 515 396 515 459 477 c 128,-1,7
 522 439 522 439 522 374 c 0,8,9
 522 341 522 341 498.5 317.5 c 128,-1,10
 475 294 475 294 442 294 c 128,-1,11
 409 294 409 294 385.5 317.5 c 128,-1,12
 362 341 362 341 362 371 c 128,-1,13
 362 401 362 401 378 422 c 128,-1,14
 394 443 394 443 420 451 c 1,15,16
 392 463 392 463 356 463 c 0,17,18
 289 463 289 463 254.5 403.5 c 128,-1,19
 220 344 220 344 220 252.5 c 128,-1,20
 220 161 220 161 254.5 104 c 128,-1,21
 289 47 289 47 356 47 c 0,22,23
 446 47 446 47 509 122 c 1,24,-1
 537 104 l 1,25,26
 504 50 504 50 450.5 17.5 c 128,-1,27
 397 -15 397 -15 331 -15 c 0,0,1
251 670 m 128,-1,29
 251 703 251 703 274.5 726.5 c 128,-1,30
 298 750 298 750 331 750 c 128,-1,31
 364 750 364 750 387.5 726.5 c 128,-1,32
 411 703 411 703 411 670 c 128,-1,33
 411 637 411 637 387.5 613.5 c 128,-1,34
 364 590 364 590 331 590 c 128,-1,35
 298 590 298 590 274.5 613.5 c 128,-1,28
 251 637 251 637 251 670 c 128,-1,29
EndSplineSet
EndChar

StartChar: Ccaron
Encoding: 268 268 205
Width: 650
GlyphClass: 2
Flags: W
LayerCount: 2
Fore
SplineSet
382 668 m 0,0,1
 295 668 295 668 250 578.5 c 128,-1,2
 205 489 205 489 205 355 c 128,-1,3
 205 221 205 221 252.5 136 c 128,-1,4
 300 51 300 51 389 51 c 0,5,6
 439 51 439 51 481 72 c 128,-1,7
 523 93 523 93 544.5 116 c 128,-1,8
 566 139 566 139 590 174 c 1,9,-1
 625 149 l 1,10,11
 577 72 577 72 517.5 28.5 c 128,-1,12
 458 -15 458 -15 365 -15 c 0,13,14
 226 -15 226 -15 138 90 c 128,-1,15
 50 195 50 195 50 351 c 128,-1,16
 50 507 50 507 138 611 c 128,-1,17
 226 715 226 715 382 715 c 0,18,19
 463 715 463 715 538 683 c 128,-1,20
 613 651 613 651 613 607 c 0,21,22
 613 590 613 590 602 568 c 2,23,-1
 542 452 l 1,24,-1
 506 463 l 1,25,-1
 515 525 l 2,26,27
 519 549 519 549 519 571 c 0,28,29
 519 610 519 610 481 639 c 128,-1,30
 443 668 443 668 382 668 c 0,0,1
375 759 m 128,-1,32
 345 759 345 759 317 797 c 2,33,-1
 209 941 l 1,34,-1
 230 965 l 1,35,-1
 371 870 l 1,36,-1
 379 870 l 1,37,-1
 520 965 l 1,38,-1
 541 941 l 1,39,-1
 433 797 l 2,40,31
 405 759 405 759 375 759 c 128,-1,32
EndSplineSet
EndChar

StartChar: ccaron
Encoding: 269 269 206
Width: 562
GlyphClass: 2
Flags: W
LayerCount: 2
Fore
SplineSet
331 -15 m 0,0,1
 212 -15 212 -15 138.5 61.5 c 128,-1,2
 65 138 65 138 65 250 c 128,-1,3
 65 362 65 362 138.5 438.5 c 128,-1,4
 212 515 212 515 330 515 c 0,5,6
 396 515 396 515 459 477 c 128,-1,7
 522 439 522 439 522 374 c 0,8,9
 522 341 522 341 498.5 317.5 c 128,-1,10
 475 294 475 294 442 294 c 128,-1,11
 409 294 409 294 385.5 317.5 c 128,-1,12
 362 341 362 341 362 371 c 128,-1,13
 362 401 362 401 378 422 c 128,-1,14
 394 443 394 443 420 451 c 1,15,16
 392 463 392 463 356 463 c 0,17,18
 289 463 289 463 254.5 403.5 c 128,-1,19
 220 344 220 344 220 252.5 c 128,-1,20
 220 161 220 161 254.5 104 c 128,-1,21
 289 47 289 47 356 47 c 0,22,23
 446 47 446 47 509 122 c 1,24,-1
 537 104 l 1,25,26
 504 50 504 50 450.5 17.5 c 128,-1,27
 397 -15 397 -15 331 -15 c 0,0,1
331 559 m 128,-1,29
 301 559 301 559 273 597 c 2,30,-1
 165 741 l 1,31,-1
 186 765 l 1,32,-1
 327 670 l 1,33,-1
 335 670 l 1,34,-1
 476 765 l 1,35,-1
 497 741 l 1,36,-1
 389 597 l 2,37,28
 361 559 361 559 331 559 c 128,-1,29
EndSplineSet
EndChar

StartChar: Dcaron
Encoding: 270 270 207
Width: 782
GlyphClass: 2
Flags: W
LayerCount: 2
Fore
SplineSet
70 700 m 1,0,-1
 340 700 l 2,1,2
 520 700 520 700 631 602.5 c 128,-1,3
 742 505 742 505 742 350.5 c 128,-1,4
 742 196 742 196 631 98 c 128,-1,5
 520 0 520 0 340 0 c 2,6,-1
 70 0 l 1,7,-1
 70 40 l 1,8,-1
 150 40 l 1,9,-1
 150 660 l 1,10,-1
 70 660 l 1,11,-1
 70 700 l 1,0,-1
340 660 m 2,12,-1
 300 660 l 1,13,-1
 300 40 l 1,14,-1
 340 40 l 2,15,16
 456 40 456 40 521.5 123.5 c 128,-1,17
 587 207 587 207 587 350 c 128,-1,18
 587 493 587 493 521.5 576.5 c 128,-1,19
 456 660 456 660 340 660 c 2,12,-1
391 759 m 128,-1,21
 361 759 361 759 333 797 c 2,22,-1
 225 941 l 1,23,-1
 246 965 l 1,24,-1
 387 870 l 1,25,-1
 395 870 l 1,26,-1
 536 965 l 1,27,-1
 557 941 l 1,28,-1
 449 797 l 2,29,20
 421 759 421 759 391 759 c 128,-1,21
EndSplineSet
EndChar

StartChar: dcaron
Encoding: 271 271 208
Width: 710
GlyphClass: 2
Flags: W
LayerCount: 2
Fore
SplineSet
597 704 m 2,0,-1
 597 111 l 2,1,2
 597 84 597 84 610 68.5 c 128,-1,3
 623 53 623 53 647.5 53 c 128,-1,4
 672 53 672 53 707 82 c 1,5,-1
 730 58 l 1,6,7
 650 -15 650 -15 570 -15 c 0,8,9
 475 -15 475 -15 453 74 c 1,10,11
 401 -15 401 -15 300 -15 c 0,12,13
 185 -15 185 -15 125 59.5 c 128,-1,14
 65 134 65 134 65 249.5 c 128,-1,15
 65 365 65 365 129.5 440 c 128,-1,16
 194 515 194 515 310 515 c 0,17,18
 399 515 399 515 447 444 c 1,19,-1
 447 717 l 1,20,21
 392 703 392 703 363 668 c 1,22,-1
 336 699 l 1,23,24
 365 729 365 729 409.5 747 c 128,-1,25
 454 765 454 765 497.5 765 c 128,-1,26
 541 765 541 765 569 747.5 c 128,-1,27
 597 730 597 730 597 704 c 2,0,-1
220 250 m 128,-1,29
 220 154 220 154 248 98 c 128,-1,30
 276 42 276 42 333.5 42 c 128,-1,31
 391 42 391 42 421.5 98.5 c 128,-1,32
 452 155 452 155 452 250 c 128,-1,33
 452 345 452 345 421.5 401.5 c 128,-1,34
 391 458 391 458 333.5 458 c 128,-1,35
 276 458 276 458 248 402 c 128,-1,28
 220 346 220 346 220 250 c 128,-1,29
687.5 664.5 m 128,-1,37
 662 694 662 694 662 722.5 c 128,-1,38
 662 751 662 751 681.5 770.5 c 128,-1,39
 701 790 701 790 729.5 790 c 128,-1,40
 758 790 758 790 777 768 c 128,-1,41
 796 746 796 746 796 701 c 128,-1,42
 796 656 796 656 768.5 600.5 c 128,-1,43
 741 545 741 545 691 500 c 1,44,-1
 669 522 l 1,45,46
 713 573 713 573 713 612 c 0,47,36
 713 635 713 635 687.5 664.5 c 128,-1,37
EndSplineSet
EndChar

StartChar: Dcroat
Encoding: 272 272 209
Width: 782
GlyphClass: 2
Flags: W
LayerCount: 2
Fore
SplineSet
70 273 m 1,0,-1
 70 318 l 1,1,-1
 150 318 l 1,2,-1
 150 660 l 1,3,-1
 70 660 l 1,4,-1
 70 700 l 1,5,-1
 340 700 l 2,6,7
 520 700 520 700 631 602.5 c 128,-1,8
 742 505 742 505 742 350.5 c 128,-1,9
 742 196 742 196 631 98 c 128,-1,10
 520 0 520 0 340 0 c 2,11,-1
 70 0 l 1,12,-1
 70 40 l 1,13,-1
 150 40 l 1,14,-1
 150 273 l 1,15,-1
 70 273 l 1,0,-1
340 660 m 2,16,-1
 300 660 l 1,17,-1
 300 318 l 1,18,-1
 450 318 l 1,19,-1
 450 273 l 1,20,-1
 300 273 l 1,21,-1
 300 40 l 1,22,-1
 340 40 l 2,23,24
 456 40 456 40 521.5 123.5 c 128,-1,25
 587 207 587 207 587 350 c 128,-1,26
 587 493 587 493 521.5 576.5 c 128,-1,27
 456 660 456 660 340 660 c 2,16,-1
EndSplineSet
EndChar

StartChar: dcroat
Encoding: 273 273 210
Width: 710
GlyphClass: 2
Flags: W
LayerCount: 2
Fore
SplineSet
330 568 m 1,0,-1
 330 613 l 1,1,-1
 447 613 l 1,2,-1
 447 717 l 1,3,4
 392 703 392 703 363 668 c 1,5,-1
 336 699 l 1,6,7
 365 729 365 729 409.5 747 c 128,-1,8
 454 765 454 765 497.5 765 c 128,-1,9
 541 765 541 765 569 747.5 c 128,-1,10
 597 730 597 730 597 704 c 2,11,-1
 597 613 l 1,12,-1
 710 613 l 1,13,-1
 710 568 l 1,14,-1
 597 568 l 1,15,-1
 597 111 l 2,16,17
 597 84 597 84 610 68.5 c 128,-1,18
 623 53 623 53 647.5 53 c 128,-1,19
 672 53 672 53 707 82 c 1,20,-1
 730 58 l 1,21,22
 650 -15 650 -15 570 -15 c 0,23,24
 475 -15 475 -15 453 74 c 1,25,26
 401 -15 401 -15 300 -15 c 0,27,28
 185 -15 185 -15 125 59.5 c 128,-1,29
 65 134 65 134 65 249.5 c 128,-1,30
 65 365 65 365 129.5 440 c 128,-1,31
 194 515 194 515 310 515 c 0,32,33
 399 515 399 515 447 444 c 1,34,-1
 447 568 l 1,35,-1
 330 568 l 1,0,-1
220 250 m 128,-1,37
 220 154 220 154 248 98 c 128,-1,38
 276 42 276 42 333.5 42 c 128,-1,39
 391 42 391 42 421.5 98.5 c 128,-1,40
 452 155 452 155 452 250 c 128,-1,41
 452 345 452 345 421.5 401.5 c 128,-1,42
 391 458 391 458 333.5 458 c 128,-1,43
 276 458 276 458 248 402 c 128,-1,36
 220 346 220 346 220 250 c 128,-1,37
EndSplineSet
EndChar

StartChar: Emacron
Encoding: 274 274 211
Width: 630
GlyphClass: 2
Flags: W
LayerCount: 2
Fore
SplineSet
519 0 m 2,0,-1
 70 0 l 1,1,-1
 70 40 l 1,2,-1
 130 40 l 1,3,-1
 130 660 l 1,4,-1
 70 660 l 1,5,-1
 70 700 l 1,6,-1
 499 700 l 2,7,8
 521 700 521 700 531.5 698.5 c 128,-1,9
 542 697 542 697 551 687.5 c 128,-1,10
 560 678 560 678 560 658 c 1,11,-1
 533 490 l 1,12,-1
 494 490 l 1,13,-1
 474 589 l 2,14,15
 465 634 465 634 440.5 647 c 128,-1,16
 416 660 416 660 350 660 c 2,17,-1
 280 660 l 1,18,-1
 280 318 l 1,19,-1
 510 318 l 1,20,-1
 510 273 l 1,21,-1
 280 273 l 1,22,-1
 280 40 l 1,23,-1
 370 40 l 2,24,25
 435 40 435 40 459.5 53 c 128,-1,26
 484 66 484 66 494 111 c 2,27,-1
 514 200 l 1,28,-1
 553 200 l 1,29,-1
 580 42 l 1,30,31
 580 22 580 22 571 12.5 c 128,-1,32
 562 3 562 3 551.5 1.5 c 128,-1,33
 541 0 541 0 519 0 c 2,0,-1
188 900 m 1,34,-1
 482 900 l 1,35,-1
 482 812 l 1,36,-1
 188 812 l 1,37,-1
 188 900 l 1,34,-1
EndSplineSet
EndChar

StartChar: emacron
Encoding: 275 275 212
Width: 597
GlyphClass: 2
Flags: W
LayerCount: 2
Fore
SplineSet
374.5 280.5 m 128,-1,1
 410 324 410 324 410 368.5 c 128,-1,2
 410 413 410 413 390.5 437 c 128,-1,3
 371 461 371 461 331.5 461 c 128,-1,4
 292 461 292 461 256 405 c 128,-1,5
 220 349 220 349 220 255 c 128,-1,6
 220 161 220 161 254 104 c 128,-1,7
 288 47 288 47 351 47 c 0,8,9
 447 47 447 47 514 122 c 1,10,-1
 542 104 l 1,11,12
 508 50 508 50 452 17.5 c 128,-1,13
 396 -15 396 -15 326 -15 c 0,14,15
 207 -15 207 -15 136 63.5 c 128,-1,16
 65 142 65 142 65 253 c 128,-1,17
 65 364 65 364 140.5 439.5 c 128,-1,18
 216 515 216 515 350 515 c 0,19,20
 438 515 438 515 488 474 c 128,-1,21
 538 433 538 433 538 370 c 128,-1,22
 538 307 538 307 482.5 253.5 c 128,-1,23
 427 200 427 200 336 200 c 0,24,25
 305 200 305 200 276 207 c 1,26,-1
 274 231 l 1,27,0
 339 237 339 237 374.5 280.5 c 128,-1,1
181 700 m 1,28,-1
 475 700 l 1,29,-1
 475 612 l 1,30,-1
 181 612 l 1,31,-1
 181 700 l 1,28,-1
EndSplineSet
EndChar

